{
.appVersion = "3134";
.storedFileType = "public.opentype-font";
.formatVersion = 3;
customParameters = (
{
name = vendorID;
value = "NEW ";
},
{
name = panose;
value = (
0,
0,
0,
0,
0,
0,
0,
0,
0,
0
);
},
{
name = unicodeRanges;
value = (
0,
1,
2,
3,
5,
6,
29,
31,
32,
33,
35,
37,
38,
45,
62
);
},
{
name = codePageRanges;
value = (
"1252",
"1250",
"1254",
"1257",
"bit 29"
);
},
{
name = blueScale;
value = 0.037;
},
{
name = blueShift;
value = 4;
},
{
name = glyphOrder;
value = (
.notdef,
space,
A,
Aacute,
Abreve,
Acircumflex,
Adieresis,
Agrave,
Amacron,
Aogonek,
Aring,
Atilde,
AE,
B,
C,
Cacute,
Ccaron,
Ccedilla,
Ccircumflex,
Cdotaccent,
D,
Eth,
Dcaron,
Dcroat,
E,
Eacute,
Ebreve,
Ecaron,
Ecircumflex,
Edieresis,
Edotaccent,
Egrave,
Emacron,
Eogonek,
F,
G,
Gbreve,
Gcircumflex,
uni0122,
Gdotaccent,
H,
Hbar,
Hcircumflex,
I,
IJ,
Iacute,
Ibreve,
Icircumflex,
Idieresis,
Idotaccent,
Igrave,
Imacron,
Iogonek,
Itilde,
J,
Jcircumflex,
K,
uni0136,
L,
Lacute,
Lcaron,
uni013B,
Ldot,
Lslash,
M,
N,
Nacute,
Ncaron,
uni0145,
Eng,
Ntilde,
O,
Oacute,
Obreve,
Ocircumflex,
Odieresis,
Ograve,
Ohungarumlaut,
Omacron,
Oslash,
Otilde,
OE,
P,
Thorn,
Q,
R,
Racute,
Rcaron,
uni0156,
S,
Sacute,
Scaron,
Scedilla,
Scircumflex,
uni0218,
uni1E9E,
T,
Tbar,
Tcaron,
uni0162,
uni021A,
U,
Uacute,
Ubreve,
Ucircumflex,
Udieresis,
Ugrave,
Uhungarumlaut,
Umacron,
Uogonek,
Uring,
Utilde,
V,
W,
Wacute,
Wcircumflex,
Wdieresis,
Wgrave,
X,
Y,
Yacute,
Ycircumflex,
Ydieresis,
Ygrave,
Z,
Zacute,
Zcaron,
Zdotaccent,
M.ss02,
W.ss03,
Wacute.ss03,
Wcircumflex.ss03,
Wdieresis.ss03,
Wgrave.ss03,
U.ss04,
Uacute.ss04,
Ubreve.ss04,
Ucircumflex.ss04,
Udieresis.ss04,
Ugrave.ss04,
Uhungarumlaut.ss04,
Umacron.ss04,
Uogonek.ss04,
Uring.ss04,
Utilde.ss04,
a,
aacute,
abreve,
acircumflex,
adieresis,
agrave,
amacron,
aogonek,
aring,
atilde,
ae,
b,
c,
cacute,
ccaron,
ccedilla,
ccircumflex,
cdotaccent,
d,
eth,
dcaron,
dcroat,
e,
eacute,
ebreve,
ecaron,
ecircumflex,
edieresis,
edotaccent,
egrave,
emacron,
eogonek,
f,
g,
gbreve,

glyphs = (
{
glyphname = .notdef;
layers = (
{
hints = (
{
horizontal = 1;
place = (0, 40);
place = (0, 40);
type = Stem;
},
{
horizontal = 1;
place = (668, 40);
place = (668, 40);
type = Stem;
},
{
place = (0, 40);
place = (0, 40);
type = Stem;
},
{
place = (379, 40);
place = (379, 40);
type = Stem;
}
);
layerId = m01;
shapes = (
{
closed = 1;
nodes = (
(0,708,l),
(0,0,l),
(419,0,l),
(419,708,l)
);
},
{
closed = 1;
nodes = (
(187,355,l),
(40,76,l),
(40,632,l)
);
},
{
closed = 1;
nodes = (
(354,40,l),
(66,40,l),
(210,312,l)
);
},
{
closed = 1;
nodes = (
(210,397,l),
(66,668,l),
(354,668,l)
);
},
{
closed = 1;
nodes = (
(379,78,l),
(233,355,l),
(379,630,l)
);
}
);
width = 418;
}
);
note = ".notdef";
},
{
glyphname = A;
kernLeft = A;
kernRight = A;
layers = (
{
hints = (
{
horizontal = 1;
place = (-2, 21);
target = up;
type = BottomGhost;
},
{
horizontal = 1;
place = (254, 48);
place = (254, 48);
type = Stem;
},
{
horizontal = 1;
place = (714, -20);
target = down;
type = TopGhost;
},
{
place = (2, 156);
place = (2, 156);
type = Stem;
},
{
place = (2, 107);
place = (2, 107);
type = Stem;
},
{
place = (2, 524);
place = (2, 524);
type = Stem;
}
);
layerId = m01;
shapes = (
{
closed = 1;
nodes = (
(34,-2,o),
(49,1,o),
(71,1,cs),
(93,1,o),
(115,-2,o),
(134,-2,cs),
(149,-2,o),
(158,5,o),
(158,18,cs),
(158,46,o),
(109,41,o),
(109,76,cs),
(109,84,o),
(111,92,o),
(114,101,cs),
(150,238,ls),
(153,251,o),
(158,254,o),
(169,254,cs),
(327,254,ls),
(343,254,o),
(346,247,o),
(348,238,cs),
(384,100,ls),
(386,91,o),
(389,82,o),
(389,72,cs),
(389,40,o),
(340,48,o),
(340,18,cs),
(340,5,o),
(350,-2,o),
(364,-2,cs),
(383,-2,o),
(413,1,o),
(443,1,cs),
(473,1,o),
(495,-2,o),
(509,-2,cs),
(519,-2,o),
(526,5,o),
(526,15,cs),
(526,49,o),
(490,32,o),
(471,99,cs),
(358,515,ls),
(343,568,o),
(329,621,o),
(320,661,cs),
(310,709,o),
(305,714,o),
(265,714,cs),
(224,714,o),
(217,709,o),
(207,661,cs),
(199,622,o),
(186,568,o),
(171,515,cs),
(57,95,ls),
(39,31,o),
(2,50,o),
(2,16,cs),
(2,6,o),
(9,-2,o),
(21,-2,cs)
);
},
{
closed = 1;
nodes = (
(249,605,l),
(328,314,ls),
(330,307,o),
(326,302,o),
(318,302,cs),
(179,302,ls),
(171,302,o),
(169,307,o),
(171,316,cs)
);
}
);
width = 529;
}
);
note = A;
unicode = 65;
},
{
glyphname = Aacute;
kernLeft = A;
kernRight = A;
layers = (
{
hints = (
{
horizontal = 1;
place = (-2, 21);
target = up;
type = BottomGhost;
},
{
horizontal = 1;
place = (254, 48);
place = (254, 48);
type = Stem;
},
{
horizontal = 1;
place = (714, -20);
target = down;
type = TopGhost;
},
{
place = (2, 524);
place = (2, 524);
type = Stem;
},
{
place = (2, 156);
place = (2, 156);
type = Stem;
},
{
place = (2, 107);
place = (2, 107);
type = Stem;
}
);
layerId = m01;
shapes = (
{
closed = 1;
nodes = (
(34,-2,o),
(49,1,o),
(71,1,cs),
(93,1,o),
(115,-2,o),
(134,-2,cs),
(149,-2,o),
(158,5,o),
(158,18,cs),
(158,46,o),
(109,41,o),
(109,76,cs),
(109,84,o),
(111,92,o),
(114,101,cs),
(150,238,ls),
(153,251,o),
(158,254,o),
(169,254,cs),
(327,254,ls),
(343,254,o),
(346,247,o),
(348,238,cs),
(384,100,ls),
(386,91,o),
(389,82,o),
(389,72,cs),
(389,40,o),
(340,48,o),
(340,18,cs),
(340,5,o),
(350,-2,o),
(364,-2,cs),
(383,-2,o),
(413,1,o),
(443,1,cs),
(473,1,o),
(495,-2,o),
(509,-2,cs),
(519,-2,o),
(526,5,o),
(526,15,cs),
(526,49,o),
(490,32,o),
(471,99,cs),
(358,515,ls),
(343,568,o),
(329,621,o),
(320,661,cs),
(310,709,o),
(305,714,o),
(265,714,cs),
(224,714,o),
(217,709,o),
(207,661,cs),
(199,622,o),
(186,568,o),
(171,515,cs),
(57,95,ls),
(39,31,o),
(2,50,o),
(2,16,cs),
(2,6,o),
(9,-2,o),
(21,-2,cs)
);
},
{
closed = 1;
nodes = (
(249,605,l),
(328,314,ls),
(330,307,o),
(326,302,o),
(318,302,cs),
(179,302,ls),
(171,302,o),
(169,307,o),
(171,316,cs)
);
},
{
closed = 1;
nodes = (
(239,759,o),
(246,754,o),
(256,754,cs),
(266,754,o),
(274,756,o),
(287,775,cs),
(303,796,o),
(339,853,o),
(354,874,cs),
(368,895,o),
(379,911,o),
(379,921,cs),
(379,935,o),
(369,938,o),
(342,938,cs),
(319,938,o),
(312,934,o),
(303,918,cs),
(285,882,o),
(263,832,o),
(245,790,cs),
(242,783,o),
(239,773,o),
(239,767,cs)
);
}
);
width = 529;
}
);
note = Aacute;
unicode = 193;
},
{
glyphname = Abreve;
kernLeft = A;
kernRight = A;
layers = (
{
hints = (
{
horizontal = 1;
place = (-2, 21);
target = up;
type = BottomGhost;
},
{
horizontal = 1;
place = (254, 48);
place = (254, 48);
type = Stem;
},
{
horizontal = 1;
place = (714, -20);
target = down;
type = TopGhost;
},
{
horizontal = 1;
place = (767, 61);
place = (767, 61);
type = Stem;
},
{
place = (2, 107);
place = (2, 107);
type = Stem;
},
{
place = (2, 156);
place = (2, 156);
type = Stem;
},
{
place = (2, 524);
place = (2, 524);
type = Stem;
}
);
layerId = m01;
shapes = (
{
closed = 1;
nodes = (
(34,-2,o),
(49,1,o),
(71,1,cs),
(93,1,o),
(115,-2,o),
(134,-2,cs),
(149,-2,o),
(158,5,o),
(158,18,cs),
(158,46,o),
(109,41,o),
(109,76,cs),
(109,84,o),
(111,92,o),
(114,101,cs),
(150,238,ls),
(153,251,o),
(158,254,o),
(169,254,cs),
(327,254,ls),
(343,254,o),
(346,247,o),
(348,238,cs),
(384,100,ls),
(386,91,o),
(389,82,o),
(389,72,cs),
(389,40,o),
(340,48,o),
(340,18,cs),
(340,5,o),
(350,-2,o),
(364,-2,cs),
(383,-2,o),
(413,1,o),
(443,1,cs),
(473,1,o),
(495,-2,o),
(509,-2,cs),
(519,-2,o),
(526,5,o),
(526,15,cs),
(526,49,o),
(490,32,o),
(471,99,cs),
(358,515,ls),
(343,568,o),
(329,621,o),
(320,661,cs),
(310,709,o),
(305,714,o),
(265,714,cs),
(224,714,o),
(217,709,o),
(207,661,cs),
(199,622,o),
(186,568,o),
(171,515,cs),
(57,95,ls),
(39,31,o),
(2,50,o),
(2,16,cs),
(2,6,o),
(9,-2,o),
(21,-2,cs)
);
},
{
closed = 1;
nodes = (
(159,903,o),
(160,889,o),
(165,867,cs),
(181,801,o),
(218,767,o),
(268,767,cs),
(317,767,o),
(350,800,o),
(368,867,cs),
(373,887,o),
(376,904,o),
(376,914,cs),
(376,927,o),
(370,936,o),
(358,936,cs),
(342,936,o),
(334,917,o),
(328,896,cs),
(315,852,o),
(300,828,o),
(268,828,cs),
(236,828,o),
(219,850,o),
(206,895,cs),
(199,919,o),
(193,936,o),
(179,936,cs),
(167,936,o),
(159,926,o),
(159,913,cs)
);
},
{
closed = 1;
nodes = (
(249,605,l),
(328,314,ls),
(330,307,o),
(326,302,o),
(318,302,cs),
(179,302,ls),
(171,302,o),
(169,307,o),
(171,316,cs)
);
}
);
width = 529;
}
);
note = Abreve;
unicode = 258;
},
{
glyphname = Acircumflex;
kernLeft = A;
kernRight = A;
layers = (
{
hints = (
{
horizontal = 1;
place = (-2, 21);
target = up;
type = BottomGhost;
},
{
horizontal = 1;
place = (254, 48);
place = (254, 48);
type = Stem;
},
{
horizontal = 1;
place = (714, -20);
target = down;
type = TopGhost;
},
{
place = (2, 524);
place = (2, 524);
type = Stem;
},
{
place = (2, 156);
place = (2, 156);
type = Stem;
},
{
place = (2, 107);
place = (2, 107);
type = Stem;
}
);
layerId = m01;
shapes = (
{
closed = 1;
nodes = (
(34,-2,o),
(49,1,o),
(71,1,cs),
(93,1,o),
(115,-2,o),
(134,-2,cs),
(149,-2,o),
(158,5,o),
(158,18,cs),
(158,46,o),
(109,41,o),
(109,76,cs),
(109,84,o),
(111,92,o),
(114,101,cs),
(150,238,ls),
(153,251,o),
(158,254,o),
(169,254,cs),
(327,254,ls),
(343,254,o),
(346,247,o),
(348,238,cs),
(384,100,ls),
(386,91,o),
(389,82,o),
(389,72,cs),
(389,40,o),
(340,48,o),
(340,18,cs),
(340,5,o),
(350,-2,o),
(364,-2,cs),
(383,-2,o),
(413,1,o),
(443,1,cs),
(473,1,o),
(495,-2,o),
(509,-2,cs),
(519,-2,o),
(526,5,o),
(526,15,cs),
(526,49,o),
(490,32,o),
(471,99,cs),
(358,515,ls),
(343,568,o),
(329,621,o),
(320,661,cs),
(310,709,o),
(305,714,o),
(265,714,cs),
(224,714,o),
(217,709,o),
(207,661,cs),
(199,622,o),
(186,568,o),
(171,515,cs),
(57,95,ls),
(39,31,o),
(2,50,o),
(2,16,cs),
(2,6,o),
(9,-2,o),
(21,-2,cs)
);
},
{
closed = 1;
nodes = (
(157,768,o),
(165,762,o),
(176,762,cs),
(185,762,o),
(193,767,o),
(205,784,cs),
(268,875,l),
(331,784,ls),
(342,768,o),
(350,762,o),
(360,762,cs),
(371,762,o),
(378,768,o),
(378,778,cs),
(378,787,o),
(375,794,o),
(370,805,cs),
(361,823,o),
(333,878,o),
(310,916,cs),
(298,935,o),
(290,941,o),
(268,941,cs),
(245,941,o),
(236,934,o),
(227,917,cs),
(203,876,o),
(188,846,o),
(165,804,cs),
(160,793,o),
(157,787,o),
(157,778,cs)
);
},
{
closed = 1;
nodes = (
(249,605,l),
(328,314,ls),
(330,307,o),
(326,302,o),
(318,302,cs),
(179,302,ls),
(171,302,o),
(169,307,o),
(171,316,cs)
);
}
);
width = 529;
}
);
note = Acircumflex;
unicode = 194;
},
{
glyphname = Adieresis;
kernLeft = A;
kernRight = A;
layers = (
{
hints = (
{
horizontal = 1;
place = (-2, 21);
target = up;
type = BottomGhost;
},
{
horizontal = 1;
place = (254, 48);
place = (254, 48);
type = Stem;
},
{
horizontal = 1;
place = (714, -20);
target = down;
type = TopGhost;
},
{
horizontal = 1;
place = (788, 105);
place = (788, 105);
type = Stem;
},
{
place = (2, 107);
place = (2, 107);
type = Stem;
},
{
place = (133, 113);
place = (133, 113);
type = Stem;
},
{
place = (288, 114);
place = (288, 114);
type = Stem;
},
{
place = (2, 156);
place = (2, 156);
type = Stem;
}
);
layerId = m01;
shapes = (
{
closed = 1;
nodes = (
(34,-2,o),
(49,1,o),
(71,1,cs),
(93,1,o),
(115,-2,o),
(134,-2,cs),
(149,-2,o),
(158,5,o),
(158,18,cs),
(158,46,o),
(109,41,o),
(109,76,cs),
(109,84,o),
(111,92,o),
(114,101,cs),
(150,238,ls),
(153,251,o),
(158,254,o),
(169,254,cs),
(327,254,ls),
(343,254,o),
(346,247,o),
(348,238,cs),
(384,100,ls),
(386,91,o),
(389,82,o),
(389,72,cs),
(389,40,o),
(340,48,o),
(340,18,cs),
(340,5,o),
(350,-2,o),
(364,-2,cs),
(383,-2,o),
(413,1,o),
(443,1,cs),
(473,1,o),
(495,-2,o),
(509,-2,cs),
(519,-2,o),
(526,5,o),
(526,15,cs),
(526,49,o),
(490,32,o),
(471,99,cs),
(358,515,ls),
(343,568,o),
(329,621,o),
(320,661,cs),
(310,709,o),
(305,714,o),
(265,714,cs),
(224,714,o),
(217,709,o),
(207,661,cs),
(199,622,o),
(186,568,o),
(171,515,cs),
(57,95,ls),
(39,31,o),
(2,50,o),
(2,16,cs),
(2,6,o),
(9,-2,o),
(21,-2,cs)
);
},
{
closed = 1;
nodes = (
(133,808,o),
(156,788,o),
(190,788,cs),
(223,788,o),
(246,809,o),
(246,841,cs),
(246,873,o),
(223,893,o),
(190,893,cs),
(156,893,o),
(133,868,o),
(133,839,cs)
);
},
{
closed = 1;
nodes = (
(249,605,l),
(328,314,ls),
(330,307,o),
(326,302,o),
(318,302,cs),
(179,302,ls),
(171,302,o),
(169,307,o),
(171,316,cs)
);
},
{
closed = 1;
nodes = (
(288,808,o),
(310,788,o),
(345,788,cs),
(378,788,o),
(402,809,o),
(402,841,cs),
(402,873,o),
(378,893,o),
(345,893,cs),
(310,893,o),
(288,868,o),
(288,839,cs)
);
}
);
width = 529;
}
);
note = Adieresis;
unicode = 196;
},
{
glyphname = Agrave;
kernLeft = A;
kernRight = A;
layers = (
{
hints = (
{
horizontal = 1;
place = (-2, 21);
target = up;
type = BottomGhost;
},
{
horizontal = 1;
place = (254, 48);
place = (254, 48);
type = Stem;
},
{
horizontal = 1;
place = (714, -20);
target = down;
type = TopGhost;
},
{
place = (2, 156);
place = (2, 156);
type = Stem;
},
{
place = (2, 107);
place = (2, 107);
type = Stem;
},
{
place = (2, 524);
place = (2, 524);
type = Stem;
}
);
layerId = m01;
shapes = (
{
closed = 1;
nodes = (
(34,-2,o),
(49,1,o),
(71,1,cs),
(93,1,o),
(115,-2,o),
(134,-2,cs),
(149,-2,o),
(158,5,o),
(158,18,cs),
(158,46,o),
(109,41,o),
(109,76,cs),
(109,84,o),
(111,92,o),
(114,101,cs),
(150,238,ls),
(153,251,o),
(158,254,o),
(169,254,cs),
(327,254,ls),
(343,254,o),
(346,247,o),
(348,238,cs),
(384,100,ls),
(386,91,o),
(389,82,o),
(389,72,cs),
(389,40,o),
(340,48,o),
(340,18,cs),
(340,5,o),
(350,-2,o),
(364,-2,cs),
(383,-2,o),
(413,1,o),
(443,1,cs),
(473,1,o),
(495,-2,o),
(509,-2,cs),
(519,-2,o),
(526,5,o),
(526,15,cs),
(526,49,o),
(490,32,o),
(471,99,cs),
(358,515,ls),
(343,568,o),
(329,621,o),
(320,661,cs),
(310,709,o),
(305,714,o),
(265,714,cs),
(224,714,o),
(217,709,o),
(207,661,cs),
(199,622,o),
(186,568,o),
(171,515,cs),
(57,95,ls),
(39,31,o),
(2,50,o),
(2,16,cs),
(2,6,o),
(9,-2,o),
(21,-2,cs)
);
},
{
closed = 1;
nodes = (
(157,911,o),
(165,899,o),
(181,875,cs),
(193,859,o),
(231,798,o),
(248,775,cs),
(261,756,o),
(269,754,o),
(279,754,cs),
(289,754,o),
(296,759,o),
(296,767,cs),
(296,772,o),
(294,780,o),
(289,791,cs),
(268,844,o),
(252,882,o),
(231,919,cs),
(223,934,o),
(217,939,o),
(194,939,cs),
(165,939,o),
(157,936,o),
(157,921,cs)
);
},
{
closed = 1;
nodes = (
(249,605,l),
(328,314,ls),
(330,307,o),
(326,302,o),
(318,302,cs),
(179,302,ls),
(171,302,o),
(169,307,o),
(171,316,cs)
);
}
);
width = 529;
}
);
note = Agrave;
unicode = 192;
},
{
glyphname = Amacron;
kernLeft = A;
kernRight = A;
layers = (
{
hints = (
{
horizontal = 1;
place = (-2, 21);
target = up;
type = BottomGhost;
},
{
horizontal = 1;
place = (254, 48);
place = (254, 48);
type = Stem;
},
{
horizontal = 1;
place = (714, -20);
target = down;
type = TopGhost;
},
{
horizontal = 1;
place = (813, 59);
place = (813, 59);
type = Stem;
},
{
place = (2, 156);
place = (2, 156);
type = Stem;
},
{
place = (2, 107);
place = (2, 107);
type = Stem;
},
{
place = (2, 524);
place = (2, 524);
type = Stem;
}
);
layerId = m01;
shapes = (
{
closed = 1;
nodes = (
(34,-2,o),
(49,1,o),
(71,1,cs),
(93,1,o),
(115,-2,o),
(134,-2,cs),
(149,-2,o),
(158,5,o),
(158,18,cs),
(158,46,o),
(109,41,o),
(109,76,cs),
(109,84,o),
(111,92,o),
(114,101,cs),
(150,238,ls),
(153,251,o),
(158,254,o),
(169,254,cs),
(327,254,ls),
(343,254,o),
(346,247,o),
(348,238,cs),
(384,100,ls),
(386,91,o),
(389,82,o),
(389,72,cs),
(389,40,o),
(340,48,o),
(340,18,cs),
(340,5,o),
(350,-2,o),
(364,-2,cs),
(383,-2,o),
(413,1,o),
(443,1,cs),
(473,1,o),
(495,-2,o),
(509,-2,cs),
(519,-2,o),
(526,5,o),
(526,15,cs),
(526,49,o),
(490,32,o),
(471,99,cs),
(358,515,ls),
(343,568,o),
(329,621,o),
(320,661,cs),
(310,709,o),
(305,714,o),
(265,714,cs),
(224,714,o),
(217,709,o),
(207,661,cs),
(199,622,o),
(186,568,o),
(171,515,cs),
(57,95,ls),
(39,31,o),
(2,50,o),
(2,16,cs),
(2,6,o),
(9,-2,o),
(21,-2,cs)
);
},
{
closed = 1;
nodes = (
(153,824,o),
(160,813,o),
(175,813,cs),
(190,813,o),
(247,814,o),
(268,814,cs),
(359,813,ls),
(375,813,o),
(381,824,o),
(381,843,cs),
(381,862,o),
(375,873,o),
(359,873,cs),
(344,873,o),
(287,872,o),
(267,872,cs),
(175,873,ls),
(160,873,o),
(153,863,o),
(153,843,cs)
);
},
{
closed = 1;
nodes = (
(249,605,l),
(328,314,ls),
(330,307,o),
(326,302,o),
(318,302,cs),
(179,302,ls),
(171,302,o),
(169,307,o),
(171,316,cs)
);
}
);
width = 529;
}
);
note = Amacron;
unicode = 256;
},
{
glyphname = Aogonek;
kernLeft = A;
kernRight = A;
layers = (
{
hints = (
{
horizontal = 1;
place = (-199, 43);
place = (-199, 43);
type = Stem;
},
{
horizontal = 1;
place = (-2, 21);
target = up;
type = BottomGhost;
},
{
horizontal = 1;
place = (254, 48);
place = (254, 48);
type = Stem;
},
{
horizontal = 1;
place = (714, -20);
target = down;
type = TopGhost;
},
{
place = (2, 107);
place = (2, 107);
type = Stem;
},
{
place = (354, 54);
place = (354, 54);
type = Stem;
},
{
horizontal = 1;
place = (0, 21);
target = up;
type = BottomGhost;
},
{
place = (2, 156);
place = (2, 156);
type = Stem;
}
);
layerId = m01;
shapes = (
{
closed = 1;
nodes = (
(34,-2,o),
(49,1,o),
(71,1,cs),
(93,1,o),
(115,-2,o),
(134,-2,cs),
(149,-2,o),
(158,5,o),
(158,18,cs),
(158,46,o),
(109,41,o),
(109,76,cs),
(109,84,o),
(111,92,o),
(114,101,cs),
(150,238,ls),
(153,251,o),
(158,254,o),
(169,254,cs),
(327,254,ls),
(343,254,o),
(346,247,o),
(348,238,cs),
(384,100,ls),
(386,91,o),
(389,82,o),
(389,72,cs),
(389,40,o),
(340,48,o),
(340,18,cs),
(340,5,o),
(350,-2,o),
(364,-2,cs),
(377,-2,o),
(394,-1,o),
(414,0,c),
(378,-40,o),
(354,-82,o),
(354,-125,cs),
(354,-176,o),
(388,-199,o),
(420,-199,cs),
(440,-199,o),
(458,-192,o),
(471,-179,c),
(477,-171,o),
(480,-165,o),
(480,-158,cs),
(480,-149,o),
(476,-144,o),
(467,-144,cs),
(464,-144,o),
(461,-145,o),
(456,-148,cs),
(450,-153,o),
(444,-156,o),
(436,-156,cs),
(418,-156,o),
(408,-140,o),
(408,-112,cs),
(408,-69,o),
(430,-34,o),
(456,1,c),
(480,0,o),
(497,-2,o),
(509,-2,cs),
(519,-2,o),
(526,5,o),
(526,15,cs),
(526,49,o),
(490,32,o),
(471,99,cs),
(358,515,ls),
(343,568,o),
(329,621,o),
(320,661,cs),
(310,709,o),
(305,714,o),
(265,714,cs),
(224,714,o),
(217,709,o),
(207,661,cs),
(199,622,o),
(186,568,o),
(171,515,cs),
(57,95,ls),
(39,31,o),
(2,50,o),
(2,16,cs),
(2,6,o),
(9,-2,o),
(21,-2,cs)
);
},
{
closed = 1;
nodes = (
(249,605,l),
(328,314,ls),
(330,307,o),
(326,302,o),
(318,302,cs),
(179,302,ls),
(171,302,o),
(169,307,o),
(171,316,cs)
);
}
);
width = 529;
}
);
note = Aogonek;
unicode = 260;
},
{
glyphname = Aring;
kernLeft = A;
kernRight = A;
layers = (
{
hints = (
{
horizontal = 1;
place = (-2, 21);
target = up;
type = BottomGhost;
},
{
horizontal = 1;
place = (254, 48);
place = (254, 48);
type = Stem;
},
{
horizontal = 1;
place = (714, -20);
target = down;
type = TopGhost;
},
{
horizontal = 1;
place = (745, 37);
place = (745, 37);
type = Stem;
},
{
horizontal = 1;
place = (909, 37);
place = (909, 37);
type = Stem;
},
{
place = (2, 107);
place = (2, 107);
type = Stem;
},
{
place = (175, 48);
place = (175, 48);
type = Stem;
},
{
place = (311, 48);
place = (311, 48);
type = Stem;
},
{
place = (2, 156);
place = (2, 156);
type = Stem;
}
);
layerId = m01;
shapes = (
{
closed = 1;
nodes = (
(34,-2,o),
(49,1,o),
(71,1,cs),
(93,1,o),
(115,-2,o),
(134,-2,cs),
(149,-2,o),
(158,5,o),
(158,18,cs),
(158,46,o),
(109,41,o),
(109,76,cs),
(109,84,o),
(111,92,o),
(114,101,cs),
(150,238,ls),
(153,251,o),
(158,254,o),
(169,254,cs),
(327,254,ls),
(343,254,o),
(346,247,o),
(348,238,cs),
(384,100,ls),
(386,91,o),
(389,82,o),
(389,72,cs),
(389,40,o),
(340,48,o),
(340,18,cs),
(340,5,o),
(350,-2,o),
(364,-2,cs),
(383,-2,o),
(413,1,o),
(443,1,cs),
(473,1,o),
(495,-2,o),
(509,-2,cs),
(519,-2,o),
(526,5,o),
(526,15,cs),
(526,49,o),
(490,32,o),
(471,99,cs),
(358,515,ls),
(343,568,o),
(329,621,o),
(320,661,cs),
(310,709,o),
(305,714,o),
(265,714,cs),
(224,714,o),
(217,709,o),
(207,661,cs),
(199,622,o),
(186,568,o),
(171,515,cs),
(57,95,ls),
(39,31,o),
(2,50,o),
(2,16,cs),
(2,6,o),
(9,-2,o),
(21,-2,cs)
);
},
{
closed = 1;
nodes = (
(249,605,l),
(328,314,ls),
(330,307,o),
(326,302,o),
(318,302,cs),
(179,302,ls),
(171,302,o),
(169,307,o),
(171,316,cs)
);
},
{
closed = 1;
nodes = (
(175,781,o),
(208,745,o),
(266,745,cs),
(324,745,o),
(359,784,o),
(359,850,cs),
(359,910,o),
(326,946,o),
(270,946,cs),
(211,946,o),
(175,908,o),
(175,846,cs)
);
},
{
closed = 1;
nodes = (
(223,887,o),
(240,909,o),
(268,909,cs),
(294,909,o),
(311,886,o),
(311,845,cs),
(311,804,o),
(296,782,o),
(267,782,cs),
(240,782,o),
(223,806,o),
(223,845,cs)
);
}
);
width = 529;
}
);
note = Aring;
unicode = 197;
},
{
glyphname = Atilde;
kernLeft = A;
kernRight = A;
layers = (
{
hints = (
{
horizontal = 1;
place = (-2, 21);
target = up;
type = BottomGhost;
},
{
horizontal = 1;
place = (254, 48);
place = (254, 48);
type = Stem;
},
{
horizontal = 1;
place = (714, -20);
target = down;
type = TopGhost;
},
{
horizontal = 1;
place = (776, 60);
place = (776, 60);
type = Stem;
},
{
horizontal = 1;
place = (855, 60);
place = (855, 60);
type = Stem;
},
{
place = (2, 107);
place = (2, 107);
type = Stem;
},
{
place = (2, 156);
place = (2, 156);
type = Stem;
},
{
place = (2, 524);
place = (2, 524);
type = Stem;
}
);
layerId = m01;
shapes = (
{
closed = 1;
nodes = (
(34,-2,o),
(49,1,o),
(71,1,cs),
(93,1,o),
(115,-2,o),
(134,-2,cs),
(149,-2,o),
(158,5,o),
(158,18,cs),
(158,46,o),
(109,41,o),
(109,76,cs),
(109,84,o),
(111,92,o),
(114,101,cs),
(150,238,ls),
(153,251,o),
(158,254,o),
(169,254,cs),
(327,254,ls),
(343,254,o),
(346,247,o),
(348,238,cs),
(384,100,ls),
(386,91,o),
(389,82,o),
(389,72,cs),
(389,40,o),
(340,48,o),
(340,18,cs),
(340,5,o),
(350,-2,o),
(364,-2,cs),
(383,-2,o),
(413,1,o),
(443,1,cs),
(473,1,o),
(495,-2,o),
(509,-2,cs),
(519,-2,o),
(526,5,o),
(526,15,cs),
(526,49,o),
(490,32,o),
(471,99,cs),
(358,515,ls),
(343,568,o),
(329,621,o),
(320,661,cs),
(310,709,o),
(305,714,o),
(265,714,cs),
(224,714,o),
(217,709,o),
(207,661,cs),
(199,622,o),
(186,568,o),
(171,515,cs),
(57,95,ls),
(39,31,o),
(2,50,o),
(2,16,cs),
(2,6,o),
(9,-2,o),
(21,-2,cs)
);
},
{
closed = 1;
nodes = (
(147,791,o),
(154,784,o),
(164,784,cs),
(175,784,o),
(179,796,o),
(187,819,cs),
(197,847,o),
(207,855,o),
(215,855,cs),
(236,855,o),
(272,776,o),
(317,776,cs),
(356,776,o),
(375,818,o),
(385,856,cs),
(389,871,o),
(390,882,o),
(390,887,cs),
(390,899,o),
(383,906,o),
(373,906,cs),
(360,906,o),
(354,891,o),
(348,873,cs),
(340,847,o),
(331,836,o),
(322,836,cs),
(293,836,o),
(264,915,o),
(219,915,cs),
(182,915,o),
(160,868,o),
(152,835,cs),
(148,819,o),
(147,810,o),
(147,805,cs)
);
},
{
closed = 1;
nodes = (
(249,605,l),
(328,314,ls),
(330,307,o),
(326,302,o),
(318,302,cs),
(179,302,ls),
(171,302,o),
(169,307,o),
(171,316,cs)
);
}
);
width = 529;
}
);
note = Atilde;
unicode = 195;
},
{
glyphname = AE;
kernLeft = AE;
kernRight = AE;
layers = (
{
hints = (
{
horizontal = 1;
place = (-3, 52);
place = (-3, 52);
type = Stem;
},
{
horizontal = 1;
place = (261, 48);
place = (261, 48);
type = Stem;
},
{
horizontal = 1;
place = (335, 49);
place = (335, 49);
type = Stem;
},
{
horizontal = 1;
place = (711, -20);
target = down;
type = TopGhost;
},
{
place = (-12, 167);
place = (-12, 167);
type = Stem;
},
{
place = (365, 85);
place = (365, 85);
type = Stem;
},
{
horizontal = 1;
place = (659, 49);
place = (659, 49);
type = Stem;
},
{
horizontal = 1;
place = (0, 49);
place = (0, 49);
type = Stem;
}
);
layerId = m01;
shapes = (
{
closed = 1;
nodes = (
(690,-21,o),
(699,-5,o),
(707,17,cs),
(736,101,ls),
(750,140,o),
(756,159,o),
(756,173,cs),
(756,184,o),
(749,192,o),
(739,192,cs),
(729,192,o),
(721,183,o),
(710,167,cs),
(661,92,o),
(632,49,o),
(573,49,cs),
(502,49,ls),
(451,49,o),
(450,67,o),
(450,98,cs),
(450,314,ls),
(450,331,o),
(457,335,o),
(471,335,cs),
(530,335,ls),
(574,335,o),
(571,260,o),
(596,260,cs),
(606,260,o),
(614,266,o),
(614,286,cs),
(614,307,o),
(611,334,o),
(611,360,cs),
(611,385,o),
(614,410,o),
(614,433,cs),
(614,453,o),
(606,460,o),
(596,460,cs),
(571,460,o),
(574,384,o),
(530,384,cs),
(471,384,ls),
(457,384,o),
(450,388,o),
(450,406,cs),
(450,610,ls),
(450,651,o),
(462,659,o),
(502,659,cs),
(549,659,ls),
(605,659,o),
(633,625,o),
(684,548,cs),
(694,533,o),
(701,524,o),
(713,524,cs),
(721,524,o),
(729,531,o),
(729,543,cs),
(729,555,o),
(724,573,o),
(711,609,cs),
(684,680,ls),
(674,708,o),
(667,728,o),
(650,728,cs),
(634,728,o),
(633,708,o),
(610,708,cs),
(350,708,ls),
(320,708,o),
(295,711,o),
(284,711,cs),
(268,711,o),
(258,703,o),
(258,690,cs),
(258,655,o),
(303,672,o),
(303,626,cs),
(303,608,o),
(293,586,o),
(286,572,cs),
(62,95,ls),
(29,25,o),
(-12,53,o),
(-12,14,cs),
(-12,5,o),
(-5,-3,o),
(5,-3,cs),
(18,-3,o),
(43,0,o),
(70,0,cs),
(93,0,o),
(109,-3,o),
(129,-3,cs),
(145,-3,o),
(155,4,o),
(155,17,cs),
(155,46,o),
(110,42,o),
(110,68,cs),
(110,79,o),
(116,90,o),
(122,102,cs),
(187,241,ls),
(194,257,o),
(202,261,o),
(214,261,cs),
(352,261,ls),
(362,261,o),
(365,254,o),
(365,241,cs),
(365,94,ls),
(365,28,o),
(320,53,o),
(320,16,cs),
(320,5,o),
(326,-3,o),
(341,-3,cs),
(354,-3,o),
(378,0,o),
(407,0,cs),
(631,0,ls),
(655,0,o),
(658,-21,o),
(677,-21,cs)
);
},
{
closed = 1;
nodes = (
(365,624,l),
(365,330,ls),
(365,314,o),
(359,309,o),
(352,309,cs),
(234,309,ls),
(221,309,o),
(222,318,o),
(228,330,cs)
);
}
);
width = 767;
}
);
note = AE;
unicode = 198;
},
{
glyphname = B;
kernLeft = B;
kernRight = B;
layers = (
{
hints = (
{
horizontal = 1;
place = (-2, 49);
place = (-2, 49);
type = Stem;
},
{
horizontal = 1;
place = (358, 47);
place = (358, 47);
type = Stem;
},
{
horizontal = 1;
place = (661, 49);
place = (661, 49);
type = Stem;
},
{
place = (84, 85);
place = (84, 85);
type = Stem;
},
{
place = (395, 93);
place = (395, 93);
type = Stem;
},
{
place = (358, 90);
place = (358, 90);
type = Stem;
}
);
layerId = m01;
shapes = (
{
closed = 1;
nodes = (
(73,-2,o),
(96,1,o),
(126,1,cs),
(156,1,o),
(214,-2,o),
(279,-2,cs),
(417,-2,o),
(488,83,o),
(488,197,cs),
(488,306,o),
(418,366,o),
(342,388,c),
(407,408,o),
(448,462,o),
(448,541,cs),
(448,648,o),
(371,710,o),
(246,710,cs),
(202,710,o),
(164,706,o),
(126,706,cs),
(96,706,o),
(73,709,o),
(60,709,cs),
(49,709,o),
(39,702,o),
(39,690,cs),
(39,653,o),
(84,678,o),
(84,613,cs),
(84,95,ls),
(84,29,o),
(39,54,o),
(39,18,cs),
(39,7,o),
(47,-2,o),
(61,-2,cs)
);
},
{
closed = 1;
nodes = (
(169,336,ls),
(169,353,o),
(176,358,o),
(189,358,cs),
(237,358,ls),
(337,358,o),
(395,292,o),
(395,193,cs),
(395,101,o),
(345,47,o),
(263,47,cs),
(231,47,ls),
(174,47,o),
(169,67,o),
(169,100,cs)
);
},
{
closed = 1;
nodes = (
(169,608,ls),
(169,650,o),
(186,661,o),
(228,661,cs),
(232,661,ls),
(319,661,o),
(358,613,o),
(358,534,cs),
(358,449,o),
(314,405,o),
(235,405,cs),
(190,405,ls),
(171,405,o),
(169,415,o),
(169,426,cs)
);
}
);
width = 519;
}
);
note = B;
unicode = 66;
},
{
glyphname = C;
kernLeft = C;
kernRight = C;
layers = (
{
hints = (
{
horizontal = 1;
place = (-13, 68);
place = (-13, 68);
type = Stem;
},
{
horizontal = 1;
place = (666, 34);
place = (666, 34);
type = Stem;
},
{
place = (37, 91);
place = (37, 91);
type = Stem;
},
{
horizontal = 1;
place = (666, 55);
place = (666, 55);
type = Stem;
}
);
layerId = m01;
shapes = (
{
closed = 1;
nodes = (
(370,-13,o),
(440,58,o),
(466,129,cs),
(471,143,o),
(477,157,o),
(477,167,cs),
(477,182,o),
(467,191,o),
(457,191,cs),
(443,191,o),
(437,181,o),
(433,172,cs),
(405,95,o),
(353,55,o),
(296,55,cs),
(194,55,o),
(128,184,o),
(128,357,cs),
(128,534,o),
(195,666,o),
(286,666,cs),
(342,666,o),
(379,619,o),
(424,526,cs),
(430,513,o),
(438,501,o),
(451,501,cs),
(461,501,o),
(470,511,o),
(470,522,cs),
(470,537,o),
(464,557,o),
(452,603,cs),
(433,679,ls),
(424,712,o),
(417,724,o),
(401,724,cs),
(382,724,o),
(379,700,o),
(364,700,cs),
(349,700,o),
(323,721,o),
(277,721,cs),
(146,721,o),
(37,558,o),
(37,341,cs),
(37,109,o),
(142,-13,o),
(271,-13,cs)
);
}
);
width = 495;
}
);
note = C;
unicode = 67;
},
{
glyphname = Cacute;
kernLeft = C;
kernRight = C;
layers = (
{
hints = (
{
horizontal = 1;
place = (-13, 68);
place = (-13, 68);
type = Stem;
},
{
horizontal = 1;
place = (666, 34);
place = (666, 34);
type = Stem;
},
{
place = (37, 91);
place = (37, 91);
type = Stem;
},
{
horizontal = 1;
place = (666, 55);
place = (666, 55);
type = Stem;
}
);
layerId = m01;
shapes = (
{
closed = 1;
nodes = (
(370,-13,o),
(440,58,o),
(466,129,cs),
(471,143,o),
(477,157,o),
(477,167,cs),
(477,182,o),
(467,191,o),
(457,191,cs),
(443,191,o),
(437,181,o),
(433,172,cs),
(405,95,o),
(353,55,o),
(296,55,cs),
(194,55,o),
(128,184,o),
(128,357,cs),
(128,534,o),
(195,666,o),
(286,666,cs),
(342,666,o),
(379,619,o),
(424,526,cs),
(430,513,o),
(438,501,o),
(451,501,cs),
(461,501,o),
(470,511,o),
(470,522,cs),
(470,537,o),
(464,557,o),
(452,603,cs),
(433,679,ls),
(424,712,o),
(417,724,o),
(401,724,cs),
(382,724,o),
(379,700,o),
(364,700,cs),
(349,700,o),
(323,721,o),
(277,721,cs),
(146,721,o),
(37,558,o),
(37,341,cs),
(37,109,o),
(142,-13,o),
(271,-13,cs)
);
},
{
closed = 1;
nodes = (
(237,759,o),
(244,754,o),
(254,754,cs),
(264,754,o),
(272,756,o),
(285,775,cs),
(301,796,o),
(337,853,o),
(352,874,cs),
(366,895,o),
(377,911,o),
(377,921,cs),
(377,935,o),
(367,938,o),
(340,938,cs),
(317,938,o),
(310,934,o),
(301,918,cs),
(283,882,o),
(261,832,o),
(243,790,cs),
(240,783,o),
(237,773,o),
(237,767,cs)
);
}
);
width = 495;
}
);
note = Cacute;
unicode = 262;
},
{
glyphname = Ccaron;
kernLeft = C;
kernRight = C;
layers = (
{
hints = (
{
horizontal = 1;
place = (-13, 68);
place = (-13, 68);
type = Stem;
},
{
horizontal = 1;
place = (666, 34);
place = (666, 34);
type = Stem;
},
{
place = (37, 91);
place = (37, 91);
type = Stem;
},
{
horizontal = 1;
place = (666, 55);
place = (666, 55);
type = Stem;
}
);
layerId = m01;
shapes = (
{
closed = 1;
nodes = (
(370,-13,o),
(440,58,o),
(466,129,cs),
(471,143,o),
(477,157,o),
(477,167,cs),
(477,182,o),
(467,191,o),
(457,191,cs),
(443,191,o),
(437,181,o),
(433,172,cs),
(405,95,o),
(353,55,o),
(296,55,cs),
(194,55,o),
(128,184,o),
(128,357,cs),
(128,534,o),
(195,666,o),
(286,666,cs),
(342,666,o),
(379,619,o),
(424,526,cs),
(430,513,o),
(438,501,o),
(451,501,cs),
(461,501,o),
(470,511,o),
(470,522,cs),
(470,537,o),
(464,557,o),
(452,603,cs),
(433,679,ls),
(424,712,o),
(417,724,o),
(401,724,cs),
(382,724,o),
(379,700,o),
(364,700,cs),
(349,700,o),
(323,721,o),
(277,721,cs),
(146,721,o),
(37,558,o),
(37,341,cs),
(37,109,o),
(142,-13,o),
(271,-13,cs)
);
},
{
closed = 1;
nodes = (
(155,920,o),
(158,913,o),
(163,902,cs),
(172,884,o),
(200,829,o),
(223,791,cs),
(235,772,o),
(243,766,o),
(265,766,cs),
(288,766,o),
(297,773,o),
(306,790,cs),
(330,831,o),
(345,861,o),
(368,903,cs),
(373,914,o),
(376,920,o),
(376,929,cs),
(376,939,o),
(368,945,o),
(357,945,cs),
(348,945,o),
(340,940,o),
(328,923,cs),
(265,832,l),
(202,923,ls),
(191,939,o),
(183,945,o),
(173,945,cs),
(162,945,o),
(155,939,o),
(155,929,cs)
);
}
);
width = 495;
}
);
note = Ccaron;
unicode = 268;
},
{
glyphname = Ccedilla;
kernLeft = C;
kernRight = C;
layers = (
{
hints = (
{
horizontal = 1;
place = (-199, 37);
place = (-199, 37);
type = Stem;
},
{
horizontal = 1;
place = (-96, 46);
place = (-96, 46);
type = Stem;
},
{
horizontal = 1;
place = (-9, 21);
target = up;
type = BottomGhost;
},
{
horizontal = 1;
place = (666, 34);
place = (666, 34);
type = Stem;
},
{
place = (37, 91);
place = (37, 91);
type = Stem;
},
{
place = (299, 47);
place = (299, 47);
type = Stem;
},
{
horizontal = 1;
place = (-13, 68);
place = (-13, 68);
type = Stem;
},
{
horizontal = 1;
place = (666, 55);
place = (666, 55);
type = Stem;
}
);
layerId = m01;
shapes = (
{
closed = 1;
nodes = (
(263,-13,l),
(271,-13,ls),
(370,-13,o),
(440,58,o),
(466,129,cs),
(471,143,o),
(477,157,o),
(477,167,cs),
(477,182,o),
(467,191,o),
(457,191,cs),
(443,191,o),
(437,181,o),
(433,172,cs),
(405,95,o),
(353,55,o),
(296,55,cs),
(194,55,o),
(128,184,o),
(128,357,cs),
(128,534,o),
(195,666,o),
(286,666,cs),
(342,666,o),
(379,619,o),
(424,526,cs),
(430,513,o),
(438,501,o),
(451,501,cs),
(461,501,o),
(470,511,o),
(470,522,cs),
(470,537,o),
(464,557,o),
(452,603,cs),
(433,679,ls),
(424,712,o),
(417,724,o),
(401,724,cs),
(382,724,o),
(379,700,o),
(364,700,cs),
(349,700,o),
(323,721,o),
(277,721,cs),
(146,721,o),
(37,558,o),
(37,341,cs),
(37,135,o),
(120,15,o),
(229,-9,c),
(213,-80,l),
(216,-90,o),
(229,-104,o),
(235,-106,c),
(246,-101,o),
(258,-96,o),
(269,-96,cs),
(288,-96,o),
(299,-108,o),
(299,-127,cs),
(299,-147,o),
(288,-162,o),
(264,-162,cs),
(250,-162,o),
(236,-154,o),
(224,-148,cs),
(219,-146,o),
(214,-143,o),
(207,-143,cs),
(198,-143,o),
(192,-151,o),
(192,-160,cs),
(192,-169,o),
(196,-174,o),
(203,-180,cs),
(218,-193,o),
(242,-199,o),
(267,-199,cs),
(315,-199,o),
(346,-167,o),
(346,-121,cs),
(346,-81,o),
(318,-50,o),
(279,-50,cs),
(270,-50,o),
(262,-51,o),
(255,-54,c)
);
}
);
width = 495;
}
);
note = Ccedilla;
unicode = 199;
},
{
glyphname = Ccircumflex;
kernLeft = C;
kernRight = C;
layers = (
{
hints = (
{
horizontal = 1;
place = (-13, 68);
place = (-13, 68);
type = Stem;
},
{
horizontal = 1;
place = (666, 34);
place = (666, 34);
type = Stem;
},
{
place = (37, 91);
place = (37, 91);
type = Stem;
},
{
horizontal = 1;
place = (666, 55);
place = (666, 55);
type = Stem;
}
);
layerId = m01;
shapes = (
{
closed = 1;
nodes = (
(370,-13,o),
(440,58,o),
(466,129,cs),
(471,143,o),
(477,157,o),
(477,167,cs),
(477,182,o),
(467,191,o),
(457,191,cs),
(443,191,o),
(437,181,o),
(433,172,cs),
(405,95,o),
(353,55,o),
(296,55,cs),
(194,55,o),
(128,184,o),
(128,357,cs),
(128,534,o),
(195,666,o),
(286,666,cs),
(342,666,o),
(379,619,o),
(424,526,cs),
(430,513,o),
(438,501,o),
(451,501,cs),
(461,501,o),
(470,511,o),
(470,522,cs),
(470,537,o),
(464,557,o),
(452,603,cs),
(433,679,ls),
(424,712,o),
(417,724,o),
(401,724,cs),
(382,724,o),
(379,700,o),
(364,700,cs),
(349,700,o),
(323,721,o),
(277,721,cs),
(146,721,o),
(37,558,o),
(37,341,cs),
(37,109,o),
(142,-13,o),
(271,-13,cs)
);
},
{
closed = 1;
nodes = (
(154,768,o),
(162,762,o),
(173,762,cs),
(182,762,o),
(190,767,o),
(202,784,cs),
(265,875,l),
(328,784,ls),
(339,768,o),
(347,762,o),
(357,762,cs),
(368,762,o),
(375,768,o),
(375,778,cs),
(375,787,o),
(372,794,o),
(367,805,cs),
(358,823,o),
(330,878,o),
(307,916,cs),
(295,935,o),
(287,941,o),
(265,941,cs),
(242,941,o),
(233,934,o),
(224,917,cs),
(200,876,o),
(185,846,o),
(162,804,cs),
(157,793,o),
(154,787,o),
(154,778,cs)
);
}
);
width = 495;
}
);
note = Ccircumflex;
unicode = 264;
},
{
glyphname = Cdotaccent;
kernLeft = C;
kernRight = C;
layers = (
{
hints = (
{
horizontal = 1;
place = (-13, 68);
place = (-13, 68);
type = Stem;
},
{
horizontal = 1;
place = (666, 55);
place = (666, 55);
type = Stem;
},
{
horizontal = 1;
place = (788, 105);
place = (788, 105);
type = Stem;
},
{
place = (37, 91);
place = (37, 91);
type = Stem;
},
{
place = (210, 113);
place = (210, 113);
type = Stem;
},
{
horizontal = 1;
place = (666, 34);
place = (666, 34);
type = Stem;
}
);
layerId = m01;
shapes = (
{
closed = 1;
nodes = (
(370,-13,o),
(440,58,o),
(466,129,cs),
(471,143,o),
(477,157,o),
(477,167,cs),
(477,182,o),
(467,191,o),
(457,191,cs),
(443,191,o),
(437,181,o),
(433,172,cs),
(405,95,o),
(353,55,o),
(296,55,cs),
(194,55,o),
(128,184,o),
(128,357,cs),
(128,534,o),
(195,666,o),
(286,666,cs),
(342,666,o),
(379,619,o),
(424,526,cs),
(430,513,o),
(438,501,o),
(451,501,cs),
(461,501,o),
(470,511,o),
(470,522,cs),
(470,537,o),
(464,557,o),
(452,603,cs),
(433,679,ls),
(424,712,o),
(417,724,o),
(401,724,cs),
(382,724,o),
(379,700,o),
(364,700,cs),
(349,700,o),
(323,721,o),
(277,721,cs),
(146,721,o),
(37,558,o),
(37,341,cs),
(37,109,o),
(142,-13,o),
(271,-13,cs)
);
},
{
closed = 1;
nodes = (
(210,808,o),
(233,788,o),
(267,788,cs),
(300,788,o),
(323,809,o),
(323,841,cs),
(323,873,o),
(300,893,o),
(267,893,cs),
(233,893,o),
(210,868,o),
(210,839,cs)
);
}
);
width = 495;
}
);
note = Cdotaccent;
unicode = 266;
},
{
glyphname = D;
kernLeft = B;
kernRight = D;
layers = (
{
hints = (
{
horizontal = 1;
place = (-2, 49);
place = (-2, 49);
type = Stem;
},
{
horizontal = 1;
place = (661, 49);
place = (661, 49);
type = Stem;
},
{
place = (84, 85);
place = (84, 85);
type = Stem;
},
{
place = (438, 94);
place = (438, 94);
type = Stem;
}
);
layerId = m01;
shapes = (
{
closed = 1;
nodes = (
(421,-2,o),
(532,130,o),
(532,339,cs),
(532,544,o),
(415,710,o),
(241,710,cs),
(203,710,o),
(165,707,o),
(127,707,cs),
(97,707,o),
(75,710,o),
(63,710,cs),
(48,710,o),
(39,702,o),
(39,691,cs),
(39,654,o),
(84,679,o),
(84,613,cs),
(84,95,ls),
(84,29,o),
(39,54,o),
(39,17,cs),
(39,5,o),
(48,-2,o),
(63,-2,cs),
(75,-2,o),
(97,1,o),
(127,1,cs),
(171,1,o),
(213,-2,o),
(255,-2,cs)
);
},
{
closed = 1;
nodes = (
(169,612,ls),
(169,652,o),
(187,661,o),
(228,661,cs),
(238,661,ls),
(364,661,o),
(438,520,o),
(438,352,cs),
(438,174,o),
(370,47,o),
(248,47,cs),
(228,47,ls),
(178,47,o),
(169,62,o),
(169,96,cs)
);
}
);
width = 566;
}
);
note = D;
unicode = 68;
},
{
glyphname = Eth;
kernLeft = B;
kernRight = D;
layers = (
{
hints = (
{
horizontal = 1;
place = (-2, 49);
place = (-2, 49);
type = Stem;
},
{
horizontal = 1;
place = (336, 50);
place = (336, 50);
type = Stem;
},
{
horizontal = 1;
place = (661, 49);
place = (661, 49);
type = Stem;
},
{
place = (86, 85);
place = (86, 85);
type = Stem;
},
{
place = (440, 94);
place = (440, 94);
type = Stem;
}
);
layerId = m01;
shapes = (
{
closed = 1;
nodes = (
(86,336,l),
(86,95,ls),
(86,29,o),
(41,54,o),
(41,17,cs),
(41,5,o),
(50,-2,o),
(65,-2,cs),
(77,-2,o),
(99,1,o),
(129,1,cs),
(173,1,o),
(215,-2,o),
(257,-2,cs),
(423,-2,o),
(534,130,o),
(534,339,cs),
(534,544,o),
(417,710,o),
(243,710,cs),
(205,710,o),
(167,707,o),
(129,707,cs),
(99,707,o),
(77,710,o),
(65,710,cs),
(50,710,o),
(41,702,o),
(41,691,cs),
(41,654,o),
(86,679,o),
(86,613,cs),
(86,386,l),
(48,386,ls),
(31,386,o),
(24,377,o),
(24,361,cs),
(24,344,o),
(31,336,o),
(48,336,cs)
);
},
{
closed = 1;
nodes = (
(171,336,l),
(268,336,ls),
(284,336,o),
(292,344,o),
(292,361,cs),
(292,377,o),
(284,386,o),
(268,386,cs),
(171,386,l),
(171,612,ls),
(171,652,o),
(189,661,o),
(230,661,cs),
(240,661,ls),
(366,661,o),
(440,520,o),
(440,352,cs),
(440,174,o),
(372,47,o),
(250,47,cs),
(230,47,ls),
(180,47,o),
(171,62,o),
(171,96,cs)
);
}
);
width = 568;
}
);
note = Eth;
unicode = 208;
},
{
glyphname = Dcaron;
kernLeft = B;
kernRight = D;
layers = (
{
hints = (
{
horizontal = 1;
place = (-2, 49);
place = (-2, 49);
type = Stem;
},
{
horizontal = 1;
place = (661, 49);
place = (661, 49);
type = Stem;
},
{
place = (84, 85);
place = (84, 85);
type = Stem;
},
{
place = (438, 94);
place = (438, 94);
type = Stem;
}
);
layerId = m01;
shapes = (
{
closed = 1;
nodes = (
(421,-2,o),
(532,130,o),
(532,339,cs),
(532,544,o),
(415,710,o),
(241,710,cs),
(203,710,o),
(165,707,o),
(127,707,cs),
(97,707,o),
(75,710,o),
(63,710,cs),
(48,710,o),
(39,702,o),
(39,691,cs),
(39,654,o),
(84,679,o),
(84,613,cs),
(84,95,ls),
(84,29,o),
(39,54,o),
(39,17,cs),
(39,5,o),
(48,-2,o),
(63,-2,cs),
(75,-2,o),
(97,1,o),
(127,1,cs),
(171,1,o),
(213,-2,o),
(255,-2,cs)
);
},
{
closed = 1;
nodes = (
(144,920,o),
(147,913,o),
(152,902,cs),
(161,884,o),
(189,829,o),
(212,791,cs),
(224,772,o),
(232,766,o),
(254,766,cs),
(277,766,o),
(286,773,o),
(295,790,cs),
(319,831,o),
(334,861,o),
(357,903,cs),
(362,914,o),
(365,920,o),
(365,929,cs),
(365,939,o),
(357,945,o),
(346,945,cs),
(337,945,o),
(329,940,o),
(317,923,cs),
(254,832,l),
(191,923,ls),
(180,939,o),
(172,945,o),
(162,945,cs),
(151,945,o),
(144,939,o),
(144,929,cs)
);
},
{
closed = 1;
nodes = (
(169,612,ls),
(169,652,o),
(187,661,o),
(228,661,cs),
(238,661,ls),
(364,661,o),
(438,520,o),
(438,352,cs),
(438,174,o),
(370,47,o),
(248,47,cs),
(228,47,ls),
(178,47,o),
(169,62,o),
(169,96,cs)
);
}
);
width = 566;
}
);
note = Dcaron;
unicode = 270;
},
{
glyphname = Dcroat;
kernRight = Dcroat;
layers = (
{
hints = (
{
horizontal = 1;
place = (-2, 49);
place = (-2, 49);
type = Stem;
},
{
horizontal = 1;
place = (336, 50);
place = (336, 50);
type = Stem;
},
{
horizontal = 1;
place = (661, 49);
place = (661, 49);
type = Stem;
},
{
place = (86, 85);
place = (86, 85);
type = Stem;
},
{
place = (440, 94);
place = (440, 94);
type = Stem;
}
);
layerId = m01;
shapes = (
{
closed = 1;
nodes = (
(86,336,l),
(86,95,ls),
(86,29,o),
(41,54,o),
(41,17,cs),
(41,5,o),
(50,-2,o),
(65,-2,cs),
(77,-2,o),
(99,1,o),
(129,1,cs),
(173,1,o),
(215,-2,o),
(257,-2,cs),
(423,-2,o),
(534,130,o),
(534,339,cs),
(534,544,o),
(417,710,o),
(243,710,cs),
(205,710,o),
(167,707,o),
(129,707,cs),
(99,707,o),
(77,710,o),
(65,710,cs),
(50,710,o),
(41,702,o),
(41,691,cs),
(41,654,o),
(86,679,o),
(86,613,cs),
(86,386,l),
(48,386,ls),
(31,386,o),
(24,377,o),
(24,361,cs),
(24,344,o),
(31,336,o),
(48,336,cs)
);
},
{
closed = 1;
nodes = (
(171,336,l),
(268,336,ls),
(284,336,o),
(292,344,o),
(292,361,cs),
(292,377,o),
(284,386,o),
(268,386,cs),
(171,386,l),
(171,612,ls),
(171,652,o),
(189,661,o),
(230,661,cs),
(240,661,ls),
(366,661,o),
(440,520,o),
(440,352,cs),
(440,174,o),
(372,47,o),
(250,47,cs),
(230,47,ls),
(180,47,o),
(171,62,o),
(171,96,cs)
);
}
);
width = 568;
}
);
note = Dcroat;
unicode = 272;
},
{
glyphname = E;
kernLeft = B;
kernRight = AE;
layers = (
{
hints = (
{
horizontal = 1;
place = (-3, 52);
place = (-3, 52);
type = Stem;
},
{
horizontal = 1;
place = (335, 49);
place = (335, 49);
type = Stem;
},
{
horizontal = 1;
place = (659, 49);
place = (659, 49);
type = Stem;
},
{
place = (84, 85);
place = (84, 85);
type = Stem;
},
{
horizontal = 1;
place = (711, -20);
target = down;
type = TopGhost;
},
{
horizontal = 1;
place = (0, 49);
place = (0, 49);
type = Stem;
}
);
layerId = m01;
shapes = (
{
closed = 1;
nodes = (
(420,-21,o),
(429,-5,o),
(436,17,cs),
(466,101,ls),
(480,140,o),
(486,159,o),
(486,173,cs),
(486,184,o),
(478,192,o),
(469,192,cs),
(456,192,o),
(450,183,o),
(439,167,cs),
(388,90,o),
(356,49,o),
(303,49,cs),
(221,49,ls),
(170,49,o),
(169,67,o),
(169,98,cs),
(169,314,ls),
(169,331,o),
(175,335,o),
(189,335,cs),
(255,335,ls),
(299,335,o),
(296,260,o),
(324,260,cs),
(335,260,o),
(343,266,o),
(343,286,cs),
(343,307,o),
(340,334,o),
(340,360,cs),
(340,385,o),
(343,410,o),
(343,433,cs),
(343,453,o),
(335,460,o),
(324,460,cs),
(296,460,o),
(299,384,o),
(255,384,cs),
(189,384,ls),
(175,384,o),
(169,388,o),
(169,406,cs),
(169,611,ls),
(169,651,o),
(180,659,o),
(221,659,cs),
(268,659,ls),
(328,659,o),
(355,625,o),
(405,548,cs),
(415,533,o),
(422,524,o),
(434,524,cs),
(444,524,o),
(452,532,o),
(452,543,cs),
(452,555,o),
(446,573,o),
(433,609,cs),
(407,680,ls),
(397,708,o),
(390,728,o),
(373,728,cs),
(352,728,o),
(351,708,o),
(327,708,cs),
(126,708,ls),
(96,708,o),
(75,711,o),
(63,711,cs),
(48,711,o),
(39,702,o),
(39,691,cs),
(39,655,o),
(84,680,o),
(84,614,cs),
(84,94,ls),
(84,28,o),
(39,53,o),
(39,17,cs),
(39,6,o),
(48,-3,o),
(63,-3,cs),
(75,-3,o),
(96,0,o),
(126,0,cs),
(359,0,ls),
(384,0,o),
(383,-21,o),
(405,-21,cs)
);
}
);
width = 497;
}
);
note = E;
unicode = 69;
},
{
glyphname = Eacute;
kernLeft = B;
kernRight = AE;
layers = (
{
hints = (
{
horizontal = 1;
place = (-3, 52);
place = (-3, 52);
type = Stem;
},
{
horizontal = 1;
place = (335, 49);
place = (335, 49);
type = Stem;
},
{
horizontal = 1;
place = (711, -20);
target = down;
type = TopGhost;
},
{
place = (84, 85);
place = (84, 85);
type = Stem;
},
{
horizontal = 1;
place = (659, 49);
place = (659, 49);
type = Stem;
},
{
horizontal = 1;
place = (0, 49);
place = (0, 49);
type = Stem;
}
);
layerId = m01;
shapes = (
{
closed = 1;
nodes = (
(420,-21,o),
(429,-5,o),
(436,17,cs),
(466,101,ls),
(480,140,o),
(486,159,o),
(486,173,cs),
(486,184,o),
(478,192,o),
(469,192,cs),
(456,192,o),
(450,183,o),
(439,167,cs),
(388,90,o),
(356,49,o),
(303,49,cs),
(221,49,ls),
(170,49,o),
(169,67,o),
(169,98,cs),
(169,314,ls),
(169,331,o),
(175,335,o),
(189,335,cs),
(255,335,ls),
(299,335,o),
(296,260,o),
(324,260,cs),
(335,260,o),
(343,266,o),
(343,286,cs),
(343,307,o),
(340,334,o),
(340,360,cs),
(340,385,o),
(343,410,o),
(343,433,cs),
(343,453,o),
(335,460,o),
(324,460,cs),
(296,460,o),
(299,384,o),
(255,384,cs),
(189,384,ls),
(175,384,o),
(169,388,o),
(169,406,cs),
(169,611,ls),
(169,651,o),
(180,659,o),
(221,659,cs),
(268,659,ls),
(328,659,o),
(355,625,o),
(405,548,cs),
(415,533,o),
(422,524,o),
(434,524,cs),
(444,524,o),
(452,532,o),
(452,543,cs),
(452,555,o),
(446,573,o),
(433,609,cs),
(407,680,ls),
(397,708,o),
(390,728,o),
(373,728,cs),
(352,728,o),
(351,708,o),
(327,708,cs),
(126,708,ls),
(96,708,o),
(75,711,o),
(63,711,cs),
(48,711,o),
(39,702,o),
(39,691,cs),
(39,655,o),
(84,680,o),
(84,614,cs),
(84,94,ls),
(84,28,o),
(39,53,o),
(39,17,cs),
(39,6,o),
(48,-3,o),
(63,-3,cs),
(75,-3,o),
(96,0,o),
(126,0,cs),
(359,0,ls),
(384,0,o),
(383,-21,o),
(405,-21,cs)
);
},
{
closed = 1;
nodes = (
(218,759,o),
(225,754,o),
(235,754,cs),
(245,754,o),
(253,756,o),
(266,775,cs),
(282,796,o),
(318,853,o),
(333,874,cs),
(347,895,o),
(358,911,o),
(358,921,cs),
(358,935,o),
(348,938,o),
(321,938,cs),
(298,938,o),
(291,934,o),
(282,918,cs),
(264,882,o),
(242,832,o),
(224,790,cs),
(221,783,o),
(218,773,o),
(218,767,cs)
);
}
);
width = 497;
}
);
note = Eacute;
unicode = 201;
},
{
glyphname = Ebreve;
kernLeft = B;
kernRight = AE;
layers = (
{
hints = (
{
horizontal = 1;
place = (0, 49);
place = (0, 49);
type = Stem;
},
{
horizontal = 1;
place = (335, 49);
place = (335, 49);
type = Stem;
},
{
horizontal = 1;
place = (711, -20);
target = down;
type = TopGhost;
},
{
horizontal = 1;
place = (767, 61);
place = (767, 61);
type = Stem;
},
{
place = (84, 85);
place = (84, 85);
type = Stem;
},
{
horizontal = 1;
place = (659, 49);
place = (659, 49);
type = Stem;
},
{
horizontal = 1;
place = (-3, 52);
place = (-3, 52);
type = Stem;
}
);
layerId = m01;
shapes = (
{
closed = 1;
nodes = (
(420,-21,o),
(429,-5,o),
(436,17,cs),
(466,101,ls),
(480,140,o),
(486,159,o),
(486,173,cs),
(486,184,o),
(478,192,o),
(469,192,cs),
(456,192,o),
(450,183,o),
(439,167,cs),
(388,90,o),
(356,49,o),
(303,49,cs),
(221,49,ls),
(170,49,o),
(169,67,o),
(169,98,cs),
(169,314,ls),
(169,331,o),
(175,335,o),
(189,335,cs),
(255,335,ls),
(299,335,o),
(296,260,o),
(324,260,cs),
(335,260,o),
(343,266,o),
(343,286,cs),
(343,307,o),
(340,334,o),
(340,360,cs),
(340,385,o),
(343,410,o),
(343,433,cs),
(343,453,o),
(335,460,o),
(324,460,cs),
(296,460,o),
(299,384,o),
(255,384,cs),
(189,384,ls),
(175,384,o),
(169,388,o),
(169,406,cs),
(169,611,ls),
(169,651,o),
(180,659,o),
(221,659,cs),
(268,659,ls),
(328,659,o),
(355,625,o),
(405,548,cs),
(415,533,o),
(422,524,o),
(434,524,cs),
(444,524,o),
(452,532,o),
(452,543,cs),
(452,555,o),
(446,573,o),
(433,609,cs),
(407,680,ls),
(397,708,o),
(390,728,o),
(373,728,cs),
(352,728,o),
(351,708,o),
(327,708,cs),
(126,708,ls),
(96,708,o),
(75,711,o),
(63,711,cs),
(48,711,o),
(39,702,o),
(39,691,cs),
(39,655,o),
(84,680,o),
(84,614,cs),
(84,94,ls),
(84,28,o),
(39,53,o),
(39,17,cs),
(39,6,o),
(48,-3,o),
(63,-3,cs),
(75,-3,o),
(96,0,o),
(126,0,cs),
(359,0,ls),
(384,0,o),
(383,-21,o),
(405,-21,cs)
);
},
{
closed = 1;
nodes = (
(138,903,o),
(139,889,o),
(144,867,cs),
(160,801,o),
(197,767,o),
(247,767,cs),
(296,767,o),
(329,800,o),
(347,867,cs),
(352,887,o),
(355,904,o),
(355,914,cs),
(355,927,o),
(349,936,o),
(337,936,cs),
(321,936,o),
(313,917,o),
(307,896,cs),
(294,852,o),
(279,828,o),
(247,828,cs),
(215,828,o),
(198,850,o),
(185,895,cs),
(178,919,o),
(172,936,o),
(158,936,cs),
(146,936,o),
(138,926,o),
(138,913,cs)
);
}
);
width = 497;
}
);
note = Ebreve;
unicode = 276;
},
{
glyphname = Ecaron;
kernLeft = B;
kernRight = AE;
layers = (
{
hints = (
{
horizontal = 1;
place = (0, 49);
place = (0, 49);
type = Stem;
},
{
horizontal = 1;
place = (335, 49);
place = (335, 49);
type = Stem;
},
{
horizontal = 1;
place = (711, -20);
target = down;
type = TopGhost;
},
{
place = (84, 85);
place = (84, 85);
type = Stem;
},
{
horizontal = 1;
place = (659, 49);
place = (659, 49);
type = Stem;
},
{
horizontal = 1;
place = (-3, 52);
place = (-3, 52);
type = Stem;
}
);
layerId = m01;
shapes = (
{
closed = 1;
nodes = (
(420,-21,o),
(429,-5,o),
(436,17,cs),
(466,101,ls),
(480,140,o),
(486,159,o),
(486,173,cs),
(486,184,o),
(478,192,o),
(469,192,cs),
(456,192,o),
(450,183,o),
(439,167,cs),
(388,90,o),
(356,49,o),
(303,49,cs),
(221,49,ls),
(170,49,o),
(169,67,o),
(169,98,cs),
(169,314,ls),
(169,331,o),
(175,335,o),
(189,335,cs),
(255,335,ls),
(299,335,o),
(296,260,o),
(324,260,cs),
(335,260,o),
(343,266,o),
(343,286,cs),
(343,307,o),
(340,334,o),
(340,360,cs),
(340,385,o),
(343,410,o),
(343,433,cs),
(343,453,o),
(335,460,o),
(324,460,cs),
(296,460,o),
(299,384,o),
(255,384,cs),
(189,384,ls),
(175,384,o),
(169,388,o),
(169,406,cs),
(169,611,ls),
(169,651,o),
(180,659,o),
(221,659,cs),
(268,659,ls),
(328,659,o),
(355,625,o),
(405,548,cs),
(415,533,o),
(422,524,o),
(434,524,cs),
(444,524,o),
(452,532,o),
(452,543,cs),
(452,555,o),
(446,573,o),
(433,609,cs),
(407,680,ls),
(397,708,o),
(390,728,o),
(373,728,cs),
(352,728,o),
(351,708,o),
(327,708,cs),
(126,708,ls),
(96,708,o),
(75,711,o),
(63,711,cs),
(48,711,o),
(39,702,o),
(39,691,cs),
(39,655,o),
(84,680,o),
(84,614,cs),
(84,94,ls),
(84,28,o),
(39,53,o),
(39,17,cs),
(39,6,o),
(48,-3,o),
(63,-3,cs),
(75,-3,o),
(96,0,o),
(126,0,cs),
(359,0,ls),
(384,0,o),
(383,-21,o),
(405,-21,cs)
);
},
{
closed = 1;
nodes = (
(136,920,o),
(139,913,o),
(144,902,cs),
(153,884,o),
(181,829,o),
(204,791,cs),
(216,772,o),
(224,766,o),
(246,766,cs),
(269,766,o),
(278,773,o),
(287,790,cs),
(311,831,o),
(326,861,o),
(349,903,cs),
(354,914,o),
(357,920,o),
(357,929,cs),
(357,939,o),
(349,945,o),
(338,945,cs),
(329,945,o),
(321,940,o),
(309,923,cs),
(246,832,l),
(183,923,ls),
(172,939,o),
(164,945,o),
(154,945,cs),
(143,945,o),
(136,939,o),
(136,929,cs)
);
}
);
width = 497;
}
);
note = Ecaron;
unicode = 282;
},
{
glyphname = Ecircumflex;
kernLeft = B;
kernRight = AE;
layers = (
{
hints = (
{
horizontal = 1;
place = (0, 49);
place = (0, 49);
type = Stem;
},
{
horizontal = 1;
place = (335, 49);
place = (335, 49);
type = Stem;
},
{
horizontal = 1;
place = (711, -20);
target = down;
type = TopGhost;
},
{
place = (84, 85);
place = (84, 85);
type = Stem;
},
{
horizontal = 1;
place = (659, 49);
place = (659, 49);
type = Stem;
},
{
horizontal = 1;
place = (-3, 52);
place = (-3, 52);
type = Stem;
}
);
layerId = m01;
shapes = (
{
closed = 1;
nodes = (
(420,-21,o),
(429,-5,o),
(436,17,cs),
(466,101,ls),
(480,140,o),
(486,159,o),
(486,173,cs),
(486,184,o),
(478,192,o),
(469,192,cs),
(456,192,o),
(450,183,o),
(439,167,cs),
(388,90,o),
(356,49,o),
(303,49,cs),
(221,49,ls),
(170,49,o),
(169,67,o),
(169,98,cs),
(169,314,ls),
(169,331,o),
(175,335,o),
(189,335,cs),
(255,335,ls),
(299,335,o),
(296,260,o),
(324,260,cs),
(335,260,o),
(343,266,o),
(343,286,cs),
(343,307,o),
(340,334,o),
(340,360,cs),
(340,385,o),
(343,410,o),
(343,433,cs),
(343,453,o),
(335,460,o),
(324,460,cs),
(296,460,o),
(299,384,o),
(255,384,cs),
(189,384,ls),
(175,384,o),
(169,388,o),
(169,406,cs),
(169,611,ls),
(169,651,o),
(180,659,o),
(221,659,cs),
(268,659,ls),
(328,659,o),
(355,625,o),
(405,548,cs),
(415,533,o),
(422,524,o),
(434,524,cs),
(444,524,o),
(452,532,o),
(452,543,cs),
(452,555,o),
(446,573,o),
(433,609,cs),
(407,680,ls),
(397,708,o),
(390,728,o),
(373,728,cs),
(352,728,o),
(351,708,o),
(327,708,cs),
(126,708,ls),
(96,708,o),
(75,711,o),
(63,711,cs),
(48,711,o),
(39,702,o),
(39,691,cs),
(39,655,o),
(84,680,o),
(84,614,cs),
(84,94,ls),
(84,28,o),
(39,53,o),
(39,17,cs),
(39,6,o),
(48,-3,o),
(63,-3,cs),
(75,-3,o),
(96,0,o),
(126,0,cs),
(359,0,ls),
(384,0,o),
(383,-21,o),
(405,-21,cs)
);
},
{
closed = 1;
nodes = (
(135,768,o),
(143,762,o),
(154,762,cs),
(163,762,o),
(171,767,o),
(183,784,cs),
(246,875,l),
(309,784,ls),
(320,768,o),
(328,762,o),
(338,762,cs),
(349,762,o),
(356,768,o),
(356,778,cs),
(356,787,o),
(353,794,o),
(348,805,cs),
(339,823,o),
(311,878,o),
(288,916,cs),
(276,935,o),
(268,941,o),
(246,941,cs),
(223,941,o),
(214,934,o),
(205,917,cs),
(181,876,o),
(166,846,o),
(143,804,cs),
(138,793,o),
(135,787,o),
(135,778,cs)
);
}
);
width = 497;
}
);
note = Ecircumflex;
unicode = 202;
},
{
glyphname = Edieresis;
kernLeft = B;
kernRight = AE;
layers = (
{
hints = (
{
horizontal = 1;
place = (0, 49);
place = (0, 49);
type = Stem;
},
{
horizontal = 1;
place = (335, 49);
place = (335, 49);
type = Stem;
},
{
horizontal = 1;
place = (711, -20);
target = down;
type = TopGhost;
},
{
horizontal = 1;
place = (788, 105);
place = (788, 105);
type = Stem;
},
{
place = (84, 85);
place = (84, 85);
type = Stem;
},
{
place = (267, 114);
place = (267, 114);
type = Stem;
},
{
horizontal = 1;
place = (659, 49);
place = (659, 49);
type = Stem;
},
{
horizontal = 1;
place = (-3, 52);
place = (-3, 52);
type = Stem;
},
{
place = (112, 113);
place = (112, 113);
type = Stem;
}
);
layerId = m01;
shapes = (
{
closed = 1;
nodes = (
(420,-21,o),
(429,-5,o),
(436,17,cs),
(466,101,ls),
(480,140,o),
(486,159,o),
(486,173,cs),
(486,184,o),
(478,192,o),
(469,192,cs),
(456,192,o),
(450,183,o),
(439,167,cs),
(388,90,o),
(356,49,o),
(303,49,cs),
(221,49,ls),
(170,49,o),
(169,67,o),
(169,98,cs),
(169,314,ls),
(169,331,o),
(175,335,o),
(189,335,cs),
(255,335,ls),
(299,335,o),
(296,260,o),
(324,260,cs),
(335,260,o),
(343,266,o),
(343,286,cs),
(343,307,o),
(340,334,o),
(340,360,cs),
(340,385,o),
(343,410,o),
(343,433,cs),
(343,453,o),
(335,460,o),
(324,460,cs),
(296,460,o),
(299,384,o),
(255,384,cs),
(189,384,ls),
(175,384,o),
(169,388,o),
(169,406,cs),
(169,611,ls),
(169,651,o),
(180,659,o),
(221,659,cs),
(268,659,ls),
(328,659,o),
(355,625,o),
(405,548,cs),
(415,533,o),
(422,524,o),
(434,524,cs),
(444,524,o),
(452,532,o),
(452,543,cs),
(452,555,o),
(446,573,o),
(433,609,cs),
(407,680,ls),
(397,708,o),
(390,728,o),
(373,728,cs),
(352,728,o),
(351,708,o),
(327,708,cs),
(126,708,ls),
(96,708,o),
(75,711,o),
(63,711,cs),
(48,711,o),
(39,702,o),
(39,691,cs),
(39,655,o),
(84,680,o),
(84,614,cs),
(84,94,ls),
(84,28,o),
(39,53,o),
(39,17,cs),
(39,6,o),
(48,-3,o),
(63,-3,cs),
(75,-3,o),
(96,0,o),
(126,0,cs),
(359,0,ls),
(384,0,o),
(383,-21,o),
(405,-21,cs)
);
},
{
closed = 1;
nodes = (
(112,808,o),
(135,788,o),
(169,788,cs),
(202,788,o),
(225,809,o),
(225,841,cs),
(225,873,o),
(202,893,o),
(169,893,cs),
(135,893,o),
(112,868,o),
(112,839,cs)
);
},
{
closed = 1;
nodes = (
(267,808,o),
(289,788,o),
(324,788,cs),
(357,788,o),
(381,809,o),
(381,841,cs),
(381,873,o),
(357,893,o),
(324,893,cs),
(289,893,o),
(267,868,o),
(267,839,cs)
);
}
);
width = 497;
}
);
note = Edieresis;
unicode = 203;
},
{
glyphname = Edotaccent;
kernLeft = B;
kernRight = AE;
layers = (
{
hints = (
{
horizontal = 1;
place = (-3, 52);
place = (-3, 52);
type = Stem;
},
{
horizontal = 1;
place = (335, 49);
place = (335, 49);
type = Stem;
},
{
horizontal = 1;
place = (711, -20);
target = down;
type = TopGhost;
},
{
horizontal = 1;
place = (788, 105);
place = (788, 105);
type = Stem;
},
{
place = (84, 85);
place = (84, 85);
type = Stem;
},
{
place = (192, 113);
place = (192, 113);
type = Stem;
},
{
horizontal = 1;
place = (659, 49);
place = (659, 49);
type = Stem;
},
{
horizontal = 1;
place = (0, 49);
place = (0, 49);
type = Stem;
}
);
layerId = m01;
shapes = (
{
closed = 1;
nodes = (
(420,-21,o),
(429,-5,o),
(436,17,cs),
(466,101,ls),
(480,140,o),
(486,159,o),
(486,173,cs),
(486,184,o),
(478,192,o),
(469,192,cs),
(456,192,o),
(450,183,o),
(439,167,cs),
(388,90,o),
(356,49,o),
(303,49,cs),
(221,49,ls),
(170,49,o),
(169,67,o),
(169,98,cs),
(169,314,ls),
(169,331,o),
(175,335,o),
(189,335,cs),
(255,335,ls),
(299,335,o),
(296,260,o),
(324,260,cs),
(335,260,o),
(343,266,o),
(343,286,cs),
(343,307,o),
(340,334,o),
(340,360,cs),
(340,385,o),
(343,410,o),
(343,433,cs),
(343,453,o),
(335,460,o),
(324,460,cs),
(296,460,o),
(299,384,o),
(255,384,cs),
(189,384,ls),
(175,384,o),
(169,388,o),
(169,406,cs),
(169,611,ls),
(169,651,o),
(180,659,o),
(221,659,cs),
(268,659,ls),
(328,659,o),
(355,625,o),
(405,548,cs),
(415,533,o),
(422,524,o),
(434,524,cs),
(444,524,o),
(452,532,o),
(452,543,cs),
(452,555,o),
(446,573,o),
(433,609,cs),
(407,680,ls),
(397,708,o),
(390,728,o),
(373,728,cs),
(352,728,o),
(351,708,o),
(327,708,cs),
(126,708,ls),
(96,708,o),
(75,711,o),
(63,711,cs),
(48,711,o),
(39,702,o),
(39,691,cs),
(39,655,o),
(84,680,o),
(84,614,cs),
(84,94,ls),
(84,28,o),
(39,53,o),
(39,17,cs),
(39,6,o),
(48,-3,o),
(63,-3,cs),
(75,-3,o),
(96,0,o),
(126,0,cs),
(359,0,ls),
(384,0,o),
(383,-21,o),
(405,-21,cs)
);
},
{
closed = 1;
nodes = (
(192,808,o),
(215,788,o),
(249,788,cs),
(282,788,o),
(305,809,o),
(305,841,cs),
(305,873,o),
(282,893,o),
(249,893,cs),
(215,893,o),
(192,868,o),
(192,839,cs)
);
}
);
width = 497;
}
);
note = Edotaccent;
unicode = 278;
},
{
glyphname = Egrave;
kernLeft = B;
kernRight = AE;
layers = (
{
hints = (
{
horizontal = 1;
place = (0, 49);
place = (0, 49);
type = Stem;
},
{
horizontal = 1;
place = (335, 49);
place = (335, 49);
type = Stem;
},
{
horizontal = 1;
place = (659, 49);
place = (659, 49);
type = Stem;
},
{
place = (84, 85);
place = (84, 85);
type = Stem;
},
{
horizontal = 1;
place = (711, -20);
target = down;
type = TopGhost;
},
{
horizontal = 1;
place = (-3, 52);
place = (-3, 52);
type = Stem;
}
);
layerId = m01;
shapes = (
{
closed = 1;
nodes = (
(420,-21,o),
(429,-5,o),
(436,17,cs),
(466,101,ls),
(480,140,o),
(486,159,o),
(486,173,cs),
(486,184,o),
(478,192,o),
(469,192,cs),
(456,192,o),
(450,183,o),
(439,167,cs),
(388,90,o),
(356,49,o),
(303,49,cs),
(221,49,ls),
(170,49,o),
(169,67,o),
(169,98,cs),
(169,314,ls),
(169,331,o),
(175,335,o),
(189,335,cs),
(255,335,ls),
(299,335,o),
(296,260,o),
(324,260,cs),
(335,260,o),
(343,266,o),
(343,286,cs),
(343,307,o),
(340,334,o),
(340,360,cs),
(340,385,o),
(343,410,o),
(343,433,cs),
(343,453,o),
(335,460,o),
(324,460,cs),
(296,460,o),
(299,384,o),
(255,384,cs),
(189,384,ls),
(175,384,o),
(169,388,o),
(169,406,cs),
(169,611,ls),
(169,651,o),
(180,659,o),
(221,659,cs),
(268,659,ls),
(328,659,o),
(355,625,o),
(405,548,cs),
(415,533,o),
(422,524,o),
(434,524,cs),
(444,524,o),
(452,532,o),
(452,543,cs),
(452,555,o),
(446,573,o),
(433,609,cs),
(407,680,ls),
(397,708,o),
(390,728,o),
(373,728,cs),
(352,728,o),
(351,708,o),
(327,708,cs),
(126,708,ls),
(96,708,o),
(75,711,o),
(63,711,cs),
(48,711,o),
(39,702,o),
(39,691,cs),
(39,655,o),
(84,680,o),
(84,614,cs),
(84,94,ls),
(84,28,o),
(39,53,o),
(39,17,cs),
(39,6,o),
(48,-3,o),
(63,-3,cs),
(75,-3,o),
(96,0,o),
(126,0,cs),
(359,0,ls),
(384,0,o),
(383,-21,o),
(405,-21,cs)
);
},
{
closed = 1;
nodes = (
(136,911,o),
(144,899,o),
(160,875,cs),
(172,859,o),
(210,798,o),
(227,775,cs),
(240,756,o),
(248,754,o),
(258,754,cs),
(268,754,o),
(275,759,o),
(275,767,cs),
(275,772,o),
(273,780,o),
(268,791,cs),
(247,844,o),
(231,882,o),
(210,919,cs),
(202,934,o),
(196,939,o),
(173,939,cs),
(144,939,o),
(136,936,o),
(136,921,cs)
);
}
);
width = 497;
}
);
note = Egrave;
unicode = 200;
},
{
glyphname = Emacron;
kernLeft = B;
kernRight = AE;
layers = (
{
hints = (
{
horizontal = 1;
place = (-3, 52);
place = (-3, 52);
type = Stem;
},
{
horizontal = 1;
place = (335, 49);
place = (335, 49);
type = Stem;
},
{
horizontal = 1;
place = (659, 49);
place = (659, 49);
type = Stem;
},
{
horizontal = 1;
place = (813, 59);
place = (813, 59);
type = Stem;
},
{
place = (84, 85);
place = (84, 85);
type = Stem;
},
{
horizontal = 1;
place = (711, -20);
target = down;
type = TopGhost;
},
{
horizontal = 1;
place = (0, 49);
place = (0, 49);
type = Stem;
}
);
layerId = m01;
shapes = (
{
closed = 1;
nodes = (
(420,-21,o),
(429,-5,o),
(436,17,cs),
(466,101,ls),
(480,140,o),
(486,159,o),
(486,173,cs),
(486,184,o),
(478,192,o),
(469,192,cs),
(456,192,o),
(450,183,o),
(439,167,cs),
(388,90,o),
(356,49,o),
(303,49,cs),
(221,49,ls),
(170,49,o),
(169,67,o),
(169,98,cs),
(169,314,ls),
(169,331,o),
(175,335,o),
(189,335,cs),
(255,335,ls),
(299,335,o),
(296,260,o),
(324,260,cs),
(335,260,o),
(343,266,o),
(343,286,cs),
(343,307,o),
(340,334,o),
(340,360,cs),
(340,385,o),
(343,410,o),
(343,433,cs),
(343,453,o),
(335,460,o),
(324,460,cs),
(296,460,o),
(299,384,o),
(255,384,cs),
(189,384,ls),
(175,384,o),
(169,388,o),
(169,406,cs),
(169,611,ls),
(169,651,o),
(180,659,o),
(221,659,cs),
(268,659,ls),
(328,659,o),
(355,625,o),
(405,548,cs),
(415,533,o),
(422,524,o),
(434,524,cs),
(444,524,o),
(452,532,o),
(452,543,cs),
(452,555,o),
(446,573,o),
(433,609,cs),
(407,680,ls),
(397,708,o),
(390,728,o),
(373,728,cs),
(352,728,o),
(351,708,o),
(327,708,cs),
(126,708,ls),
(96,708,o),
(75,711,o),
(63,711,cs),
(48,711,o),
(39,702,o),
(39,691,cs),
(39,655,o),
(84,680,o),
(84,614,cs),
(84,94,ls),
(84,28,o),
(39,53,o),
(39,17,cs),
(39,6,o),
(48,-3,o),
(63,-3,cs),
(75,-3,o),
(96,0,o),
(126,0,cs),
(359,0,ls),
(384,0,o),
(383,-21,o),
(405,-21,cs)
);
},
{
closed = 1;
nodes = (
(132,824,o),
(139,813,o),
(154,813,cs),
(169,813,o),
(226,814,o),
(247,814,cs),
(338,813,ls),
(354,813,o),
(360,824,o),
(360,843,cs),
(360,862,o),
(354,873,o),
(338,873,cs),
(323,873,o),
(266,872,o),
(246,872,cs),
(154,873,ls),
(139,873,o),
(132,863,o),
(132,843,cs)
);
}
);
width = 497;
}
);
note = Emacron;
unicode = 274;
},
{
glyphname = Eogonek;
kernLeft = B;
kernRight = AE;
layers = (
{
hints = (
{
horizontal = 1;
place = (-199, 43);
place = (-199, 43);
type = Stem;
},
{
horizontal = 1;
place = (-3, 52);
place = (-3, 52);
type = Stem;
},
{
horizontal = 1;
place = (335, 49);
place = (335, 49);
type = Stem;
},
{
horizontal = 1;
place = (711, -20);
target = down;
type = TopGhost;
},
{
place = (84, 85);
place = (84, 85);
type = Stem;
},
{
place = (270, 54);
place = (270, 54);
type = Stem;
},
{
horizontal = 1;
place = (659, 49);
place = (659, 49);
type = Stem;
},
{
horizontal = 1;
place = (0, 49);
place = (0, 49);
type = Stem;
}
);
layerId = m01;
shapes = (
{
closed = 1;
nodes = (
(420,-21,o),
(429,-5,o),
(436,17,cs),
(466,101,ls),
(480,140,o),
(486,159,o),
(486,173,cs),
(486,184,o),
(478,192,o),
(469,192,cs),
(456,192,o),
(450,183,o),
(439,167,cs),
(388,90,o),
(356,49,o),
(303,49,cs),
(221,49,ls),
(170,49,o),
(169,67,o),
(169,98,cs),
(169,314,ls),
(169,331,o),
(175,335,o),
(189,335,cs),
(255,335,ls),
(299,335,o),
(296,260,o),
(324,260,cs),
(335,260,o),
(343,266,o),
(343,286,cs),
(343,307,o),
(340,334,o),
(340,360,cs),
(340,385,o),
(343,410,o),
(343,433,cs),
(343,453,o),
(335,460,o),
(324,460,cs),
(296,460,o),
(299,384,o),
(255,384,cs),
(189,384,ls),
(175,384,o),
(169,388,o),
(169,406,cs),
(169,611,ls),
(169,651,o),
(180,659,o),
(221,659,cs),
(268,659,ls),
(328,659,o),
(355,625,o),
(405,548,cs),
(415,533,o),
(422,524,o),
(434,524,cs),
(444,524,o),
(452,532,o),
(452,543,cs),
(452,555,o),
(446,573,o),
(433,609,cs),
(407,680,ls),
(397,708,o),
(390,728,o),
(373,728,cs),
(352,728,o),
(351,708,o),
(327,708,cs),
(126,708,ls),
(96,708,o),
(75,711,o),
(63,711,cs),
(48,711,o),
(39,702,o),
(39,691,cs),
(39,655,o),
(84,680,o),
(84,614,cs),
(84,94,ls),
(84,28,o),
(39,53,o),
(39,17,cs),
(39,6,o),
(48,-3,o),
(63,-3,cs),
(75,-3,o),
(96,0,o),
(126,0,cs),
(329,0,l),
(294,-41,o),
(270,-82,o),
(270,-125,cs),
(270,-176,o),
(304,-199,o),
(336,-199,cs),
(356,-199,o),
(374,-192,o),
(387,-179,c),
(393,-171,o),
(396,-165,o),
(396,-158,cs),
(396,-149,o),
(392,-144,o),
(383,-144,cs),
(380,-144,o),
(377,-145,o),
(372,-148,cs),
(366,-153,o),
(360,-156,o),
(352,-156,cs),
(334,-156,o),
(324,-140,o),
(324,-112,cs),
(324,-70,o),
(345,-35,o),
(370,-2,c),
(384,-7,o),
(387,-21,o),
(405,-21,cs)
);
}
);
width = 497;
}
);
note = Eogonek;
unicode = 280;
},
{
glyphname = F;
kernLeft = B;
kernRight = F;
layers = (
{
hints = (
{
horizontal = 1;
place = (-2, 21);
target = up;
type = BottomGhost;
},
{
horizontal = 1;
place = (330, 48);
place = (330, 48);
type = Stem;
},
{
horizontal = 1;
place = (659, 49);
place = (659, 49);
type = Stem;
},
{
place = (84, 85);
place = (84, 85);
type = Stem;
},
{
horizontal = 1;
place = (0, 21);
target = up;
type = BottomGhost;
},
{
horizontal = 1;
place = (711, -20);
target = down;
type = TopGhost;
}
);
layerId = m01;
shapes = (
{
closed = 1;
nodes = (
(78,-3,o),
(97,0,o),
(127,0,cs),
(161,0,o),
(188,-2,o),
(204,-2,cs),
(219,-2,o),
(226,8,o),
(226,18,cs),
(226,55,o),
(169,29,o),
(169,96,cs),
(169,308,ls),
(169,326,o),
(175,330,o),
(189,330,cs),
(271,330,ls),
(316,330,o),
(313,253,o),
(340,253,cs),
(352,253,o),
(360,260,o),
(360,280,cs),
(360,302,o),
(356,328,o),
(356,354,cs),
(356,380,o),
(360,405,o),
(360,428,cs),
(360,448,o),
(352,455,o),
(340,455,cs),
(313,455,o),
(316,378,o),
(271,378,cs),
(189,378,ls),
(175,378,o),
(169,383,o),
(169,399,cs),
(169,610,ls),
(169,651,o),
(181,659,o),
(221,659,cs),
(264,659,ls),
(325,659,o),
(347,630,o),
(402,547,cs),
(411,535,o),
(418,524,o),
(431,524,cs),
(441,524,o),
(449,532,o),
(449,544,cs),
(449,556,o),
(443,573,o),
(430,609,cs),
(405,681,ls),
(393,718,o),
(384,728,o),
(370,728,cs),
(349,728,o),
(349,708,o),
(322,708,cs),
(126,708,ls),
(96,708,o),
(75,711,o),
(63,711,cs),
(48,711,o),
(39,702,o),
(39,691,cs),
(39,655,o),
(84,680,o),
(84,614,cs),
(84,96,ls),
(84,29,o),
(39,54,o),
(39,17,cs),
(39,7,o),
(48,-3,o),
(63,-3,cs)
);
}
);
width = 455;
}
);
note = F;
unicode = 70;
},
{
glyphname = G;
kernLeft = C;
kernRight = G;
layers = (
{
hints = (
{
horizontal = 1;
place = (-13, 60);
place = (-13, 60);
type = Stem;
},
{
horizontal = 1;
place = (666, 55);
place = (666, 55);
type = Stem;
},
{
place = (36, 93);
place = (36, 93);
type = Stem;
},
{
place = (402, 83);
place = (402, 83);
type = Stem;
},
{
horizontal = 1;
place = (666, 36);
place = (666, 36);
type = Stem;
}
);
layerId = m01;
shapes = (
{
closed = 1;
nodes = (
(382,-13,o),
(455,13,o),
(482,27,cs),
(498,34,o),
(503,41,o),
(503,52,cs),
(503,73,o),
(485,66,o),
(485,109,cs),
(485,251,ls),
(485,317,o),
(531,292,o),
(531,328,cs),
(531,339,o),
(522,348,o),
(507,348,cs),
(378,348,ls),
(363,348,o),
(353,339,o),
(353,328,cs),
(353,290,o),
(402,317,o),
(402,251,cs),
(402,95,ls),
(402,72,o),
(381,47,o),
(327,47,cs),
(192,47,o),
(129,186,o),
(129,355,cs),
(129,530,o),
(192,666,o),
(288,666,cs),
(371,666,o),
(407,585,o),
(445,526,cs),
(454,511,o),
(462,502,o),
(473,502,cs),
(486,502,o),
(493,511,o),
(493,522,cs),
(493,534,o),
(487,553,o),
(473,599,cs),
(450,674,ls),
(439,708,o),
(435,724,o),
(417,724,cs),
(398,724,o),
(395,702,o),
(380,702,cs),
(364,702,o),
(337,721,o),
(278,721,cs),
(146,721,o),
(36,559,o),
(36,340,cs),
(36,112,o),
(149,-13,o),
(308,-13,cs)
);
}
);
width = 553;
}
);
note = G;
unicode = 71;
},
{
glyphname = Gbreve;
kernLeft = C;
kernRight = G;
layers = (
{
hints = (
{
horizontal = 1;
place = (-13, 60);
place = (-13, 60);
type = Stem;
},
{
horizontal = 1;
place = (666, 55);
place = (666, 55);
type = Stem;
},
{
horizontal = 1;
place = (767, 61);
place = (767, 61);
type = Stem;
},
{
place = (36, 93);
place = (36, 93);
type = Stem;
},
{
place = (402, 83);
place = (402, 83);
type = Stem;
},
{
horizontal = 1;
place = (666, 36);
place = (666, 36);
type = Stem;
}
);
layerId = m01;
shapes = (
{
closed = 1;
nodes = (
(382,-13,o),
(455,13,o),
(482,27,cs),
(498,34,o),
(503,41,o),
(503,52,cs),
(503,73,o),
(485,66,o),
(485,109,cs),
(485,251,ls),
(485,317,o),
(531,292,o),
(531,328,cs),
(531,339,o),
(522,348,o),
(507,348,cs),
(378,348,ls),
(363,348,o),
(353,339,o),
(353,328,cs),
(353,290,o),
(402,317,o),
(402,251,cs),
(402,95,ls),
(402,72,o),
(381,47,o),
(327,47,cs),
(192,47,o),
(129,186,o),
(129,355,cs),
(129,530,o),
(192,666,o),
(288,666,cs),
(371,666,o),
(407,585,o),
(445,526,cs),
(454,511,o),
(462,502,o),
(473,502,cs),
(486,502,o),
(493,511,o),
(493,522,cs),
(493,534,o),
(487,553,o),
(473,599,cs),
(450,674,ls),
(439,708,o),
(435,724,o),
(417,724,cs),
(398,724,o),
(395,702,o),
(380,702,cs),
(364,702,o),
(337,721,o),
(278,721,cs),
(146,721,o),
(36,559,o),
(36,340,cs),
(36,112,o),
(149,-13,o),
(308,-13,cs)
);
},
{
closed = 1;
nodes = (
(161,903,o),
(162,889,o),
(167,867,cs),
(183,801,o),
(220,767,o),
(270,767,cs),
(319,767,o),
(352,800,o),
(370,867,cs),
(375,887,o),
(378,904,o),
(378,914,cs),
(378,927,o),
(372,936,o),
(360,936,cs),
(344,936,o),
(336,917,o),
(330,896,cs),
(317,852,o),
(302,828,o),
(270,828,cs),
(238,828,o),
(221,850,o),
(208,895,cs),
(201,919,o),
(195,936,o),
(181,936,cs),
(169,936,o),
(161,926,o),
(161,913,cs)
);
}
);
width = 553;
}
);
note = Gbreve;
unicode = 286;
},
{
glyphname = Gcircumflex;
kernLeft = C;
kernRight = G;
layers = (
{
hints = (
{
horizontal = 1;
place = (-13, 60);
place = (-13, 60);
type = Stem;
},
{
horizontal = 1;
place = (666, 55);
place = (666, 55);
type = Stem;
},
{
place = (36, 93);
place = (36, 93);
type = Stem;
},
{
place = (402, 83);
place = (402, 83);
type = Stem;
},
{
horizontal = 1;
place = (666, 36);
place = (666, 36);
type = Stem;
}
);
layerId = m01;
shapes = (
{
closed = 1;
nodes = (
(382,-13,o),
(455,13,o),
(482,27,cs),
(498,34,o),
(503,41,o),
(503,52,cs),
(503,73,o),
(485,66,o),
(485,109,cs),
(485,251,ls),
(485,317,o),
(531,292,o),
(531,328,cs),
(531,339,o),
(522,348,o),
(507,348,cs),
(378,348,ls),
(363,348,o),
(353,339,o),
(353,328,cs),
(353,290,o),
(402,317,o),
(402,251,cs),
(402,95,ls),
(402,72,o),
(381,47,o),
(327,47,cs),
(192,47,o),
(129,186,o),
(129,355,cs),
(129,530,o),
(192,666,o),
(288,666,cs),
(371,666,o),
(407,585,o),
(445,526,cs),
(454,511,o),
(462,502,o),
(473,502,cs),
(486,502,o),
(493,511,o),
(493,522,cs),
(493,534,o),
(487,553,o),
(473,599,cs),
(450,674,ls),
(439,708,o),
(435,724,o),
(417,724,cs),
(398,724,o),
(395,702,o),
(380,702,cs),
(364,702,o),
(337,721,o),
(278,721,cs),
(146,721,o),
(36,559,o),
(36,340,cs),
(36,112,o),
(149,-13,o),
(308,-13,cs)
);
},
{
closed = 1;
nodes = (
(159,768,o),
(167,762,o),
(178,762,cs),
(187,762,o),
(195,767,o),
(207,784,cs),
(270,875,l),
(333,784,ls),
(344,768,o),
(352,762,o),
(362,762,cs),
(373,762,o),
(380,768,o),
(380,778,cs),
(380,787,o),
(377,794,o),
(372,805,cs),
(363,823,o),
(335,878,o),
(312,916,cs),
(300,935,o),
(292,941,o),
(270,941,cs),
(247,941,o),
(238,934,o),
(229,917,cs),
(205,876,o),
(190,846,o),
(167,804,cs),
(162,793,o),
(159,787,o),
(159,778,cs)
);
}
);
width = 553;
}
);
note = Gcircumflex;
unicode = 284;
},
{
glyphname = uni0122;
kernLeft = C;
kernRight = G;
layers = (
{
hints = (
{
horizontal = 1;
place = (-13, 60);
place = (-13, 60);
type = Stem;
},
{
horizontal = 1;
place = (666, 55);
place = (666, 55);
type = Stem;
},
{
place = (36, 93);
place = (36, 93);
type = Stem;
},
{
place = (273, 67);
place = (273, 67);
type = Stem;
},
{
place = (402, 83);
place = (402, 83);
type = Stem;
},
{
horizontal = 1;
place = (666, 36);
place = (666, 36);
type = Stem;
},
{
place = (233, 107);
place = (233, 107);
type = Stem;
}
);
layerId = m01;
shapes = (
{
closed = 1;
nodes = (
(382,-13,o),
(455,13,o),
(482,27,cs),
(498,34,o),
(503,41,o),
(503,52,cs),
(503,73,o),
(485,66,o),
(485,109,cs),
(485,251,ls),
(485,317,o),
(531,292,o),
(531,328,cs),
(531,339,o),
(522,348,o),
(507,348,cs),
(378,348,ls),
(363,348,o),
(353,339,o),
(353,328,cs),
(353,290,o),
(402,317,o),
(402,251,cs),
(402,95,ls),
(402,72,o),
(381,47,o),
(327,47,cs),
(192,47,o),
(129,186,o),
(129,355,cs),
(129,530,o),
(192,666,o),
(288,666,cs),
(371,666,o),
(407,585,o),
(445,526,cs),
(454,511,o),
(462,502,o),
(473,502,cs),
(486,502,o),
(493,511,o),
(493,522,cs),
(493,534,o),
(487,553,o),
(473,599,cs),
(450,674,ls),
(439,708,o),
(435,724,o),
(417,724,cs),
(398,724,o),
(395,702,o),
(380,702,cs),
(364,702,o),
(337,721,o),
(278,721,cs),
(146,721,o),
(36,559,o),
(36,340,cs),
(36,112,o),
(149,-13,o),
(308,-13,cs)
);
},
{
closed = 1;
nodes = (
(231,-226,o),
(239,-233,o),
(249,-233,cs),
(281,-233,o),
(340,-172,o),
(340,-100,cs),
(340,-61,o),
(317,-41,o),
(285,-41,cs),
(255,-41,o),
(233,-61,o),
(233,-89,cs),
(233,-107,o),
(241,-116,o),
(252,-124,cs),
(263,-133,o),
(273,-139,o),
(273,-152,cs),
(273,-173,o),
(257,-186,o),
(245,-196,cs),
(237,-203,o),
(231,-209,o),
(231,-217,cs)
);
}
);
width = 553;
}
);
note = uni0122;
unicode = 290;
},
{
glyphname = Gdotaccent;
kernLeft = C;
kernRight = G;
layers = (
{
hints = (
{
horizontal = 1;
place = (-13, 60);
place = (-13, 60);
type = Stem;
},
{
horizontal = 1;
place = (666, 55);
place = (666, 55);
type = Stem;
},
{
horizontal = 1;
place = (788, 105);
place = (788, 105);
type = Stem;
},
{
place = (36, 93);
place = (36, 93);
type = Stem;
},
{
place = (215, 113);
place = (215, 113);
type = Stem;
},
{
place = (402, 83);
place = (402, 83);
type = Stem;
},
{
horizontal = 1;
place = (666, 36);
place = (666, 36);
type = Stem;
}
);
layerId = m01;
shapes = (
{
closed = 1;
nodes = (
(382,-13,o),
(455,13,o),
(482,27,cs),
(498,34,o),
(503,41,o),
(503,52,cs),
(503,73,o),
(485,66,o),
(485,109,cs),
(485,251,ls),
(485,317,o),
(531,292,o),
(531,328,cs),
(531,339,o),
(522,348,o),
(507,348,cs),
(378,348,ls),
(363,348,o),
(353,339,o),
(353,328,cs),
(353,290,o),
(402,317,o),
(402,251,cs),
(402,95,ls),
(402,72,o),
(381,47,o),
(327,47,cs),
(192,47,o),
(129,186,o),
(129,355,cs),
(129,530,o),
(192,666,o),
(288,666,cs),
(371,666,o),
(407,585,o),
(445,526,cs),
(454,511,o),
(462,502,o),
(473,502,cs),
(486,502,o),
(493,511,o),
(493,522,cs),
(493,534,o),
(487,553,o),
(473,599,cs),
(450,674,ls),
(439,708,o),
(435,724,o),
(417,724,cs),
(398,724,o),
(395,702,o),
(380,702,cs),
(364,702,o),
(337,721,o),
(278,721,cs),
(146,721,o),
(36,559,o),
(36,340,cs),
(36,112,o),
(149,-13,o),
(308,-13,cs)
);
},
{
closed = 1;
nodes = (
(215,808,o),
(238,788,o),
(272,788,cs),
(305,788,o),
(328,809,o),
(328,841,cs),
(328,873,o),
(305,893,o),
(272,893,cs),
(238,893,o),
(215,868,o),
(215,839,cs)
);
}
);
width = 553;
}
);
note = Gdotaccent;
unicode = 288;
},
{
glyphname = H;
kernLeft = B;
kernRight = H;
layers = (
{
hints = (
{
horizontal = 1;
place = (-2, 21);
target = up;
type = BottomGhost;
},
{
horizontal = 1;
place = (335, 49);
place = (335, 49);
type = Stem;
},
{
horizontal = 1;
place = (710, -20);
target = down;
type = TopGhost;
},
{
place = (84, 85);
place = (84, 85);
type = Stem;
},
{
place = (420, 84);
place = (420, 84);
type = Stem;
}
);
layerId = m01;
shapes = (
{
closed = 1;
nodes = (
(411,-2,o),
(432,1,o),
(463,1,cs),
(493,1,o),
(510,-2,o),
(526,-2,cs),
(539,-2,o),
(549,6,o),
(549,18,cs),
(549,52,o),
(504,31,o),
(504,95,cs),
(504,613,ls),
(504,676,o),
(549,656,o),
(549,690,cs),
(549,701,o),
(539,710,o),
(526,710,cs),
(510,710,o),
(493,707,o),
(463,707,cs),
(432,707,o),
(411,710,o),
(398,710,cs),
(385,710,o),
(374,701,o),
(374,690,cs),
(374,656,o),
(420,676,o),
(420,613,cs),
(420,405,ls),
(420,387,o),
(414,384,o),
(401,384,cs),
(189,384,ls),
(175,384,o),
(169,388,o),
(169,405,cs),
(169,613,ls),
(169,676,o),
(215,656,o),
(215,690,cs),
(215,701,o),
(204,710,o),
(191,710,cs),
(178,710,o),
(157,707,o),
(126,707,cs),
(95,707,o),
(78,710,o),
(62,710,cs),
(49,710,o),
(39,701,o),
(39,690,cs),
(39,656,o),
(84,676,o),
(84,613,cs),
(84,95,ls),
(84,31,o),
(39,52,o),
(39,18,cs),
(39,6,o),
(49,-2,o),
(62,-2,cs),
(77,-2,o),
(95,1,o),
(126,1,cs),
(157,1,o),
(178,-2,o),
(191,-2,cs),
(204,-2,o),
(215,6,o),
(215,18,cs),
(215,52,o),
(169,31,o),
(169,95,cs),
(169,315,ls),
(169,331,o),
(175,335,o),
(189,335,cs),
(401,335,ls),
(414,335,o),
(420,331,o),
(420,315,cs),
(420,95,ls),
(420,31,o),
(374,52,o),
(374,18,cs),
(374,6,o),
(385,-2,o),
(398,-2,cs)
);
}
);
width = 588;
}
);
note = H;
unicode = 72;
},
{
glyphname = Hbar;
kernLeft = B;
kernRight = H;
layers = (
{
hints = (
{
horizontal = 1;
place = (-2, 21);
target = up;
type = BottomGhost;
},
{
horizontal = 1;
place = (335, 49);
place = (335, 49);
type = Stem;
},
{
horizontal = 1;
place = (496, 50);
place = (496, 50);
type = Stem;
},
{
place = (84, 85);
place = (84, 85);
type = Stem;
},
{
place = (420, 84);
place = (420, 84);
type = Stem;
},
{
horizontal = 1;
place = (498, 47);
place = (498, 47);
type = Stem;
},
{
horizontal = 1;
place = (498, 212);
place = (498, 212);
type = Stem;
}
);
layerId = m01;
shapes = (
{
closed = 1;
nodes = (
(84,496,l),
(84,95,ls),
(84,31,o),
(39,52,o),
(39,18,cs),
(39,6,o),
(49,-2,o),
(62,-2,cs),
(77,-2,o),
(95,1,o),
(126,1,cs),
(157,1,o),
(178,-2,o),
(191,-2,cs),
(204,-2,o),
(215,6,o),
(215,18,cs),
(215,52,o),
(169,31,o),
(169,95,cs),
(169,315,ls),
(169,331,o),
(175,335,o),
(189,335,cs),
(401,335,ls),
(414,335,o),
(420,331,o),
(420,315,cs),
(420,95,ls),
(420,31,o),
(374,52,o),
(374,18,cs),
(374,6,o),
(385,-2,o),
(398,-2,cs),
(411,-2,o),
(432,1,o),
(463,1,cs),
(493,1,o),
(510,-2,o),
(526,-2,cs),
(539,-2,o),
(549,6,o),
(549,18,cs),
(549,52,o),
(504,31,o),
(504,95,cs),
(504,496,l),
(546,496,ls),
(559,496,o),
(569,501,o),
(569,521,cs),
(569,540,o),
(560,546,o),
(546,546,cs),
(504,546,l),
(504,613,ls),
(504,676,o),
(549,656,o),
(549,690,cs),
(549,701,o),
(539,710,o),
(526,710,cs),
(510,710,o),
(493,707,o),
(463,707,cs),
(432,707,o),
(411,710,o),
(398,710,cs),
(385,710,o),
(374,701,o),
(374,690,cs),
(374,656,o),
(420,676,o),
(420,613,cs),
(420,545,l),
(169,545,l),
(169,613,ls),
(169,676,o),
(215,656,o),
(215,690,cs),
(215,701,o),
(204,710,o),
(191,710,cs),
(178,710,o),
(157,707,o),
(126,707,cs),
(95,707,o),
(78,710,o),
(62,710,cs),
(49,710,o),
(39,701,o),
(39,690,cs),
(39,656,o),
(84,676,o),
(84,613,cs),
(84,546,l),
(50,546,ls),
(35,546,o),
(26,540,o),
(26,521,cs),
(26,503,o),
(35,496,o),
(50,496,cs)
);
},
{
closed = 1;
nodes = (
(169,498,l),
(420,498,l),
(420,405,ls),
(420,387,o),
(414,384,o),
(401,384,cs),
(189,384,ls),
(175,384,o),
(169,388,o),
(169,405,cs)
);
}
);
width = 590;
}
);
note = Hbar;
unicode = 294;
},
{
glyphname = Hcircumflex;
kernLeft = B;
kernRight = H;
layers = (
{
hints = (
{
horizontal = 1;
place = (-2, 21);
target = up;
type = BottomGhost;
},
{
horizontal = 1;
place = (335, 49);
place = (335, 49);
type = Stem;
},
{
horizontal = 1;
place = (710, -20);
target = down;
type = TopGhost;
},
{
place = (84, 85);
place = (84, 85);
type = Stem;
},
{
place = (420, 84);
place = (420, 84);
type = Stem;
}
);
layerId = m01;
shapes = (
{
closed = 1;
nodes = (
(411,-2,o),
(432,1,o),
(463,1,cs),
(493,1,o),
(510,-2,o),
(526,-2,cs),
(539,-2,o),
(549,6,o),
(549,18,cs),
(549,52,o),
(504,31,o),
(504,95,cs),
(504,613,ls),
(504,676,o),
(549,656,o),
(549,690,cs),
(549,701,o),
(539,710,o),
(526,710,cs),
(510,710,o),
(493,707,o),
(463,707,cs),
(432,707,o),
(411,710,o),
(398,710,cs),
(385,710,o),
(374,701,o),
(374,690,cs),
(374,656,o),
(420,676,o),
(420,613,cs),
(420,405,ls),
(420,387,o),
(414,384,o),
(401,384,cs),
(189,384,ls),
(175,384,o),
(169,388,o),
(169,405,cs),
(169,613,ls),
(169,676,o),
(215,656,o),
(215,690,cs),
(215,701,o),
(204,710,o),
(191,710,cs),
(178,710,o),
(157,707,o),
(126,707,cs),
(95,707,o),
(78,710,o),
(62,710,cs),
(49,710,o),
(39,701,o),
(39,690,cs),
(39,656,o),
(84,676,o),
(84,613,cs),
(84,95,ls),
(84,31,o),
(39,52,o),
(39,18,cs),
(39,6,o),
(49,-2,o),
(62,-2,cs),
(77,-2,o),
(95,1,o),
(126,1,cs),
(157,1,o),
(178,-2,o),
(191,-2,cs),
(204,-2,o),
(215,6,o),
(215,18,cs),
(215,52,o),
(169,31,o),
(169,95,cs),
(169,315,ls),
(169,331,o),
(175,335,o),
(189,335,cs),
(401,335,ls),
(414,335,o),
(420,331,o),
(420,315,cs),
(420,95,ls),
(420,31,o),
(374,52,o),
(374,18,cs),
(374,6,o),
(385,-2,o),
(398,-2,cs)
);
},
{
closed = 1;
nodes = (
(187,768,o),
(195,762,o),
(206,762,cs),
(215,762,o),
(223,767,o),
(235,784,cs),
(298,875,l),
(361,784,ls),
(372,768,o),
(380,762,o),
(390,762,cs),
(401,762,o),
(408,768,o),
(408,778,cs),
(408,787,o),
(405,794,o),
(400,805,cs),
(391,823,o),
(363,878,o),
(340,916,cs),
(328,935,o),
(320,941,o),
(298,941,cs),
(275,941,o),
(266,934,o),
(257,917,cs),
(233,876,o),
(218,846,o),
(195,804,cs),
(190,793,o),
(187,787,o),
(187,778,cs)
);
}
);
width = 588;
}
);
note = Hcircumflex;
unicode = 292;
},
{
glyphname = I;
kernLeft = B;
kernRight = H;
layers = (
{
hints = (
{
horizontal = 1;
place = (-2, 21);
target = up;
type = BottomGhost;
},
{
horizontal = 1;
place = (710, -20);
target = down;
type = TopGhost;
},
{
place = (84, 85);
place = (84, 85);
type = Stem;
}
);
layerId = m01;
shapes = (
{
closed = 1;
nodes = (
(77,-2,o),
(95,1,o),
(126,1,cs),
(157,1,o),
(178,-2,o),
(191,-2,cs),
(204,-2,o),
(215,6,o),
(215,18,cs),
(215,52,o),
(169,31,o),
(169,95,cs),
(169,613,ls),
(169,676,o),
(215,656,o),
(215,690,cs),
(215,701,o),
(204,710,o),
(191,710,cs),
(178,710,o),
(157,707,o),
(126,707,cs),
(95,707,o),
(78,710,o),
(62,710,cs),
(49,710,o),
(39,701,o),
(39,690,cs),
(39,656,o),
(84,676,o),
(84,613,cs),
(84,95,ls),
(84,31,o),
(39,52,o),
(39,18,cs),
(39,6,o),
(49,-2,o),
(62,-2,cs)
);
}
);
width = 253;
}
);
note = I;
unicode = 73;
},
{
glyphname = IJ;
kernLeft = B;
kernRight = IJ;
layers = (
{
hints = (
{
horizontal = 1;
place = (-2, 21);
target = up;
type = BottomGhost;
},
{
horizontal = 1;
place = (710, -20);
target = down;
type = TopGhost;
},
{
place = (84, 85);
place = (84, 85);
type = Stem;
},
{
place = (461, 84);
place = (461, 84);
type = Stem;
},
{
horizontal = 1;
place = (-12, 49);
place = (-12, 49);
type = Stem;
}
);
layerId = m01;
shapes = (
{
closed = 1;
nodes = (
(77,-2,o),
(95,1,o),
(126,1,cs),
(157,1,o),
(178,-2,o),
(191,-2,cs),
(204,-2,o),
(215,6,o),
(215,18,cs),
(215,52,o),
(169,31,o),
(169,95,cs),
(169,613,ls),
(169,676,o),
(215,656,o),
(215,690,cs),
(215,701,o),
(204,710,o),
(191,710,cs),
(178,710,o),
(157,707,o),
(126,707,cs),
(95,707,o),
(78,710,o),
(62,710,cs),
(49,710,o),
(39,701,o),
(39,690,cs),
(39,656,o),
(84,676,o),
(84,613,cs),
(84,95,ls),
(84,31,o),
(39,52,o),
(39,18,cs),
(39,6,o),
(49,-2,o),
(62,-2,cs)
);
},
{
closed = 1;
nodes = (
(264,21,o),
(331,-12,o),
(401,-12,cs),
(490,-12,o),
(545,40,o),
(545,163,cs),
(545,613,ls),
(545,676,o),
(591,656,o),
(591,690,cs),
(591,701,o),
(581,710,o),
(568,710,cs),
(555,710,o),
(534,707,o),
(502,707,cs),
(467,707,o),
(449,710,o),
(433,710,cs),
(420,710,o),
(410,701,o),
(410,690,cs),
(410,656,o),
(461,676,o),
(461,613,cs),
(461,144,ls),
(461,80,o),
(440,37,o),
(399,37,cs),
(358,37,o),
(335,74,o),
(326,178,cs),
(324,195,o),
(318,203,o),
(306,203,cs),
(298,203,o),
(290,198,o),
(285,180,cs),
(271,130,o),
(264,85,o),
(264,69,cs)
);
}
);
width = 620;
}
);
note = IJ;
unicode = 306;
},
{
glyphname = Iacute;
kernLeft = B;
kernRight = H;
layers = (
{
hints = (
{
horizontal = 1;
place = (-2, 21);
target = up;
type = BottomGhost;
},
{
horizontal = 1;
place = (710, -20);
target = down;
type = TopGhost;
},
{
place = (84, 85);
place = (84, 85);
type = Stem;
}
);
layerId = m01;
shapes = (
{
closed = 1;
nodes = (
(77,-2,o),
(95,1,o),
(126,1,cs),
(157,1,o),
(178,-2,o),
(191,-2,cs),
(204,-2,o),
(215,6,o),
(215,18,cs),
(215,52,o),
(169,31,o),
(169,95,cs),
(169,613,ls),
(169,676,o),
(215,656,o),
(215,690,cs),
(215,701,o),
(204,710,o),
(191,710,cs),
(178,710,o),
(157,707,o),
(126,707,cs),
(95,707,o),
(78,710,o),
(62,710,cs),
(49,710,o),
(39,701,o),
(39,690,cs),
(39,656,o),
(84,676,o),
(84,613,cs),
(84,95,ls),
(84,31,o),
(39,52,o),
(39,18,cs),
(39,6,o),
(49,-2,o),
(62,-2,cs)
);
},
{
closed = 1;
nodes = (
(102,759,o),
(109,754,o),
(119,754,cs),
(129,754,o),
(137,756,o),
(150,775,cs),
(166,796,o),
(202,853,o),
(217,874,cs),
(231,895,o),
(242,911,o),
(242,921,cs),
(242,935,o),
(232,938,o),
(205,938,cs),
(182,938,o),
(175,934,o),
(166,918,cs),
(148,882,o),
(126,832,o),
(108,790,cs),
(105,783,o),
(102,773,o),
(102,767,cs)
);
}
);
width = 253;
}
);
note = Iacute;
unicode = 205;
},
{
glyphname = Ibreve;
kernLeft = B;
kernRight = H;
layers = (
{
hints = (
{
horizontal = 1;
place = (-2, 21);
target = up;
type = BottomGhost;
},
{
horizontal = 1;
place = (710, -20);
target = down;
type = TopGhost;
},
{
horizontal = 1;
place = (767, 61);
place = (767, 61);
type = Stem;
},
{
place = (84, 85);
place = (84, 85);
type = Stem;
}
);
layerId = m01;
shapes = (
{
closed = 1;
nodes = (
(77,-2,o),
(95,1,o),
(126,1,cs),
(157,1,o),
(178,-2,o),
(191,-2,cs),
(204,-2,o),
(215,6,o),
(215,18,cs),
(215,52,o),
(169,31,o),
(169,95,cs),
(169,613,ls),
(169,676,o),
(215,656,o),
(215,690,cs),
(215,701,o),
(204,710,o),
(191,710,cs),
(178,710,o),
(157,707,o),
(126,707,cs),
(95,707,o),
(78,710,o),
(62,710,cs),
(49,710,o),
(39,701,o),
(39,690,cs),
(39,656,o),
(84,676,o),
(84,613,cs),
(84,95,ls),
(84,31,o),
(39,52,o),
(39,18,cs),
(39,6,o),
(49,-2,o),
(62,-2,cs)
);
},
{
closed = 1;
nodes = (
(21,903,o),
(22,889,o),
(27,867,cs),
(43,801,o),
(80,767,o),
(130,767,cs),
(179,767,o),
(212,800,o),
(230,867,cs),
(235,887,o),
(238,904,o),
(238,914,cs),
(238,927,o),
(232,936,o),
(220,936,cs),
(204,936,o),
(196,917,o),
(190,896,cs),
(177,852,o),
(162,828,o),
(130,828,cs),
(98,828,o),
(81,850,o),
(68,895,cs),
(61,919,o),
(55,936,o),
(41,936,cs),
(29,936,o),
(21,926,o),
(21,913,cs)
);
}
);
width = 253;
}
);
note = Ibreve;
unicode = 300;
},
{
glyphname = Icircumflex;
kernLeft = B;
kernRight = H;
layers = (
{
hints = (
{
horizontal = 1;
place = (-2, 21);
target = up;
type = BottomGhost;
},
{
horizontal = 1;
place = (710, -20);
target = down;
type = TopGhost;
},
{
place = (84, 85);
place = (84, 85);
type = Stem;
}
);
layerId = m01;
shapes = (
{
closed = 1;
nodes = (
(77,-2,o),
(95,1,o),
(126,1,cs),
(157,1,o),
(178,-2,o),
(191,-2,cs),
(204,-2,o),
(215,6,o),
(215,18,cs),
(215,52,o),
(169,31,o),
(169,95,cs),
(169,613,ls),
(169,676,o),
(215,656,o),
(215,690,cs),
(215,701,o),
(204,710,o),
(191,710,cs),
(178,710,o),
(157,707,o),
(126,707,cs),
(95,707,o),
(78,710,o),
(62,710,cs),
(49,710,o),
(39,701,o),
(39,690,cs),
(39,656,o),
(84,676,o),
(84,613,cs),
(84,95,ls),
(84,31,o),
(39,52,o),
(39,18,cs),
(39,6,o),
(49,-2,o),
(62,-2,cs)
);
},
{
closed = 1;
nodes = (
(19,768,o),
(27,762,o),
(38,762,cs),
(47,762,o),
(55,767,o),
(67,784,cs),
(130,875,l),
(193,784,ls),
(204,768,o),
(212,762,o),
(222,762,cs),
(233,762,o),
(240,768,o),
(240,778,cs),
(240,787,o),
(237,794,o),
(232,805,cs),
(223,823,o),
(195,878,o),
(172,916,cs),
(160,935,o),
(152,941,o),
(130,941,cs),
(107,941,o),
(98,934,o),
(89,917,cs),
(65,876,o),
(50,846,o),
(27,804,cs),
(22,793,o),
(19,787,o),
(19,778,cs)
);
}
);
width = 253;
}
);
note = Icircumflex;
unicode = 206;
},
{
glyphname = Idieresis;
kernLeft = B;
kernRight = H;
layers = (
{
hints = (
{
horizontal = 1;
place = (-2, 21);
target = up;
type = BottomGhost;
},
{
horizontal = 1;
place = (710, -20);
target = down;
type = TopGhost;
},
{
horizontal = 1;
place = (788, 105);
place = (788, 105);
type = Stem;
},
{
place = (84, 85);
place = (84, 85);
type = Stem;
},
{
place = (-5, 113);
place = (-5, 113);
type = Stem;
},
{
place = (150, 114);
place = (150, 114);
type = Stem;
}
);
layerId = m01;
shapes = (
{
closed = 1;
nodes = (
(77,-2,o),
(95,1,o),
(126,1,cs),
(157,1,o),
(178,-2,o),
(191,-2,cs),
(204,-2,o),
(215,6,o),
(215,18,cs),
(215,52,o),
(169,31,o),
(169,95,cs),
(169,613,ls),
(169,676,o),
(215,656,o),
(215,690,cs),
(215,701,o),
(204,710,o),
(191,710,cs),
(178,710,o),
(157,707,o),
(126,707,cs),
(95,707,o),
(78,710,o),
(62,710,cs),
(49,710,o),
(39,701,o),
(39,690,cs),
(39,656,o),
(84,676,o),
(84,613,cs),
(84,95,ls),
(84,31,o),
(39,52,o),
(39,18,cs),
(39,6,o),
(49,-2,o),
(62,-2,cs)
);
},
{
closed = 1;
nodes = (
(-5,808,o),
(18,788,o),
(52,788,cs),
(85,788,o),
(108,809,o),
(108,841,cs),
(108,873,o),
(85,893,o),
(52,893,cs),
(18,893,o),
(-5,868,o),
(-5,839,cs)
);
},
{
closed = 1;
nodes = (
(150,808,o),
(172,788,o),
(207,788,cs),
(240,788,o),
(264,809,o),
(264,841,cs),
(264,873,o),
(240,893,o),
(207,893,cs),
(172,893,o),
(150,868,o),
(150,839,cs)
);
}
);
width = 253;
}
);
note = Idieresis;
unicode = 207;
},
{
glyphname = Idotaccent;
kernLeft = B;
kernRight = H;
layers = (
{
hints = (
{
horizontal = 1;
place = (-2, 21);
target = up;
type = BottomGhost;
},
{
horizontal = 1;
place = (710, -20);
target = down;
type = TopGhost;
},
{
horizontal = 1;
place = (788, 105);
place = (788, 105);
type = Stem;
},
{
place = (75, 113);
place = (75, 113);
type = Stem;
},
{
place = (84, 85);
place = (84, 85);
type = Stem;
}
);
layerId = m01;
shapes = (
{
closed = 1;
nodes = (
(77,-2,o),
(95,1,o),
(126,1,cs),
(157,1,o),
(178,-2,o),
(191,-2,cs),
(204,-2,o),
(215,6,o),
(215,18,cs),
(215,52,o),
(169,31,o),
(169,95,cs),
(169,613,ls),
(169,676,o),
(215,656,o),
(215,690,cs),
(215,701,o),
(204,710,o),
(191,710,cs),
(178,710,o),
(157,707,o),
(126,707,cs),
(95,707,o),
(78,710,o),
(62,710,cs),
(49,710,o),
(39,701,o),
(39,690,cs),
(39,656,o),
(84,676,o),
(84,613,cs),
(84,95,ls),
(84,31,o),
(39,52,o),
(39,18,cs),
(39,6,o),
(49,-2,o),
(62,-2,cs)
);
},
{
closed = 1;
nodes = (
(75,808,o),
(98,788,o),
(132,788,cs),
(165,788,o),
(188,809,o),
(188,841,cs),
(188,873,o),
(165,893,o),
(132,893,cs),
(98,893,o),
(75,868,o),
(75,839,cs)
);
}
);
width = 253;
}
);
note = Idotaccent;
unicode = 304;
},
{
glyphname = Igrave;
kernLeft = B;
kernRight = H;
layers = (
{
hints = (
{
horizontal = 1;
place = (-2, 21);
target = up;
type = BottomGhost;
},
{
horizontal = 1;
place = (710, -20);
target = down;
type = TopGhost;
},
{
place = (84, 85);
place = (84, 85);
type = Stem;
}
);
layerId = m01;
shapes = (
{
closed = 1;
nodes = (
(77,-2,o),
(95,1,o),
(126,1,cs),
(157,1,o),
(178,-2,o),
(191,-2,cs),
(204,-2,o),
(215,6,o),
(215,18,cs),
(215,52,o),
(169,31,o),
(169,95,cs),
(169,613,ls),
(169,676,o),
(215,656,o),
(215,690,cs),
(215,701,o),
(204,710,o),
(191,710,cs),
(178,710,o),
(157,707,o),
(126,707,cs),
(95,707,o),
(78,710,o),
(62,710,cs),
(49,710,o),
(39,701,o),
(39,690,cs),
(39,656,o),
(84,676,o),
(84,613,cs),
(84,95,ls),
(84,31,o),
(39,52,o),
(39,18,cs),
(39,6,o),
(49,-2,o),
(62,-2,cs)
);
},
{
closed = 1;
nodes = (
(19,911,o),
(27,899,o),
(43,875,cs),
(55,859,o),
(93,798,o),
(110,775,cs),
(123,756,o),
(131,754,o),
(141,754,cs),
(151,754,o),
(158,759,o),
(158,767,cs),
(158,772,o),
(156,780,o),
(151,791,cs),
(130,844,o),
(114,882,o),
(93,919,cs),
(85,934,o),
(79,939,o),
(56,939,cs),
(27,939,o),
(19,936,o),
(19,921,cs)
);
}
);
width = 253;
}
);
note = Igrave;
unicode = 204;
},
{
glyphname = Imacron;
kernLeft = B;
kernRight = H;
layers = (
{
hints = (
{
horizontal = 1;
place = (-2, 21);
target = up;
type = BottomGhost;
},
{
horizontal = 1;
place = (710, -20);
target = down;
type = TopGhost;
},
{
horizontal = 1;
place = (813, 59);
place = (813, 59);
type = Stem;
},
{
place = (84, 85);
place = (84, 85);
type = Stem;
}
);
layerId = m01;
shapes = (
{
closed = 1;
nodes = (
(77,-2,o),
(95,1,o),
(126,1,cs),
(157,1,o),
(178,-2,o),
(191,-2,cs),
(204,-2,o),
(215,6,o),
(215,18,cs),
(215,52,o),
(169,31,o),
(169,95,cs),
(169,613,ls),
(169,676,o),
(215,656,o),
(215,690,cs),
(215,701,o),
(204,710,o),
(191,710,cs),
(178,710,o),
(157,707,o),
(126,707,cs),
(95,707,o),
(78,710,o),
(62,710,cs),
(49,710,o),
(39,701,o),
(39,690,cs),
(39,656,o),
(84,676,o),
(84,613,cs),
(84,95,ls),
(84,31,o),
(39,52,o),
(39,18,cs),
(39,6,o),
(49,-2,o),
(62,-2,cs)
);
},
{
closed = 1;
nodes = (
(15,824,o),
(22,813,o),
(37,813,cs),
(52,813,o),
(109,814,o),
(130,814,cs),
(221,813,ls),
(237,813,o),
(243,824,o),
(243,843,cs),
(243,862,o),
(237,873,o),
(221,873,cs),
(206,873,o),
(149,872,o),
(129,872,cs),
(37,873,ls),
(22,873,o),
(15,863,o),
(15,843,cs)
);
}
);
width = 253;
}
);
note = Imacron;
unicode = 298;
},
{
glyphname = Iogonek;
kernLeft = B;
kernRight = H;
layers = (
{
hints = (
{
horizontal = 1;
place = (-199, 43);
place = (-199, 43);
type = Stem;
},
{
horizontal = 1;
place = (-2, 21);
target = up;
type = BottomGhost;
},
{
horizontal = 1;
place = (710, -20);
target = down;
type = TopGhost;
},
{
place = (84, 85);
place = (84, 85);
type = Stem;
},
{
horizontal = 1;
place = (0, 21);
target = up;
type = BottomGhost;
},
{
place = (57, 54);
place = (57, 54);
type = Stem;
}
);
layerId = m01;
shapes = (
{
closed = 1;
nodes = (
(76,-2,o),
(92,0,o),
(117,1,c),
(81,-40,o),
(57,-82,o),
(57,-125,cs),
(57,-176,o),
(91,-199,o),
(123,-199,cs),
(143,-199,o),
(161,-192,o),
(174,-179,c),
(180,-171,o),
(183,-165,o),
(183,-158,cs),
(183,-149,o),
(179,-144,o),
(170,-144,cs),
(167,-144,o),
(164,-145,o),
(159,-148,cs),
(153,-153,o),
(147,-156,o),
(139,-156,cs),
(121,-156,o),
(111,-140,o),
(111,-112,cs),
(111,-69,o),
(133,-34,o),
(159,0,c),
(173,-1,o),
(183,-2,o),
(191,-2,cs),
(204,-2,o),
(215,6,o),
(215,18,cs),
(215,52,o),
(169,31,o),
(169,95,cs),
(169,613,ls),
(169,676,o),
(215,656,o),
(215,690,cs),
(215,701,o),
(204,710,o),
(191,710,cs),
(178,710,o),
(157,707,o),
(126,707,cs),
(95,707,o),
(78,710,o),
(62,710,cs),
(49,710,o),
(39,701,o),
(39,690,cs),
(39,656,o),
(84,676,o),
(84,613,cs),
(84,95,ls),
(84,31,o),
(39,52,o),
(39,18,cs),
(39,6,o),
(49,-2,o),
(62,-2,cs)
);
}
);
width = 253;
}
);
note = Iogonek;
unicode = 302;
},
{
glyphname = Itilde;
kernLeft = B;
kernRight = H;
layers = (
{
hints = (
{
horizontal = 1;
place = (-2, 21);
target = up;
type = BottomGhost;
},
{
horizontal = 1;
place = (710, -20);
target = down;
type = TopGhost;
},
{
horizontal = 1;
place = (776, 60);
place = (776, 60);
type = Stem;
},
{
horizontal = 1;
place = (855, 60);
place = (855, 60);
type = Stem;
},
{
place = (84, 85);
place = (84, 85);
type = Stem;
}
);
layerId = m01;
shapes = (
{
closed = 1;
nodes = (
(77,-2,o),
(95,1,o),
(126,1,cs),
(157,1,o),
(178,-2,o),
(191,-2,cs),
(204,-2,o),
(215,6,o),
(215,18,cs),
(215,52,o),
(169,31,o),
(169,95,cs),
(169,613,ls),
(169,676,o),
(215,656,o),
(215,690,cs),
(215,701,o),
(204,710,o),
(191,710,cs),
(178,710,o),
(157,707,o),
(126,707,cs),
(95,707,o),
(78,710,o),
(62,710,cs),
(49,710,o),
(39,701,o),
(39,690,cs),
(39,656,o),
(84,676,o),
(84,613,cs),
(84,95,ls),
(84,31,o),
(39,52,o),
(39,18,cs),
(39,6,o),
(49,-2,o),
(62,-2,cs)
);
},
{
closed = 1;
nodes = (
(9,791,o),
(16,784,o),
(26,784,cs),
(37,784,o),
(41,796,o),
(49,819,cs),
(59,847,o),
(69,855,o),
(77,855,cs),
(98,855,o),
(134,776,o),
(179,776,cs),
(218,776,o),
(237,818,o),
(247,856,cs),
(251,871,o),
(252,882,o),
(252,887,cs),
(252,899,o),
(245,906,o),
(235,906,cs),
(222,906,o),
(216,891,o),
(210,873,cs),
(202,847,o),
(193,836,o),
(184,836,cs),
(155,836,o),
(126,915,o),
(81,915,cs),
(44,915,o),
(22,868,o),
(14,835,cs),
(10,819,o),
(9,810,o),
(9,805,cs)
);
}
);
width = 253;
}
);
note = Itilde;
unicode = 296;
},
{
glyphname = J;
kernLeft = J;
kernRight = IJ;
layers = (
{
hints = (
{
horizontal = 1;
place = (-12, 49);
place = (-12, 49);
type = Stem;
},
{
horizontal = 1;
place = (710, -20);
target = down;
type = TopGhost;
},
{
place = (208, 84);
place = (208, 84);
type = Stem;
}
);
layerId = m01;
shapes = (
{
closed = 1;
nodes = (
(237,-12,o),
(292,40,o),
(292,163,cs),
(292,613,ls),
(292,676,o),
(338,656,o),
(338,690,cs),
(338,701,o),
(328,710,o),
(315,710,cs),
(302,710,o),
(281,707,o),
(249,707,cs),
(214,707,o),
(196,710,o),
(180,710,cs),
(167,710,o),
(157,701,o),
(157,690,cs),
(157,656,o),
(208,676,o),
(208,613,cs),
(208,144,ls),
(208,80,o),
(187,37,o),
(146,37,cs),
(105,37,o),
(82,74,o),
(73,178,cs),
(71,195,o),
(65,203,o),
(53,203,cs),
(45,203,o),
(37,198,o),
(32,180,cs),
(18,130,o),
(11,85,o),
(11,69,cs),
(11,21,o),
(78,-12,o),
(148,-12,cs)
);
}
);
width = 367;
}
);
note = J;
unicode = 74;
},
{
glyphname = Jcircumflex;
kernLeft = J;
kernRight = IJ;
layers = (
{
hints = (
{
horizontal = 1;
place = (-12, 49);
place = (-12, 49);
type = Stem;
},
{
horizontal = 1;
place = (710, -20);
target = down;
type = TopGhost;
},
{
place = (208, 84);
place = (208, 84);
type = Stem;
}
);
layerId = m01;
shapes = (
{
closed = 1;
nodes = (
(237,-12,o),
(292,40,o),
(292,163,cs),
(292,613,ls),
(292,676,o),
(338,656,o),
(338,690,cs),
(338,701,o),
(328,710,o),
(315,710,cs),
(302,710,o),
(281,707,o),
(249,707,cs),
(214,707,o),
(196,710,o),
(180,710,cs),
(167,710,o),
(157,701,o),
(157,690,cs),
(157,656,o),
(208,676,o),
(208,613,cs),
(208,144,ls),
(208,80,o),
(187,37,o),
(146,37,cs),
(105,37,o),
(82,74,o),
(73,178,cs),
(71,195,o),
(65,203,o),
(53,203,cs),
(45,203,o),
(37,198,o),
(32,180,cs),
(18,130,o),
(11,85,o),
(11,69,cs),
(11,21,o),
(78,-12,o),
(148,-12,cs)
);
},
{
closed = 1;
nodes = (
(139,768,o),
(147,762,o),
(158,762,cs),
(167,762,o),
(175,767,o),
(187,784,cs),
(250,875,l),
(313,784,ls),
(324,768,o),
(332,762,o),
(342,762,cs),
(353,762,o),
(360,768,o),
(360,778,cs),
(360,787,o),
(357,794,o),
(352,805,cs),
(343,823,o),
(315,878,o),
(292,916,cs),
(280,935,o),
(272,941,o),
(250,941,cs),
(227,941,o),
(218,934,o),
(209,917,cs),
(185,876,o),
(170,846,o),
(147,804,cs),
(142,793,o),
(139,787,o),
(139,778,cs)
);
}
);
width = 367;
}
);
note = Jcircumflex;
unicode = 308;
},
{
glyphname = K;
kernLeft = B;
kernRight = K;
layers = (
{
hints = (
{
horizontal = 1;
place = (-2, 21);
target = up;
type = BottomGhost;
},
{
horizontal = 1;
place = (710, -20);
target = down;
type = TopGhost;
},
{
place = (84, 85);
place = (84, 85);
type = Stem;
},
{
place = (336, 168);
place = (336, 168);
type = Stem;
}
);
layerId = m01;
shapes = (
{
closed = 1;
nodes = (
(77,-2,o),
(95,1,o),
(126,1,cs),
(157,1,o),
(178,-2,o),
(191,-2,cs),
(204,-2,o),
(215,6,o),
(215,18,cs),
(215,52,o),
(169,31,o),
(169,95,cs),
(169,297,l),
(241,389,l),
(369,100,ls),
(374,89,o),
(377,84,o),
(377,73,cs),
(377,41,o),
(340,48,o),
(340,18,cs),
(340,6,o),
(349,-2,o),
(366,-2,cs),
(383,-2,o),
(406,1,o),
(437,1,cs),
(467,1,o),
(490,-2,o),
(501,-2,cs),
(514,-2,o),
(527,5,o),
(527,21,cs),
(527,50,o),
(488,37,o),
(463,92,cs),
(297,460,l),
(432,631,ls),
(463,670,o),
(504,659,o),
(504,691,cs),
(504,703,o),
(495,710,o),
(483,710,cs),
(469,710,o),
(444,707,o),
(422,707,cs),
(399,707,o),
(379,710,o),
(359,710,cs),
(345,710,o),
(336,701,o),
(336,690,cs),
(336,662,o),
(368,673,o),
(368,647,cs),
(368,633,o),
(362,624,o),
(349,608,cs),
(169,375,l),
(169,613,ls),
(169,676,o),
(215,656,o),
(215,690,cs),
(215,701,o),
(204,710,o),
(191,710,cs),
(178,710,o),
(157,707,o),
(126,707,cs),
(95,707,o),
(78,710,o),
(62,710,cs),
(49,710,o),
(39,701,o),
(39,690,cs),
(39,656,o),
(84,676,o),
(84,613,cs),
(84,95,ls),
(84,31,o),
(39,52,o),
(39,18,cs),
(39,6,o),
(49,-2,o),
(62,-2,cs)
);
}
);
width = 525;
}
);
note = K;
unicode = 75;
},
{
glyphname = uni0136;
kernLeft = B;
kernRight = K;
layers = (
{
hints = (
{
horizontal = 1;
place = (-2, 21);
target = up;
type = BottomGhost;
},
{
horizontal = 1;
place = (710, -20);
target = down;
type = TopGhost;
},
{
place = (84, 85);
place = (84, 85);
type = Stem;
},
{
place = (266, 67);
place = (266, 67);
type = Stem;
},
{
place = (336, 168);
place = (336, 168);
type = Stem;
},
{
place = (226, 107);
place = (226, 107);
type = Stem;
}
);
layerId = m01;
shapes = (
{
closed = 1;
nodes = (
(77,-2,o),
(95,1,o),
(126,1,cs),
(157,1,o),
(178,-2,o),
(191,-2,cs),
(204,-2,o),
(215,6,o),
(215,18,cs),
(215,52,o),
(169,31,o),
(169,95,cs),
(169,297,l),
(241,389,l),
(369,100,ls),
(374,89,o),
(377,84,o),
(377,73,cs),
(377,41,o),
(340,48,o),
(340,18,cs),
(340,6,o),
(349,-2,o),
(366,-2,cs),
(383,-2,o),
(406,1,o),
(437,1,cs),
(467,1,o),
(490,-2,o),
(501,-2,cs),
(514,-2,o),
(527,5,o),
(527,21,cs),
(527,50,o),
(488,37,o),
(463,92,cs),
(297,460,l),
(432,631,ls),
(463,670,o),
(504,659,o),
(504,691,cs),
(504,703,o),
(495,710,o),
(483,710,cs),
(469,710,o),
(444,707,o),
(422,707,cs),
(399,707,o),
(379,710,o),
(359,710,cs),
(345,710,o),
(336,701,o),
(336,690,cs),
(336,662,o),
(368,673,o),
(368,647,cs),
(368,633,o),
(362,624,o),
(349,608,cs),
(169,375,l),
(169,613,ls),
(169,676,o),
(215,656,o),
(215,690,cs),
(215,701,o),
(204,710,o),
(191,710,cs),
(178,710,o),
(157,707,o),
(126,707,cs),
(95,707,o),
(78,710,o),
(62,710,cs),
(49,710,o),
(39,701,o),
(39,690,cs),
(39,656,o),
(84,676,o),
(84,613,cs),
(84,95,ls),
(84,31,o),
(39,52,o),
(39,18,cs),
(39,6,o),
(49,-2,o),
(62,-2,cs)
);
},
{
closed = 1;
nodes = (
(224,-226,o),
(232,-233,o),
(242,-233,cs),
(274,-233,o),
(333,-172,o),
(333,-100,cs),
(333,-61,o),
(310,-41,o),
(278,-41,cs),
(248,-41,o),
(226,-61,o),
(226,-89,cs),
(226,-107,o),
(234,-116,o),
(245,-124,cs),
(256,-133,o),
(266,-139,o),
(266,-152,cs),
(266,-173,o),
(250,-186,o),
(238,-196,cs),
(230,-203,o),
(224,-209,o),
(224,-217,cs)
);
}
);
width = 525;
}
);
note = uni0136;
unicode = 310;
},
{
glyphname = L;
kernLeft = B;
kernRight = L;
layers = (
{
hints = (
{
horizontal = 1;
place = (-3, 52);
place = (-3, 52);
type = Stem;
},
{
horizontal = 1;
place = (710, -20);
target = down;
type = TopGhost;
},
{
place = (84, 85);
place = (84, 85);
type = Stem;
},
{
horizontal = 1;
place = (0, 49);
place = (0, 49);
type = Stem;
}
);
layerId = m01;
shapes = (
{
closed = 1;
nodes = (
(392,-21,o),
(401,-6,o),
(410,18,cs),
(439,102,ls),
(452,141,o),
(460,163,o),
(460,177,cs),
(460,188,o),
(454,197,o),
(441,197,cs),
(431,197,o),
(423,187,o),
(412,172,cs),
(356,95,o),
(328,49,o),
(263,49,cs),
(198,49,ls),
(175,49,o),
(169,63,o),
(169,86,cs),
(169,613,ls),
(169,676,o),
(218,656,o),
(218,690,cs),
(218,701,o),
(208,710,o),
(195,710,cs),
(181,710,o),
(157,707,o),
(126,707,cs),
(95,707,o),
(78,710,o),
(62,710,cs),
(49,710,o),
(39,701,o),
(39,690,cs),
(39,656,o),
(84,676,o),
(84,613,cs),
(84,94,ls),
(84,28,o),
(39,53,o),
(39,16,cs),
(39,5,o),
(44,-3,o),
(60,-3,cs),
(73,-3,o),
(96,0,o),
(126,0,cs),
(328,0,ls),
(354,0,o),
(357,-21,o),
(379,-21,cs)
);
}
);
width = 463;
}
);
note = L;
unicode = 76;
},
{
glyphname = Lacute;
kernLeft = B;
kernRight = L;
layers = (
{
hints = (
{
horizontal = 1;
place = (0, 49);
place = (0, 49);
type = Stem;
},
{
horizontal = 1;
place = (710, -20);
target = down;
type = TopGhost;
},
{
place = (84, 85);
place = (84, 85);
type = Stem;
},
{
horizontal = 1;
place = (-3, 52);
place = (-3, 52);
type = Stem;
}
);
layerId = m01;
shapes = (
{
closed = 1;
nodes = (
(392,-21,o),
(401,-6,o),
(410,18,cs),
(439,102,ls),
(452,141,o),
(460,163,o),
(460,177,cs),
(460,188,o),
(454,197,o),
(441,197,cs),
(431,197,o),
(423,187,o),
(412,172,cs),
(356,95,o),
(328,49,o),
(263,49,cs),
(198,49,ls),
(175,49,o),
(169,63,o),
(169,86,cs),
(169,613,ls),
(169,676,o),
(218,656,o),
(218,690,cs),
(218,701,o),
(208,710,o),
(195,710,cs),
(181,710,o),
(157,707,o),
(126,707,cs),
(95,707,o),
(78,710,o),
(62,710,cs),
(49,710,o),
(39,701,o),
(39,690,cs),
(39,656,o),
(84,676,o),
(84,613,cs),
(84,94,ls),
(84,28,o),
(39,53,o),
(39,16,cs),
(39,5,o),
(44,-3,o),
(60,-3,cs),
(73,-3,o),
(96,0,o),
(126,0,cs),
(328,0,ls),
(354,0,o),
(357,-21,o),
(379,-21,cs)
);
},
{
closed = 1;
nodes = (
(133,759,o),
(140,754,o),
(150,754,cs),
(160,754,o),
(168,756,o),
(181,775,cs),
(197,796,o),
(233,853,o),
(248,874,cs),
(262,895,o),
(273,911,o),
(273,921,cs),
(273,935,o),
(263,938,o),
(236,938,cs),
(213,938,o),
(206,934,o),
(197,918,cs),
(179,882,o),
(157,832,o),
(139,790,cs),
(136,783,o),
(133,773,o),
(133,767,cs)
);
}
);
width = 463;
}
);
note = Lacute;
unicode = 313;
},
{
glyphname = Lcaron;
kernLeft = B;
kernRight = L;
layers = (
{
hints = (
{
horizontal = 1;
place = (0, 49);
place = (0, 49);
type = Stem;
},
{
horizontal = 1;
place = (710, -20);
target = down;
type = TopGhost;
},
{
place = (84, 85);
place = (84, 85);
type = Stem;
},
{
place = (273, 61);
place = (273, 61);
type = Stem;
},
{
horizontal = 1;
place = (-3, 52);
place = (-3, 52);
type = Stem;
}
);
layerId = m01;
shapes = (
{
closed = 1;
nodes = (
(392,-21,o),
(401,-6,o),
(410,18,cs),
(439,102,ls),
(452,141,o),
(460,163,o),
(460,177,cs),
(460,188,o),
(454,197,o),
(441,197,cs),
(431,197,o),
(423,187,o),
(412,172,cs),
(356,95,o),
(328,49,o),
(263,49,cs),
(198,49,ls),
(175,49,o),
(169,63,o),
(169,86,cs),
(169,613,ls),
(169,676,o),
(218,656,o),
(218,690,cs),
(218,701,o),
(208,710,o),
(195,710,cs),
(181,710,o),
(157,707,o),
(126,707,cs),
(95,707,o),
(78,710,o),
(62,710,cs),
(49,710,o),
(39,701,o),
(39,690,cs),
(39,656,o),
(84,676,o),
(84,613,cs),
(84,94,ls),
(84,28,o),
(39,53,o),
(39,16,cs),
(39,5,o),
(44,-3,o),
(60,-3,cs),
(73,-3,o),
(96,0,o),
(126,0,cs),
(328,0,ls),
(354,0,o),
(357,-21,o),
(379,-21,cs)
);
},
{
closed = 1;
nodes = (
(273,518,ls),
(273,505,o),
(279,500,o),
(290,500,cs),
(302,500,o),
(312,511,o),
(315,524,cs),
(324,571,o),
(334,674,o),
(334,723,cs),
(334,740,o),
(322,748,o),
(300,748,cs),
(278,748,o),
(273,740,o),
(273,723,cs)
);
}
);
width = 463;
}
);
note = Lcaron;
unicode = 317;
},
{
glyphname = uni013B;
kernLeft = B;
kernRight = L;
layers = (
{
hints = (
{
horizontal = 1;
place = (0, 49);
place = (0, 49);
type = Stem;
},
{
horizontal = 1;
place = (710, -20);
target = down;
type = TopGhost;
},
{
place = (84, 85);
place = (84, 85);
type = Stem;
},
{
place = (201, 107);
place = (201, 107);
type = Stem;
},
{
horizontal = 1;
place = (-3, 52);
place = (-3, 52);
type = Stem;
},
{
place = (241, 67);
place = (241, 67);
type = Stem;
}
);
layerId = m01;
shapes = (
{
closed = 1;
nodes = (
(392,-21,o),
(401,-6,o),
(410,18,cs),
(439,102,ls),
(452,141,o),
(460,163,o),
(460,177,cs),
(460,188,o),
(454,197,o),
(441,197,cs),
(431,197,o),
(423,187,o),
(412,172,cs),
(356,95,o),
(328,49,o),
(263,49,cs),
(198,49,ls),
(175,49,o),
(169,63,o),
(169,86,cs),
(169,613,ls),
(169,676,o),
(218,656,o),
(218,690,cs),
(218,701,o),
(208,710,o),
(195,710,cs),
(181,710,o),
(157,707,o),
(126,707,cs),
(95,707,o),
(78,710,o),
(62,710,cs),
(49,710,o),
(39,701,o),
(39,690,cs),
(39,656,o),
(84,676,o),
(84,613,cs),
(84,94,ls),
(84,28,o),
(39,53,o),
(39,16,cs),
(39,5,o),
(44,-3,o),
(60,-3,cs),
(73,-3,o),
(96,0,o),
(126,0,cs),
(328,0,ls),
(354,0,o),
(357,-21,o),
(379,-21,cs)
);
},
{
closed = 1;
nodes = (
(199,-226,o),
(207,-233,o),
(217,-233,cs),
(249,-233,o),
(308,-172,o),
(308,-100,cs),
(308,-61,o),
(285,-41,o),
(253,-41,cs),
(223,-41,o),
(201,-61,o),
(201,-89,cs),
(201,-107,o),
(209,-116,o),
(220,-124,cs),
(231,-133,o),
(241,-139,o),
(241,-152,cs),
(241,-173,o),
(225,-186,o),
(213,-196,cs),
(205,-203,o),
(199,-209,o),
(199,-217,cs)
);
}
);
width = 463;
}
);
note = uni013B;
unicode = 315;
},
{
glyphname = Ldot;
kernLeft = B;
kernRight = L;
layers = (
{
hints = (
{
horizontal = 1;
place = (0, 49);
place = (0, 49);
type = Stem;
},
{
horizontal = 1;
place = (710, -20);
target = down;
type = TopGhost;
},
{
place = (84, 85);
place = (84, 85);
type = Stem;
},
{
horizontal = 1;
place = (-3, 52);
place = (-3, 52);
type = Stem;
}
);
layerId = m01;
shapes = (
{
closed = 1;
nodes = (
(392,-21,o),
(401,-6,o),
(410,18,cs),
(439,102,ls),
(452,141,o),
(460,163,o),
(460,177,cs),
(460,188,o),
(454,197,o),
(441,197,cs),
(431,197,o),
(423,187,o),
(412,172,cs),
(356,95,o),
(328,49,o),
(263,49,cs),
(198,49,ls),
(175,49,o),
(169,63,o),
(169,86,cs),
(169,613,ls),
(169,676,o),
(218,656,o),
(218,690,cs),
(218,701,o),
(208,710,o),
(195,710,cs),
(181,710,o),
(157,707,o),
(126,707,cs),
(95,707,o),
(78,710,o),
(62,710,cs),
(49,710,o),
(39,701,o),
(39,690,cs),
(39,656,o),
(84,676,o),
(84,613,cs),
(84,94,ls),
(84,28,o),
(39,53,o),
(39,16,cs),
(39,5,o),
(44,-3,o),
(60,-3,cs),
(73,-3,o),
(96,0,o),
(126,0,cs),
(328,0,ls),
(354,0,o),
(357,-21,o),
(379,-21,cs)
);
},
{
closed = 1;
nodes = (
(308,405,o),
(333,430,o),
(367,430,cs),
(396,430,o),
(418,411,o),
(418,378,cs),
(418,346,o),
(393,321,o),
(359,321,cs),
(329,321,o),
(308,340,o),
(308,373,cs)
);
}
);
width = 463;
}
);
note = Ldot;
unicode = 319;
},
{
glyphname = Lslash;
kernLeft = Lslash;
kernRight = L;
layers = (
{
hints = (
{
horizontal = 1;
place = (0, 49);
place = (0, 49);
type = Stem;
},
{
horizontal = 1;
place = (710, -20);
target = down;
type = TopGhost;
},
{
place = (98, 85);
place = (98, 85);
type = Stem;
},
{
horizontal = 1;
place = (-3, 52);
place = (-3, 52);
type = Stem;
}
);
layerId = m01;
shapes = (
{
closed = 1;
nodes = (
(58,272,o),
(63,273,o),
(68,276,cs),
(98,296,l),
(98,94,ls),
(98,28,o),
(53,53,o),
(53,16,cs),
(53,5,o),
(58,-3,o),
(74,-3,cs),
(87,-3,o),
(110,0,o),
(140,0,cs),
(342,0,ls),
(368,0,o),
(371,-21,o),
(393,-21,cs),
(406,-21,o),
(415,-6,o),
(424,18,cs),
(453,102,ls),
(466,141,o),
(474,163,o),
(474,177,cs),
(474,188,o),
(468,197,o),
(455,197,cs),
(445,197,o),
(437,187,o),
(426,172,cs),
(370,95,o),
(342,49,o),
(277,49,cs),
(212,49,ls),
(189,49,o),
(183,63,o),
(183,86,cs),
(183,353,l),
(288,424,ls),
(298,431,o),
(302,437,o),
(302,446,cs),
(302,462,o),
(289,472,o),
(281,472,cs),
(276,472,o),
(272,471,o),
(267,468,cs),
(183,411,l),
(183,613,ls),
(183,676,o),
(232,656,o),
(232,690,cs),
(232,701,o),
(222,710,o),
(209,710,cs),
(195,710,o),
(171,707,o),
(140,707,cs),
(109,707,o),
(92,710,o),
(76,710,cs),
(63,710,o),
(53,701,o),
(53,690,cs),
(53,656,o),
(98,676,o),
(98,613,cs),
(98,354,l),
(47,319,ls),
(36,312,o),
(33,307,o),
(33,298,cs),
(33,282,o),
(46,272,o),
(53,272,cs)
);
}
);
width = 477;
}
);
note = Lslash;
unicode = 321;
},
{
glyphname = M;
kernLeft = M;
kernRight = M;
layers = (
{
hints = (
{
horizontal = 1;
place = (-2, 21);
target = up;
type = BottomGhost;
},
{
horizontal = 1;
place = (536, 174);
place = (536, 174);
type = Stem;
},
{
place = (17, 108);
place = (17, 108);
type = Stem;
},
{
place = (464, 100);
place = (464, 100);
type = Stem;
},
{
place = (17, 163);
place = (17, 163);
type = Stem;
},
{
place = (128, 104);
place = (128, 104);
type = Stem;
},
{
place = (542, 137);
place = (542, 137);
type = Stem;
}
);
layerId = m01;
shapes = (
{
closed = 1;
nodes = (
(52,-2,o),
(70,1,o),
(90,1,cs),
(111,1,o),
(140,-2,o),
(156,-2,cs),
(172,-2,o),
(180,5,o),
(180,18,cs),
(180,50,o),
(125,45,o),
(125,77,cs),
(125,89,o),
(126,96,o),
(129,121,cs),
(174,536,l),
(316,117,ls),
(320,103,o),
(327,96,o),
(341,96,cs),
(351,96,o),
(363,100,o),
(368,117,cs),
(493,536,l),
(540,107,ls),
(541,96,o),
(542,88,o),
(542,75,cs),
(542,43,o),
(494,48,o),
(494,18,cs),
(494,5,o),
(504,-2,o),
(519,-2,cs),
(538,-2,o),
(563,1,o),
(592,1,cs),
(625,1,o),
(644,-2,o),
(656,-2,cs),
(669,-2,o),
(679,4,o),
(679,17,cs),
(679,51,o),
(633,43,o),
(627,86,cs),
(570,588,ls),
(568,602,o),
(564,622,o),
(564,631,cs),
(564,672,o),
(605,657,o),
(605,690,cs),
(605,701,o),
(596,710,o),
(583,710,cs),
(567,710,o),
(540,707,o),
(514,707,cs),
(487,707,o),
(465,710,o),
(449,710,cs),
(437,710,o),
(425,702,o),
(425,688,cs),
(425,657,o),
(464,675,o),
(464,627,cs),
(464,611,o),
(459,590,o),
(448,553,cs),
(356,241,l),
(252,553,ls),
(240,590,o),
(232,611,o),
(232,626,cs),
(232,671,o),
(268,657,o),
(268,689,cs),
(268,700,o),
(260,710,o),
(245,710,cs),
(230,710,o),
(210,707,o),
(183,707,cs),
(155,707,o),
(127,710,o),
(111,710,cs),
(97,710,o),
(88,701,o),
(88,690,cs),
(88,657,o),
(128,672,o),
(128,629,cs),
(128,621,o),
(128,602,o),
(126,587,cs),
(72,87,ls),
(66,41,o),
(17,51,o),
(17,19,cs),
(17,5,o),
(26,-2,o),
(39,-2,cs)
);
}
);
width = 696;
}
);
note = M;
unicode = 77;
},
{
glyphname = N;
kernLeft = B;
kernRight = N;
layers = (
{
hints = (
{
horizontal = 1;
place = (-7, 21);
target = up;
type = BottomGhost;
},
{
horizontal = 1;
place = (709, -20);
target = down;
type = TopGhost;
},
{
place = (84, 55);
place = (84, 55);
type = Stem;
},
{
place = (432, 55);
place = (432, 55);
type = Stem;
},
{
horizontal = 1;
place = (-2, 21);
target = up;
type = BottomGhost;
}
);
layerId = m01;
shapes = (
{
closed = 1;
nodes = (
(475,-7,o),
(487,4,o),
(487,23,cs),
(487,613,ls),
(487,678,o),
(534,655,o),
(534,690,cs),
(534,700,o),
(527,710,o),
(511,710,cs),
(496,710,o),
(478,707,o),
(459,707,cs),
(437,707,o),
(417,710,o),
(401,710,cs),
(385,710,o),
(376,700,o),
(376,690,cs),
(376,651,o),
(432,678,o),
(432,613,cs),
(433,177,l),
(168,687,ls),
(159,703,o),
(150,708,o),
(137,708,cs),
(127,708,o),
(118,707,o),
(102,707,cs),
(85,707,o),
(73,709,o),
(62,709,cs),
(47,709,o),
(37,700,o),
(37,688,cs),
(37,653,o),
(84,678,o),
(84,612,cs),
(84,95,ls),
(84,29,o),
(37,53,o),
(37,18,cs),
(37,7,o),
(44,-2,o),
(59,-2,cs),
(75,-2,o),
(89,1,o),
(112,1,cs),
(139,1,o),
(156,-2,o),
(172,-2,cs),
(187,-2,o),
(196,6,o),
(196,19,cs),
(196,56,o),
(139,32,o),
(139,95,cs),
(138,564,l),
(424,17,ls),
(433,0,o),
(443,-7,o),
(458,-7,cs)
);
}
);
width = 566;
}
);
note = N;
unicode = 78;
},
{
glyphname = Nacute;
kernLeft = B;
kernRight = N;
layers = (
{
hints = (
{
horizontal = 1;
place = (-7, 21);
target = up;
type = BottomGhost;
},
{
horizontal = 1;
place = (709, -20);
target = down;
type = TopGhost;
},
{
place = (84, 55);
place = (84, 55);
type = Stem;
},
{
place = (432, 55);
place = (432, 55);
type = Stem;
},
{
horizontal = 1;
place = (-2, 21);
target = up;
type = BottomGhost;
}
);
layerId = m01;
shapes = (
{
closed = 1;
nodes = (
(475,-7,o),
(487,4,o),
(487,23,cs),
(487,613,ls),
(487,678,o),
(534,655,o),
(534,690,cs),
(534,700,o),
(527,710,o),
(511,710,cs),
(496,710,o),
(478,707,o),
(459,707,cs),
(437,707,o),
(417,710,o),
(401,710,cs),
(385,710,o),
(376,700,o),
(376,690,cs),
(376,651,o),
(432,678,o),
(432,613,cs),
(433,177,l),
(168,687,ls),
(159,703,o),
(150,708,o),
(137,708,cs),
(127,708,o),
(118,707,o),
(102,707,cs),
(85,707,o),
(73,709,o),
(62,709,cs),
(47,709,o),
(37,700,o),
(37,688,cs),
(37,653,o),
(84,678,o),
(84,612,cs),
(84,95,ls),
(84,29,o),
(37,53,o),
(37,18,cs),
(37,7,o),
(44,-2,o),
(59,-2,cs),
(75,-2,o),
(89,1,o),
(112,1,cs),
(139,1,o),
(156,-2,o),
(172,-2,cs),
(187,-2,o),
(196,6,o),
(196,19,cs),
(196,56,o),
(139,32,o),
(139,95,cs),
(138,564,l),
(424,17,ls),
(433,0,o),
(443,-7,o),
(458,-7,cs)
);
},
{
closed = 1;
nodes = (
(257,759,o),
(264,754,o),
(274,754,cs),
(284,754,o),
(292,756,o),
(305,775,cs),
(321,796,o),
(357,853,o),
(372,874,cs),
(386,895,o),
(397,911,o),
(397,921,cs),
(397,935,o),
(387,938,o),
(360,938,cs),
(337,938,o),
(330,934,o),
(321,918,cs),
(303,882,o),
(281,832,o),
(263,790,cs),
(260,783,o),
(257,773,o),
(257,767,cs)
);
}
);
width = 566;
}
);
note = Nacute;
unicode = 323;
},
{
glyphname = Ncaron;
kernLeft = B;
kernRight = N;
layers = (
{
hints = (
{
horizontal = 1;
place = (-7, 21);
target = up;
type = BottomGhost;
},
{
horizontal = 1;
place = (709, -20);
target = down;
type = TopGhost;
},
{
place = (84, 55);
place = (84, 55);
type = Stem;
},
{
place = (432, 55);
place = (432, 55);
type = Stem;
},
{
horizontal = 1;
place = (-2, 21);
target = up;
type = BottomGhost;
}
);
layerId = m01;
shapes = (
{
closed = 1;
nodes = (
(475,-7,o),
(487,4,o),
(487,23,cs),
(487,613,ls),
(487,678,o),
(534,655,o),
(534,690,cs),
(534,700,o),
(527,710,o),
(511,710,cs),
(496,710,o),
(478,707,o),
(459,707,cs),
(437,707,o),
(417,710,o),
(401,710,cs),
(385,710,o),
(376,700,o),
(376,690,cs),
(376,651,o),
(432,678,o),
(432,613,cs),
(433,177,l),
(168,687,ls),
(159,703,o),
(150,708,o),
(137,708,cs),
(127,708,o),
(118,707,o),
(102,707,cs),
(85,707,o),
(73,709,o),
(62,709,cs),
(47,709,o),
(37,700,o),
(37,688,cs),
(37,653,o),
(84,678,o),
(84,612,cs),
(84,95,ls),
(84,29,o),
(37,53,o),
(37,18,cs),
(37,7,o),
(44,-2,o),
(59,-2,cs),
(75,-2,o),
(89,1,o),
(112,1,cs),
(139,1,o),
(156,-2,o),
(172,-2,cs),
(187,-2,o),
(196,6,o),
(196,19,cs),
(196,56,o),
(139,32,o),
(139,95,cs),
(138,564,l),
(424,17,ls),
(433,0,o),
(443,-7,o),
(458,-7,cs)
);
},
{
closed = 1;
nodes = (
(174,920,o),
(177,913,o),
(182,902,cs),
(191,884,o),
(219,829,o),
(242,791,cs),
(254,772,o),
(262,766,o),
(284,766,cs),
(307,766,o),
(316,773,o),
(325,790,cs),
(349,831,o),
(364,861,o),
(387,903,cs),
(392,914,o),
(395,920,o),
(395,929,cs),
(395,939,o),
(387,945,o),
(376,945,cs),
(367,945,o),
(359,940,o),
(347,923,cs),
(284,832,l),
(221,923,ls),
(210,939,o),
(202,945,o),
(192,945,cs),
(181,945,o),
(174,939,o),
(174,929,cs)
);
}
);
width = 566;
}
);
note = Ncaron;
unicode = 327;
},
{
glyphname = uni0145;
kernLeft = B;
kernRight = N;
layers = (
{
hints = (
{
horizontal = 1;
place = (-7, 21);
target = up;
type = BottomGhost;
},
{
horizontal = 1;
place = (709, -20);
target = down;
type = TopGhost;
},
{
place = (84, 55);
place = (84, 55);
type = Stem;
},
{
place = (280, 67);
place = (280, 67);
type = Stem;
},
{
place = (432, 55);
place = (432, 55);
type = Stem;
},
{
horizontal = 1;
place = (-2, 21);
target = up;
type = BottomGhost;
},
{
place = (240, 107);
place = (240, 107);
type = Stem;
}
);
layerId = m01;
shapes = (
{
closed = 1;
nodes = (
(475,-7,o),
(487,4,o),
(487,23,cs),
(487,613,ls),
(487,678,o),
(534,655,o),
(534,690,cs),
(534,700,o),
(527,710,o),
(511,710,cs),
(496,710,o),
(478,707,o),
(459,707,cs),
(437,707,o),
(417,710,o),
(401,710,cs),
(385,710,o),
(376,700,o),
(376,690,cs),
(376,651,o),
(432,678,o),
(432,613,cs),
(433,177,l),
(168,687,ls),
(159,703,o),
(150,708,o),
(137,708,cs),
(127,708,o),
(118,707,o),
(102,707,cs),
(85,707,o),
(73,709,o),
(62,709,cs),
(47,709,o),
(37,700,o),
(37,688,cs),
(37,653,o),
(84,678,o),
(84,612,cs),
(84,95,ls),
(84,29,o),
(37,53,o),
(37,18,cs),
(37,7,o),
(44,-2,o),
(59,-2,cs),
(75,-2,o),
(89,1,o),
(112,1,cs),
(139,1,o),
(156,-2,o),
(172,-2,cs),
(187,-2,o),
(196,6,o),
(196,19,cs),
(196,56,o),
(139,32,o),
(139,95,cs),
(138,564,l),
(424,17,ls),
(433,0,o),
(443,-7,o),
(458,-7,cs)
);
},
{
closed = 1;
nodes = (
(238,-226,o),
(246,-233,o),
(256,-233,cs),
(288,-233,o),
(347,-172,o),
(347,-100,cs),
(347,-61,o),
(324,-41,o),
(292,-41,cs),
(262,-41,o),
(240,-61,o),
(240,-89,cs),
(240,-107,o),
(248,-116,o),
(259,-124,cs),
(270,-133,o),
(280,-139,o),
(280,-152,cs),
(280,-173,o),
(264,-186,o),
(252,-196,cs),
(244,-203,o),
(238,-209,o),
(238,-217,cs)
);
}
);
width = 566;
}
);
note = uni0145;
unicode = 325;
},
{
glyphname = Eng;
kernLeft = B;
kernRight = N;
layers = (
{
hints = (
{
horizontal = 1;
place = (-191, 56);
place = (-191, 56);
type = Stem;
},
{
horizontal = 1;
place = (-2, 21);
target = up;
type = BottomGhost;
},
{
horizontal = 1;
place = (710, -20);
target = down;
type = TopGhost;
},
{
place = (85, 53);
place = (85, 53);
type = Stem;
},
{
place = (431, 53);
place = (431, 53);
type = Stem;
},
{
horizontal = 1;
place = (709, -20);
target = down;
type = TopGhost;
},
{
place = (321, 163);
place = (321, 163);
type = Stem;
}
);
layerId = m01;
shapes = (
{
closed = 1;
nodes = (
(424,-191,o),
(484,-145,o),
(484,-31,cs),
(484,613,ls),
(484,679,o),
(531,654,o),
(531,692,cs),
(531,702,o),
(524,710,o),
(510,710,cs),
(493,710,o),
(475,707,o),
(456,707,cs),
(434,707,o),
(415,710,o),
(397,710,cs),
(384,710,o),
(375,702,o),
(375,692,cs),
(375,649,o),
(431,678,o),
(431,613,cs),
(432,172,l),
(166,687,ls),
(157,703,o),
(148,708,o),
(135,708,cs),
(126,708,o),
(118,707,o),
(102,707,cs),
(85,707,o),
(73,709,o),
(59,709,cs),
(45,709,o),
(37,700,o),
(37,690,cs),
(37,653,o),
(85,678,o),
(85,612,cs),
(85,95,ls),
(85,29,o),
(37,54,o),
(37,17,cs),
(37,7,o),
(44,-2,o),
(58,-2,cs),
(75,-2,o),
(97,1,o),
(112,1,cs),
(131,1,o),
(155,-2,o),
(172,-2,cs),
(187,-2,o),
(194,6,o),
(194,16,cs),
(194,59,o),
(138,30,o),
(138,95,cs),
(137,569,l),
(432,2,l),
(432,-46,ls),
(432,-105,o),
(414,-135,o),
(394,-135,cs),
(384,-135,o),
(374,-123,o),
(361,-84,cs),
(357,-71,o),
(352,-66,o),
(344,-66,cs),
(327,-66,o),
(321,-96,o),
(321,-137,cs),
(321,-172,o),
(331,-191,o),
(362,-191,cs)
);
}
);
width = 563;
}
);
note = Eng;
unicode = 330;
},
{
glyphname = Ntilde;
kernLeft = B;
kernRight = N;
layers = (
{
hints = (
{
horizontal = 1;
place = (-7, 21);
target = up;
type = BottomGhost;
},
{
horizontal = 1;
place = (709, -20);
target = down;
type = TopGhost;
},
{
horizontal = 1;
place = (776, 60);
place = (776, 60);
type = Stem;
},
{
horizontal = 1;
place = (855, 60);
place = (855, 60);
type = Stem;
},
{
place = (84, 55);
place = (84, 55);
type = Stem;
},
{
place = (432, 55);
place = (432, 55);
type = Stem;
},
{
horizontal = 1;
place = (-2, 21);
target = up;
type = BottomGhost;
}
);
layerId = m01;
shapes = (
{
closed = 1;
nodes = (
(475,-7,o),
(487,4,o),
(487,23,cs),
(487,613,ls),
(487,678,o),
(534,655,o),
(534,690,cs),
(534,700,o),
(527,710,o),
(511,710,cs),
(496,710,o),
(478,707,o),
(459,707,cs),
(437,707,o),
(417,710,o),
(401,710,cs),
(385,710,o),
(376,700,o),
(376,690,cs),
(376,651,o),
(432,678,o),
(432,613,cs),
(433,177,l),
(168,687,ls),
(159,703,o),
(150,708,o),
(137,708,cs),
(127,708,o),
(118,707,o),
(102,707,cs),
(85,707,o),
(73,709,o),
(62,709,cs),
(47,709,o),
(37,700,o),
(37,688,cs),
(37,653,o),
(84,678,o),
(84,612,cs),
(84,95,ls),
(84,29,o),
(37,53,o),
(37,18,cs),
(37,7,o),
(44,-2,o),
(59,-2,cs),
(75,-2,o),
(89,1,o),
(112,1,cs),
(139,1,o),
(156,-2,o),
(172,-2,cs),
(187,-2,o),
(196,6,o),
(196,19,cs),
(196,56,o),
(139,32,o),
(139,95,cs),
(138,564,l),
(424,17,ls),
(433,0,o),
(443,-7,o),
(458,-7,cs)
);
},
{
closed = 1;
nodes = (
(164,791,o),
(171,784,o),
(181,784,cs),
(192,784,o),
(196,796,o),
(204,819,cs),
(214,847,o),
(224,855,o),
(232,855,cs),
(253,855,o),
(289,776,o),
(334,776,cs),
(373,776,o),
(392,818,o),
(402,856,cs),
(406,871,o),
(407,882,o),
(407,887,cs),
(407,899,o),
(400,906,o),
(390,906,cs),
(377,906,o),
(371,891,o),
(365,873,cs),
(357,847,o),
(348,836,o),
(339,836,cs),
(310,836,o),
(281,915,o),
(236,915,cs),
(199,915,o),
(177,868,o),
(169,835,cs),
(165,819,o),
(164,810,o),
(164,805,cs)
);
}
);
width = 566;
}
);
note = Ntilde;
unicode = 209;
},
{
glyphname = O;
kernLeft = O;
kernRight = Dcroat;
layers = (
{
hints = (
{
horizontal = 1;
place = (-14, 57);
place = (-14, 57);
type = Stem;
},
{
horizontal = 1;
place = (668, 54);
place = (668, 54);
type = Stem;
},
{
place = (35, 95);
place = (35, 95);
type = Stem;
},
{
place = (459, 96);
place = (459, 96);
type = Stem;
}
);
layerId = m01;
shapes = (
{
closed = 1;
nodes = (
(442,-14,o),
(555,133,o),
(555,347,cs),
(555,550,o),
(447,722,o),
(294,722,cs),
(146,722,o),
(35,552,o),
(35,346,cs),
(35,132,o),
(150,-14,o),
(294,-14,cs)
);
},
{
closed = 1;
nodes = (
(130,530,o),
(194,668,o),
(294,668,cs),
(396,668,o),
(459,529,o),
(459,355,cs),
(459,180,o),
(396,43,o),
(295,43,cs),
(193,43,o),
(130,184,o),
(130,356,cs)
);
}
);
width = 589;
}
);
note = O;
unicode = 79;
},
{
glyphname = Oacute;
kernLeft = O;
kernRight = Dcroat;
layers = (
{
hints = (
{
horizontal = 1;
place = (-14, 57);
place = (-14, 57);
type = Stem;
},
{
horizontal = 1;
place = (668, 54);
place = (668, 54);
type = Stem;
},
{
place = (35, 95);
place = (35, 95);
type = Stem;
},
{
place = (459, 96);
place = (459, 96);
type = Stem;
}
);
layerId = m01;
shapes = (
{
closed = 1;
nodes = (
(442,-14,o),
(555,133,o),
(555,347,cs),
(555,550,o),
(447,722,o),
(294,722,cs),
(146,722,o),
(35,552,o),
(35,346,cs),
(35,132,o),
(150,-14,o),
(294,-14,cs)
);
},
{
closed = 1;
nodes = (
(130,530,o),
(194,668,o),
(294,668,cs),
(396,668,o),
(459,529,o),
(459,355,cs),
(459,180,o),
(396,43,o),
(295,43,cs),
(193,43,o),
(130,184,o),
(130,356,cs)
);
},
{
closed = 1;
nodes = (
(265,766,o),
(272,761,o),
(282,761,cs),
(292,761,o),
(300,763,o),
(313,782,cs),
(329,803,o),
(365,860,o),
(380,881,cs),
(394,902,o),
(405,918,o),
(405,928,cs),
(405,942,o),
(395,945,o),
(368,945,cs),
(345,945,o),
(338,941,o),
(329,925,cs),
(311,889,o),
(289,839,o),
(271,797,cs),
(268,790,o),
(265,780,o),
(265,774,cs)
);
}
);
width = 589;
}
);
note = Oacute;
unicode = 211;
},
{
glyphname = Obreve;
kernLeft = O;
kernRight = Dcroat;
layers = (
{
hints = (
{
horizontal = 1;
place = (-14, 57);
place = (-14, 57);
type = Stem;
},
{
horizontal = 1;
place = (668, 54);
place = (668, 54);
type = Stem;
},
{
horizontal = 1;
place = (774, 61);
place = (774, 61);
type = Stem;
},
{
place = (35, 95);
place = (35, 95);
type = Stem;
},
{
place = (459, 96);
place = (459, 96);
type = Stem;
}
);
layerId = m01;
shapes = (
{
closed = 1;
nodes = (
(442,-14,o),
(555,133,o),
(555,347,cs),
(555,550,o),
(447,722,o),
(294,722,cs),
(146,722,o),
(35,552,o),
(35,346,cs),
(35,132,o),
(150,-14,o),
(294,-14,cs)
);
},
{
closed = 1;
nodes = (
(130,530,o),
(194,668,o),
(294,668,cs),
(396,668,o),
(459,529,o),
(459,355,cs),
(459,180,o),
(396,43,o),
(295,43,cs),
(193,43,o),
(130,184,o),
(130,356,cs)
);
},
{
closed = 1;
nodes = (
(185,910,o),
(186,896,o),
(191,874,cs),
(207,808,o),
(244,774,o),
(294,774,cs),
(343,774,o),
(376,807,o),
(394,874,cs),
(399,894,o),
(402,911,o),
(402,921,cs),
(402,934,o),
(396,943,o),
(384,943,cs),
(368,943,o),
(360,924,o),
(354,903,cs),
(341,859,o),
(326,835,o),
(294,835,cs),
(262,835,o),
(245,857,o),
(232,902,cs),
(225,926,o),
(219,943,o),
(205,943,cs),
(193,943,o),
(185,933,o),
(185,920,cs)
);
}
);
width = 589;
}
);
note = Obreve;
unicode = 334;
},
{
glyphname = Ocircumflex;
kernLeft = O;
kernRight = Dcroat;
layers = (
{
hints = (
{
horizontal = 1;
place = (-14, 57);
place = (-14, 57);
type = Stem;
},
{
horizontal = 1;
place = (668, 54);
place = (668, 54);
type = Stem;
},
{
place = (35, 95);
place = (35, 95);
type = Stem;
},
{
place = (459, 96);
place = (459, 96);
type = Stem;
}
);
layerId = m01;
shapes = (
{
closed = 1;
nodes = (
(442,-14,o),
(555,133,o),
(555,347,cs),
(555,550,o),
(447,722,o),
(294,722,cs),
(146,722,o),
(35,552,o),
(35,346,cs),
(35,132,o),
(150,-14,o),
(294,-14,cs)
);
},
{
closed = 1;
nodes = (
(130,530,o),
(194,668,o),
(294,668,cs),
(396,668,o),
(459,529,o),
(459,355,cs),
(459,180,o),
(396,43,o),
(295,43,cs),
(193,43,o),
(130,184,o),
(130,356,cs)
);
},
{
closed = 1;
nodes = (
(183,775,o),
(191,769,o),
(202,769,cs),
(211,769,o),
(219,774,o),
(231,791,cs),
(294,882,l),
(357,791,ls),
(368,775,o),
(376,769,o),
(386,769,cs),
(397,769,o),
(404,775,o),
(404,785,cs),
(404,794,o),
(401,801,o),
(396,812,cs),
(387,830,o),
(359,885,o),
(336,923,cs),
(324,942,o),
(316,948,o),
(294,948,cs),
(271,948,o),
(262,941,o),
(253,924,cs),
(229,883,o),
(214,853,o),
(191,811,cs),
(186,800,o),
(183,794,o),
(183,785,cs)
);
}
);
width = 589;
}
);
note = Ocircumflex;
unicode = 212;
},
{
glyphname = Odieresis;
kernLeft = O;
kernRight = Dcroat;
layers = (
{
hints = (
{
horizontal = 1;
place = (-14, 57);
place = (-14, 57);
type = Stem;
},
{
horizontal = 1;
place = (668, 54);
place = (668, 54);
type = Stem;
},
{
horizontal = 1;
place = (795, 105);
place = (795, 105);
type = Stem;
},
{
place = (35, 95);
place = (35, 95);
type = Stem;
},
{
place = (159, 113);
place = (159, 113);
type = Stem;
},
{
place = (314, 114);
place = (314, 114);
type = Stem;
},
{
place = (459, 96);
place = (459, 96);
type = Stem;
}
);
layerId = m01;
shapes = (
{
closed = 1;
nodes = (
(442,-14,o),
(555,133,o),
(555,347,cs),
(555,550,o),
(447,722,o),
(294,722,cs),
(146,722,o),
(35,552,o),
(35,346,cs),
(35,132,o),
(150,-14,o),
(294,-14,cs)
);
},
{
closed = 1;
nodes = (
(130,530,o),
(194,668,o),
(294,668,cs),
(396,668,o),
(459,529,o),
(459,355,cs),
(459,180,o),
(396,43,o),
(295,43,cs),
(193,43,o),
(130,184,o),
(130,356,cs)
);
},
{
closed = 1;
nodes = (
(159,815,o),
(182,795,o),
(216,795,cs),
(249,795,o),
(272,816,o),
(272,848,cs),
(272,880,o),
(249,900,o),
(216,900,cs),
(182,900,o),
(159,875,o),
(159,846,cs)
);
},
{
closed = 1;
nodes = (
(314,815,o),
(336,795,o),
(371,795,cs),
(404,795,o),
(428,816,o),
(428,848,cs),
(428,880,o),
(404,900,o),
(371,900,cs),
(336,900,o),
(314,875,o),
(314,846,cs)
);
}
);
width = 589;
}
);
note = Odieresis;
unicode = 214;
},
{
glyphname = Ograve;
kernLeft = O;
kernRight = Dcroat;
layers = (
{
hints = (
{
horizontal = 1;
place = (-14, 57);
place = (-14, 57);
type = Stem;
},
{
horizontal = 1;
place = (668, 54);
place = (668, 54);
type = Stem;
},
{
place = (35, 95);
place = (35, 95);
type = Stem;
},
{
place = (459, 96);
place = (459, 96);
type = Stem;
}
);
layerId = m01;
shapes = (
{
closed = 1;
nodes = (
(442,-14,o),
(555,133,o),
(555,347,cs),
(555,550,o),
(447,722,o),
(294,722,cs),
(146,722,o),
(35,552,o),
(35,346,cs),
(35,132,o),
(150,-14,o),
(294,-14,cs)
);
},
{
closed = 1;
nodes = (
(130,530,o),
(194,668,o),
(294,668,cs),
(396,668,o),
(459,529,o),
(459,355,cs),
(459,180,o),
(396,43,o),
(295,43,cs),
(193,43,o),
(130,184,o),
(130,356,cs)
);
},
{
closed = 1;
nodes = (
(183,918,o),
(191,906,o),
(207,882,cs),
(219,866,o),
(257,805,o),
(274,782,cs),
(287,763,o),
(295,761,o),
(305,761,cs),
(315,761,o),
(322,766,o),
(322,774,cs),
(322,779,o),
(320,787,o),
(315,798,cs),
(294,851,o),
(278,889,o),
(257,926,cs),
(249,941,o),
(243,946,o),
(220,946,cs),
(191,946,o),
(183,943,o),
(183,928,cs)
);
}
);
width = 589;
}
);
note = Ograve;
unicode = 210;
},
{
glyphname = Ohungarumlaut;
kernLeft = O;
kernRight = Dcroat;
layers = (
{
hints = (
{
horizontal = 1;
place = (-14, 57);
place = (-14, 57);
type = Stem;
},
{
horizontal = 1;
place = (668, 54);
place = (668, 54);
type = Stem;
},
{
place = (35, 95);
place = (35, 95);
type = Stem;
},
{
place = (459, 96);
place = (459, 96);
type = Stem;
}
);
layerId = m01;
shapes = (
{
closed = 1;
nodes = (
(442,-14,o),
(555,133,o),
(555,347,cs),
(555,550,o),
(447,722,o),
(294,722,cs),
(146,722,o),
(35,552,o),
(35,346,cs),
(35,132,o),
(150,-14,o),
(294,-14,cs)
);
},
{
closed = 1;
nodes = (
(130,530,o),
(194,668,o),
(294,668,cs),
(396,668,o),
(459,529,o),
(459,355,cs),
(459,180,o),
(396,43,o),
(295,43,cs),
(193,43,o),
(130,184,o),
(130,356,cs)
);
},
{
closed = 1;
nodes = (
(225,759,o),
(232,754,o),
(240,754,cs),
(249,754,o),
(256,757,o),
(265,774,cs),
(286,817,o),
(300,847,o),
(316,882,cs),
(325,901,o),
(334,914,o),
(334,927,cs),
(334,941,o),
(323,946,o),
(303,946,cs),
(285,946,o),
(276,942,o),
(270,924,cs),
(258,890,o),
(240,836,o),
(230,795,cs),
(227,783,o),
(225,773,o),
(225,768,cs)
);
},
{
closed = 1;
nodes = (
(334,759,o),
(339,754,o),
(348,754,cs),
(357,754,o),
(365,757,o),
(375,775,cs),
(399,822,o),
(411,850,o),
(426,883,cs),
(436,903,o),
(443,916,o),
(443,927,cs),
(443,940,o),
(434,946,o),
(413,946,cs),
(394,946,o),
(386,941,o),
(379,923,cs),
(363,881,o),
(349,826,o),
(339,794,cs),
(337,787,o),
(334,773,o),
(334,768,cs)
);
}
);
width = 589;
}
);
note = Ohungarumlaut;
unicode = 336;
},
{
glyphname = Omacron;
kernLeft = O;
kernRight = Dcroat;
layers = (
{
hints = (
{
horizontal = 1;
place = (-14, 57);
place = (-14, 57);
type = Stem;
},
{
horizontal = 1;
place = (668, 54);
place = (668, 54);
type = Stem;
},
{
horizontal = 1;
place = (820, 59);
place = (820, 59);
type = Stem;
},
{
place = (35, 95);
place = (35, 95);
type = Stem;
},
{
place = (459, 96);
place = (459, 96);
type = Stem;
}
);
layerId = m01;
shapes = (
{
closed = 1;
nodes = (
(442,-14,o),
(555,133,o),
(555,347,cs),
(555,550,o),
(447,722,o),
(294,722,cs),
(146,722,o),
(35,552,o),
(35,346,cs),
(35,132,o),
(150,-14,o),
(294,-14,cs)
);
},
{
closed = 1;
nodes = (
(130,530,o),
(194,668,o),
(294,668,cs),
(396,668,o),
(459,529,o),
(459,355,cs),
(459,180,o),
(396,43,o),
(295,43,cs),
(193,43,o),
(130,184,o),
(130,356,cs)
);
},
{
closed = 1;
nodes = (
(179,831,o),
(186,820,o),
(201,820,cs),
(216,820,o),
(273,821,o),
(294,821,cs),
(385,820,ls),
(401,820,o),
(407,831,o),
(407,850,cs),
(407,869,o),
(401,880,o),
(385,880,cs),
(370,880,o),
(313,879,o),
(293,879,cs),
(201,880,ls),
(186,880,o),
(179,870,o),
(179,850,cs)
);
}
);
width = 589;
}
);
note = Omacron;
unicode = 332;
},
{
glyphname = Oslash;
kernLeft = O;
kernRight = Dcroat;
layers = (
{
hints = (
{
horizontal = 1;
place = (-7, 21);
target = up;
type = BottomGhost;
},
{
horizontal = 1;
place = (714, -20);
target = down;
type = TopGhost;
},
{
place = (41, 95);
place = (41, 95);
type = Stem;
},
{
place = (465, 96);
place = (465, 96);
type = Stem;
},
{
horizontal = 1;
place = (-14, 57);
place = (-14, 57);
type = Stem;
},
{
horizontal = 1;
place = (668, 54);
place = (668, 54);
type = Stem;
}
);
layerId = m01;
shapes = (
{
closed = 1;
nodes = (
(62,-7,o),
(67,-3,o),
(71,3,cs),
(123,77,l),
(169,19,o),
(231,-14,o),
(300,-14,cs),
(448,-14,o),
(561,133,o),
(561,347,cs),
(561,446,o),
(535,538,o),
(491,606,c),
(534,667,ls),
(540,677,o),
(545,683,o),
(545,690,cs),
(545,703,o),
(530,714,o),
(520,714,cs),
(513,714,o),
(508,711,o),
(503,704,cs),
(462,644,l),
(418,693,o),
(363,722,o),
(300,722,cs),
(152,722,o),
(41,552,o),
(41,346,cs),
(41,256,o),
(61,178,o),
(96,118,c),
(40,39,ls),
(34,31,o),
(30,23,o),
(30,17,cs),
(30,4,o),
(44,-7,o),
(54,-7,cs)
);
},
{
closed = 1;
nodes = (
(136,530,o),
(200,668,o),
(300,668,cs),
(350,668,o),
(390,635,o),
(418,581,c),
(155,202,l),
(143,248,o),
(136,300,o),
(136,356,cs)
);
},
{
closed = 1;
nodes = (
(439,532,l),
(456,482,o),
(465,421,o),
(465,355,cs),
(465,180,o),
(402,43,o),
(301,43,cs),
(246,43,o),
(202,85,o),
(173,150,c)
);
}
);
width = 598;
}
);
note = Oslash;
unicode = 216;
},
{
glyphname = Otilde;
kernLeft = O;
kernRight = Dcroat;
layers = (
{
hints = (
{
horizontal = 1;
place = (-14, 57);
place = (-14, 57);
type = Stem;
},
{
horizontal = 1;
place = (668, 54);
place = (668, 54);
type = Stem;
},
{
horizontal = 1;
place = (783, 60);
place = (783, 60);
type = Stem;
},
{
horizontal = 1;
place = (862, 60);
place = (862, 60);
type = Stem;
},
{
place = (35, 95);
place = (35, 95);
type = Stem;
},
{
place = (459, 96);
place = (459, 96);
type = Stem;
}
);
layerId = m01;
shapes = (
{
closed = 1;
nodes = (
(442,-14,o),
(555,133,o),
(555,347,cs),
(555,550,o),
(447,722,o),
(294,722,cs),
(146,722,o),
(35,552,o),
(35,346,cs),
(35,132,o),
(150,-14,o),
(294,-14,cs)
);
},
{
closed = 1;
nodes = (
(130,530,o),
(194,668,o),
(294,668,cs),
(396,668,o),
(459,529,o),
(459,355,cs),
(459,180,o),
(396,43,o),
(295,43,cs),
(193,43,o),
(130,184,o),
(130,356,cs)
);
},
{
closed = 1;
nodes = (
(173,798,o),
(180,791,o),
(190,791,cs),
(201,791,o),
(205,803,o),
(213,826,cs),
(223,854,o),
(233,862,o),
(241,862,cs),
(262,862,o),
(298,783,o),
(343,783,cs),
(382,783,o),
(401,825,o),
(411,863,cs),
(415,878,o),
(416,889,o),
(416,894,cs),
(416,906,o),
(409,913,o),
(399,913,cs),
(386,913,o),
(380,898,o),
(374,880,cs),
(366,854,o),
(357,843,o),
(348,843,cs),
(319,843,o),
(290,922,o),
(245,922,cs),
(208,922,o),
(186,875,o),
(178,842,cs),
(174,826,o),
(173,817,o),
(173,812,cs)
);
}
);
width = 589;
}
);
note = Otilde;
unicode = 213;
},
{
glyphname = OE;
kernLeft = O;
kernRight = AE;
layers = (
{
hints = (
{
horizontal = 1;
place = (-15, 56);
place = (-15, 56);
type = Stem;
},
{
horizontal = 1;
place = (335, 49);
place = (335, 49);
type = Stem;
},
{
horizontal = 1;
place = (667, 55);
place = (667, 55);
type = Stem;
},
{
place = (35, 95);
place = (35, 95);
type = Stem;
},
{
place = (415, 84);
place = (415, 84);
type = Stem;
},
{
horizontal = 1;
place = (0, 49);
place = (0, 49);
type = Stem;
},
{
horizontal = 1;
place = (659, 49);
place = (659, 49);
type = Stem;
}
);
layerId = m01;
shapes = (
{
closed = 1;
nodes = (
(740,-21,o),
(748,-5,o),
(756,17,cs),
(785,101,ls),
(799,140,o),
(805,159,o),
(805,173,cs),
(805,184,o),
(798,192,o),
(788,192,cs),
(779,192,o),
(771,183,o),
(760,167,cs),
(710,92,o),
(682,49,o),
(622,49,cs),
(552,49,ls),
(500,49,o),
(499,67,o),
(499,98,cs),
(499,314,ls),
(499,331,o),
(506,335,o),
(520,335,cs),
(578,335,ls),
(622,335,o),
(619,260,o),
(644,260,cs),
(654,260,o),
(662,266,o),
(662,286,cs),
(662,307,o),
(659,334,o),
(659,360,cs),
(659,385,o),
(662,410,o),
(662,433,cs),
(662,453,o),
(654,460,o),
(644,460,cs),
(619,460,o),
(622,384,o),
(578,384,cs),
(520,384,ls),
(506,384,o),
(499,388,o),
(499,406,cs),
(499,610,ls),
(499,651,o),
(511,659,o),
(552,659,cs),
(598,659,ls),
(655,659,o),
(682,625,o),
(733,548,cs),
(744,533,o),
(750,524,o),
(762,524,cs),
(770,524,o),
(778,531,o),
(778,543,cs),
(778,555,o),
(773,573,o),
(760,609,cs),
(734,680,ls),
(723,708,o),
(717,728,o),
(700,728,cs),
(684,728,o),
(682,708,o),
(659,708,cs),
(460,708,ls),
(407,708,o),
(374,722,o),
(306,722,cs),
(146,722,o),
(35,548,o),
(35,340,cs),
(35,132,o),
(147,-15,o),
(309,-15,cs),
(374,-15,o),
(407,0,o),
(460,0,cs),
(680,0,ls),
(704,0,o),
(708,-21,o),
(726,-21,cs)
);
},
{
closed = 1;
nodes = (
(130,528,o),
(194,667,o),
(305,667,cs),
(377,667,o),
(415,620,o),
(415,554,cs),
(415,135,ls),
(415,73,o),
(369,41,o),
(309,41,cs),
(194,41,o),
(130,178,o),
(130,352,cs)
);
}
);
width = 816;
}
);
note = OE;
unicode = 338;
},
{
glyphname = P;
kernLeft = B;
kernRight = P;
layers = (
{
hints = (
{
horizontal = 1;
place = (-2, 21);
target = up;
type = BottomGhost;
},
{
horizontal = 1;
place = (232, 49);
place = (232, 49);
type = Stem;
},
{
horizontal = 1;
place = (664, 49);
place = (664, 49);
type = Stem;
},
{
place = (84, 85);
place = (84, 85);
type = Stem;
},
{
place = (368, 94);
place = (368, 94);
type = Stem;
},
{
horizontal = 1;
place = (710, -20);
target = down;
type = TopGhost;
}
);
layerId = m01;
shapes = (
{
closed = 1;
nodes = (
(77,-2,o),
(95,1,o),
(126,1,cs),
(158,1,o),
(189,-2,o),
(202,-2,cs),
(216,-2,o),
(226,6,o),
(226,19,cs),
(226,55,o),
(169,32,o),
(169,97,cs),
(169,223,ls),
(169,243,o),
(176,232,o),
(236,232,cs),
(397,232,o),
(462,328,o),
(462,472,cs),
(462,624,o),
(374,713,o),
(233,713,cs),
(203,713,o),
(154,707,o),
(125,707,cs),
(95,707,o),
(76,710,o),
(60,710,cs),
(46,710,o),
(39,702,o),
(39,693,cs),
(39,654,o),
(84,680,o),
(84,614,cs),
(84,95,ls),
(84,31,o),
(39,52,o),
(39,18,cs),
(39,6,o),
(49,-2,o),
(62,-2,cs)
);
},
{
closed = 1;
nodes = (
(169,612,ls),
(169,631,o),
(169,664,o),
(225,664,cs),
(308,664,o),
(368,598,o),
(368,469,cs),
(368,356,o),
(327,281,o),
(226,281,cs),
(188,281,o),
(169,292,o),
(169,323,cs)
);
}
);
width = 481;
}
);
note = P;
unicode = 80;
},
{
glyphname = Thorn;
kernLeft = B;
kernRight = Thorn;
layers = (
{
hints = (
{
horizontal = 1;
place = (124, 49);
place = (124, 49);
type = Stem;
},
{
horizontal = 1;
place = (555, 49);
place = (555, 49);
type = Stem;
},
{
place = (84, 85);
place = (84, 85);
type = Stem;
},
{
place = (368, 94);
place = (368, 94);
type = Stem;
},
{
horizontal = 1;
place = (555, 155);
place = (555, 155);
type = Stem;
},
{
horizontal = 1;
place = (-2, 175);
place = (-2, 175);
type = Stem;
}
);
layerId = m01;
shapes = (
{
closed = 1;
nodes = (
(397,124,o),
(462,219,o),
(462,363,cs),
(462,515,o),
(382,604,o),
(236,604,cs),
(216,604,o),
(192,602,o),
(169,598,c),
(169,610,ls),
(169,679,o),
(226,651,o),
(226,692,cs),
(226,701,o),
(220,710,o),
(206,710,cs),
(188,710,o),
(160,707,o),
(126,707,cs),
(95,707,o),
(75,710,o),
(58,710,cs),
(45,710,o),
(39,701,o),
(39,692,cs),
(39,654,o),
(84,679,o),
(84,613,cs),
(84,95,ls),
(84,29,o),
(39,54,o),
(39,16,cs),
(39,7,o),
(45,-2,o),
(58,-2,cs),
(75,-2,o),
(95,1,o),
(126,1,cs),
(160,1,o),
(188,-2,o),
(206,-2,cs),
(220,-2,o),
(226,7,o),
(226,16,cs),
(226,57,o),
(169,29,o),
(169,97,cs),
(169,128,l),
(190,125,o),
(212,124,o),
(234,124,cs)
);
},
{
closed = 1;
nodes = (
(169,504,ls),
(169,522,o),
(169,555,o),
(230,555,cs),
(317,555,o),
(368,489,o),
(368,360,cs),
(368,247,o),
(327,173,o),
(226,173,cs),
(188,173,o),
(169,183,o),
(169,214,cs)
);
}
);
width = 493;
}
);
note = Thorn;
unicode = 222;
},
{
glyphname = Q;
kernLeft = O;
kernRight = Dcroat;
layers = (
{
hints = (
{
horizontal = 1;
place = (-120, 88);
place = (-120, 88);
type = Stem;
},
{
horizontal = 1;
place = (-14, 57);
place = (-14, 57);
type = Stem;
},
{
horizontal = 1;
place = (187, 49);
place = (187, 49);
type = Stem;
},
{
horizontal = 1;
place = (668, 54);
place = (668, 54);
type = Stem;
},
{
place = (35, 95);
place = (35, 95);
type = Stem;
},
{
place = (460, 95);
place = (460, 95);
type = Stem;
}
);
layerId = m01;
shapes = (
{
closed = 1;
nodes = (
(501,-120,o),
(518,-110,o),
(542,-72,cs),
(564,-38,o),
(572,-17,o),
(572,-2,cs),
(572,9,o),
(566,17,o),
(555,17,cs),
(536,17,o),
(514,-32,o),
(488,-32,cs),
(466,-32,o),
(450,-6,o),
(434,38,c),
(508,99,o),
(555,210,o),
(555,347,cs),
(555,550,o),
(447,722,o),
(294,722,cs),
(146,722,o),
(35,552,o),
(35,346,cs),
(35,132,o),
(150,-14,o),
(294,-14,cs),
(325,-14,o),
(355,-7,o),
(382,5,c),
(400,-70,o),
(436,-120,o),
(482,-120,cs)
);
},
{
closed = 1;
nodes = (
(130,530,o),
(194,668,o),
(294,668,cs),
(396,668,o),
(460,529,o),
(460,355,cs),
(460,252,o),
(442,170,o),
(410,116,c),
(386,203,o),
(355,236,o),
(306,236,cs),
(265,236,o),
(226,194,o),
(226,171,cs),
(226,160,o),
(233,153,o),
(243,153,cs),
(257,153,o),
(270,187,o),
(298,187,cs),
(330,187,o),
(349,158,o),
(369,68,c),
(348,52,o),
(324,43,o),
(297,43,cs),
(193,43,o),
(130,184,o),
(130,356,cs)
);
}
);
width = 609;
}
);
note = Q;
unicode = 81;
},
{
glyphname = R;
kernLeft = B;
kernRight = R;
layers = (
{
hints = (
{
horizontal = 1;
place = (-2, 21);
target = up;
type = BottomGhost;
},
{
horizontal = 1;
place = (264, 46);
place = (264, 46);
type = Stem;
},
{
horizontal = 1;
place = (710, -20);
target = down;
type = TopGhost;
},
{
place = (84, 85);
place = (84, 85);
type = Stem;
},
{
place = (378, 94);
place = (378, 94);
type = Stem;
},
{
horizontal = 1;
place = (664, 49);
place = (664, 49);
type = Stem;
}
);
layerId = m01;
shapes = (
{
closed = 1;
nodes = (
(77,-2,o),
(95,1,o),
(126,1,cs),
(157,1,o),
(179,-2,o),
(193,-2,cs),
(205,-2,o),
(216,6,o),
(216,18,cs),
(216,52,o),
(169,31,o),
(169,95,cs),
(169,243,ls),
(169,257,o),
(173,265,o),
(186,264,cs),
(215,262,o),
(231,263,o),
(251,264,cs),
(262,265,o),
(271,260,o),
(279,244,cs),
(349,106,ls),
(355,93,o),
(362,82,o),
(362,71,cs),
(362,40,o),
(327,46,o),
(327,18,cs),
(327,6,o),
(334,-2,o),
(350,-2,cs),
(368,-2,o),
(394,1,o),
(422,1,cs),
(452,1,o),
(480,-2,o),
(493,-2,cs),
(506,-2,o),
(517,6,o),
(517,19,cs),
(517,51,o),
(476,37,o),
(439,107,cs),
(351,277,l),
(425,304,o),
(472,380,o),
(472,484,cs),
(472,617,o),
(391,713,o),
(236,713,cs),
(198,713,o),
(153,707,o),
(123,707,cs),
(98,707,o),
(74,710,o),
(63,710,cs),
(49,710,o),
(39,701,o),
(39,689,cs),
(39,654,o),
(84,679,o),
(84,613,cs),
(84,95,ls),
(84,31,o),
(39,52,o),
(39,18,cs),
(39,6,o),
(49,-2,o),
(62,-2,cs)
);
},
{
closed = 1;
nodes = (
(169,612,ls),
(169,647,o),
(180,664,o),
(233,664,cs),
(317,664,o),
(378,596,o),
(378,481,cs),
(378,344,o),
(317,310,o),
(235,310,cs),
(173,310,o),
(169,324,o),
(169,345,cs)
);
}
);
width = 526;
}
);
note = R;
unicode = 82;
},
{
glyphname = Racute;
kernLeft = B;
kernRight = R;
layers = (
{
hints = (
{
horizontal = 1;
place = (-2, 21);
target = up;
type = BottomGhost;
},
{
horizontal = 1;
place = (264, 46);
place = (264, 46);
type = Stem;
},
{
horizontal = 1;
place = (664, 49);
place = (664, 49);
type = Stem;
},
{
place = (84, 85);
place = (84, 85);
type = Stem;
},
{
place = (378, 94);
place = (378, 94);
type = Stem;
},
{
horizontal = 1;
place = (710, -20);
target = down;
type = TopGhost;
}
);
layerId = m01;
shapes = (
{
closed = 1;
nodes = (
(77,-2,o),
(95,1,o),
(126,1,cs),
(157,1,o),
(179,-2,o),
(193,-2,cs),
(205,-2,o),
(216,6,o),
(216,18,cs),
(216,52,o),
(169,31,o),
(169,95,cs),
(169,243,ls),
(169,257,o),
(173,265,o),
(186,264,cs),
(215,262,o),
(231,263,o),
(251,264,cs),
(262,265,o),
(271,260,o),
(279,244,cs),
(349,106,ls),
(355,93,o),
(362,82,o),
(362,71,cs),
(362,40,o),
(327,46,o),
(327,18,cs),
(327,6,o),
(334,-2,o),
(350,-2,cs),
(368,-2,o),
(394,1,o),
(422,1,cs),
(452,1,o),
(480,-2,o),
(493,-2,cs),
(506,-2,o),
(517,6,o),
(517,19,cs),
(517,51,o),
(476,37,o),
(439,107,cs),
(351,277,l),
(425,304,o),
(472,380,o),
(472,484,cs),
(472,617,o),
(391,713,o),
(236,713,cs),
(198,713,o),
(153,707,o),
(123,707,cs),
(98,707,o),
(74,710,o),
(63,710,cs),
(49,710,o),
(39,701,o),
(39,689,cs),
(39,654,o),
(84,679,o),
(84,613,cs),
(84,95,ls),
(84,31,o),
(39,52,o),
(39,18,cs),
(39,6,o),
(49,-2,o),
(62,-2,cs)
);
},
{
closed = 1;
nodes = (
(169,612,ls),
(169,647,o),
(180,664,o),
(233,664,cs),
(317,664,o),
(378,596,o),
(378,481,cs),
(378,344,o),
(317,310,o),
(235,310,cs),
(173,310,o),
(169,324,o),
(169,345,cs)
);
},
{
closed = 1;
nodes = (
(225,759,o),
(232,754,o),
(242,754,cs),
(252,754,o),
(260,756,o),
(273,775,cs),
(289,796,o),
(325,853,o),
(340,874,cs),
(354,895,o),
(365,911,o),
(365,921,cs),
(365,935,o),
(355,938,o),
(328,938,cs),
(305,938,o),
(298,934,o),
(289,918,cs),
(271,882,o),
(249,832,o),
(231,790,cs),
(228,783,o),
(225,773,o),
(225,767,cs)
);
}
);
width = 526;
}
);
note = Racute;
unicode = 340;
},
{
glyphname = Rcaron;
kernLeft = B;
kernRight = R;
layers = (
{
hints = (
{
horizontal = 1;
place = (-2, 21);
target = up;
type = BottomGhost;
},
{
horizontal = 1;
place = (264, 46);
place = (264, 46);
type = Stem;
},
{
horizontal = 1;
place = (664, 49);
place = (664, 49);
type = Stem;
},
{
place = (84, 85);
place = (84, 85);
type = Stem;
},
{
place = (378, 94);
place = (378, 94);
type = Stem;
},
{
horizontal = 1;
place = (710, -20);
target = down;
type = TopGhost;
}
);
layerId = m01;
shapes = (
{
closed = 1;
nodes = (
(77,-2,o),
(95,1,o),
(126,1,cs),
(157,1,o),
(179,-2,o),
(193,-2,cs),
(205,-2,o),
(216,6,o),
(216,18,cs),
(216,52,o),
(169,31,o),
(169,95,cs),
(169,243,ls),
(169,257,o),
(173,265,o),
(186,264,cs),
(215,262,o),
(231,263,o),
(251,264,cs),
(262,265,o),
(271,260,o),
(279,244,cs),
(349,106,ls),
(355,93,o),
(362,82,o),
(362,71,cs),
(362,40,o),
(327,46,o),
(327,18,cs),
(327,6,o),
(334,-2,o),
(350,-2,cs),
(368,-2,o),
(394,1,o),
(422,1,cs),
(452,1,o),
(480,-2,o),
(493,-2,cs),
(506,-2,o),
(517,6,o),
(517,19,cs),
(517,51,o),
(476,37,o),
(439,107,cs),
(351,277,l),
(425,304,o),
(472,380,o),
(472,484,cs),
(472,617,o),
(391,713,o),
(236,713,cs),
(198,713,o),
(153,707,o),
(123,707,cs),
(98,707,o),
(74,710,o),
(63,710,cs),
(49,710,o),
(39,701,o),
(39,689,cs),
(39,654,o),
(84,679,o),
(84,613,cs),
(84,95,ls),
(84,31,o),
(39,52,o),
(39,18,cs),
(39,6,o),
(49,-2,o),
(62,-2,cs)
);
},
{
closed = 1;
nodes = (
(143,920,o),
(146,913,o),
(151,902,cs),
(160,884,o),
(188,829,o),
(211,791,cs),
(223,772,o),
(231,766,o),
(253,766,cs),
(276,766,o),
(285,773,o),
(294,790,cs),
(318,831,o),
(333,861,o),
(356,903,cs),
(361,914,o),
(364,920,o),
(364,929,cs),
(364,939,o),
(356,945,o),
(345,945,cs),
(336,945,o),
(328,940,o),
(316,923,cs),
(253,832,l),
(190,923,ls),
(179,939,o),
(171,945,o),
(161,945,cs),
(150,945,o),
(143,939,o),
(143,929,cs)
);
},
{
closed = 1;
nodes = (
(169,612,ls),
(169,647,o),
(180,664,o),
(233,664,cs),
(317,664,o),
(378,596,o),
(378,481,cs),
(378,344,o),
(317,310,o),
(235,310,cs),
(173,310,o),
(169,324,o),
(169,345,cs)
);
}
);
width = 526;
}
);
note = Rcaron;
unicode = 344;
},
{
glyphname = uni0156;
kernLeft = B;
kernRight = R;
layers = (
{
hints = (
{
horizontal = 1;
place = (-2, 21);
target = up;
type = BottomGhost;
},
{
horizontal = 1;
place = (264, 46);
place = (264, 46);
type = Stem;
},
{
horizontal = 1;
place = (664, 49);
place = (664, 49);
type = Stem;
},
{
place = (84, 85);
place = (84, 85);
type = Stem;
},
{
place = (220, 107);
place = (220, 107);
type = Stem;
},
{
place = (378, 94);
place = (378, 94);
type = Stem;
},
{
horizontal = 1;
place = (710, -20);
target = down;
type = TopGhost;
},
{
place = (260, 67);
place = (260, 67);
type = Stem;
}
);
layerId = m01;
shapes = (
{
closed = 1;
nodes = (
(77,-2,o),
(95,1,o),
(126,1,cs),
(157,1,o),
(179,-2,o),
(193,-2,cs),
(205,-2,o),
(216,6,o),
(216,18,cs),
(216,52,o),
(169,31,o),
(169,95,cs),
(169,243,ls),
(169,257,o),
(173,265,o),
(186,264,cs),
(215,262,o),
(231,263,o),
(251,264,cs),
(262,265,o),
(271,260,o),
(279,244,cs),
(349,106,ls),
(355,93,o),
(362,82,o),
(362,71,cs),
(362,40,o),
(327,46,o),
(327,18,cs),
(327,6,o),
(334,-2,o),
(350,-2,cs),
(368,-2,o),
(394,1,o),
(422,1,cs),
(452,1,o),
(480,-2,o),
(493,-2,cs),
(506,-2,o),
(517,6,o),
(517,19,cs),
(517,51,o),
(476,37,o),
(439,107,cs),
(351,277,l),
(425,304,o),
(472,380,o),
(472,484,cs),
(472,617,o),
(391,713,o),
(236,713,cs),
(198,713,o),
(153,707,o),
(123,707,cs),
(98,707,o),
(74,710,o),
(63,710,cs),
(49,710,o),
(39,701,o),
(39,689,cs),
(39,654,o),
(84,679,o),
(84,613,cs),
(84,95,ls),
(84,31,o),
(39,52,o),
(39,18,cs),
(39,6,o),
(49,-2,o),
(62,-2,cs)
);
},
{
closed = 1;
nodes = (
(169,612,ls),
(169,647,o),
(180,664,o),
(233,664,cs),
(317,664,o),
(378,596,o),
(378,481,cs),
(378,344,o),
(317,310,o),
(235,310,cs),
(173,310,o),
(169,324,o),
(169,345,cs)
);
},
{
closed = 1;
nodes = (
(218,-226,o),
(226,-233,o),
(236,-233,cs),
(268,-233,o),
(327,-172,o),
(327,-100,cs),
(327,-61,o),
(304,-41,o),
(272,-41,cs),
(242,-41,o),
(220,-61,o),
(220,-89,cs),
(220,-107,o),
(228,-116,o),
(239,-124,cs),
(250,-133,o),
(260,-139,o),
(260,-152,cs),
(260,-173,o),
(244,-186,o),
(232,-196,cs),
(224,-203,o),
(218,-209,o),
(218,-217,cs)
);
}
);
width = 526;
}
);
note = uni0156;
unicode = 342;
},
{
glyphname = S;
kernLeft = S;
kernRight = S;
layers = (
{
hints = (
{
horizontal = 1;
place = (-13, 52);
place = (-13, 52);
type = Stem;
},
{
horizontal = 1;
place = (668, 32);
place = (668, 32);
type = Stem;
},
{
place = (46, 81);
place = (46, 81);
type = Stem;
},
{
place = (376, 82);
place = (376, 82);
type = Stem;
},
{
horizontal = 1;
place = (668, 53);
place = (668, 53);
type = Stem;
}
);
layerId = m01;
shapes = (
{
closed = 1;
nodes = (
(126,-16,o),
(127,13,o),
(144,13,cs),
(162,13,o),
(204,-13,o),
(266,-13,cs),
(369,-13,o),
(458,59,o),
(458,181,cs),
(458,300,o),
(369,361,o),
(257,424,cs),
(167,474,o),
(127,515,o),
(127,575,cs),
(127,629,o),
(163,668,o),
(216,668,cs),
(272,668,o),
(317,627,o),
(368,552,cs),
(380,535,o),
(389,527,o),
(398,527,cs),
(408,527,o),
(417,537,o),
(417,546,cs),
(417,557,o),
(410,577,o),
(388,627,cs),
(368,674,ls),
(355,705,o),
(348,725,o),
(331,725,cs),
(309,725,o),
(310,700,o),
(294,700,cs),
(284,700,o),
(255,721,o),
(206,721,cs),
(119,721,o),
(46,652,o),
(46,558,cs),
(46,451,o),
(134,391,o),
(229,339,cs),
(328,286,o),
(376,240,o),
(376,163,cs),
(376,84,o),
(326,39,o),
(260,39,cs),
(182,39,o),
(127,103,o),
(73,185,cs),
(65,198,o),
(59,211,o),
(42,211,cs),
(31,211,o),
(22,202,o),
(22,189,cs),
(22,175,o),
(29,161,o),
(47,104,cs),
(75,19,ls),
(81,0,o),
(87,-16,o),
(102,-16,cs)
);
}
);
width = 480;
}
);
note = S;
unicode = 83;
},
{
glyphname = Sacute;
kernLeft = S;
kernRight = S;
layers = (
{
hints = (
{
horizontal = 1;
place = (-13, 52);
place = (-13, 52);
type = Stem;
},
{
horizontal = 1;
place = (668, 53);
place = (668, 53);
type = Stem;
},
{
place = (46, 81);
place = (46, 81);
type = Stem;
},
{
place = (376, 82);
place = (376, 82);
type = Stem;
},
{
horizontal = 1;
place = (668, 32);
place = (668, 32);
type = Stem;
}
);
layerId = m01;
shapes = (
{
closed = 1;
nodes = (
(126,-16,o),
(127,13,o),
(144,13,cs),
(162,13,o),
(204,-13,o),
(266,-13,cs),
(369,-13,o),
(458,59,o),
(458,181,cs),
(458,300,o),
(369,361,o),
(257,424,cs),
(167,474,o),
(127,515,o),
(127,575,cs),
(127,629,o),
(163,668,o),
(216,668,cs),
(272,668,o),
(317,627,o),
(368,552,cs),
(380,535,o),
(389,527,o),
(398,527,cs),
(408,527,o),
(417,537,o),
(417,546,cs),
(417,557,o),
(410,577,o),
(388,627,cs),
(368,674,ls),
(355,705,o),
(348,725,o),
(331,725,cs),
(309,725,o),
(310,700,o),
(294,700,cs),
(284,700,o),
(255,721,o),
(206,721,cs),
(119,721,o),
(46,652,o),
(46,558,cs),
(46,451,o),
(134,391,o),
(229,339,cs),
(328,286,o),
(376,240,o),
(376,163,cs),
(376,84,o),
(326,39,o),
(260,39,cs),
(182,39,o),
(127,103,o),
(73,185,cs),
(65,198,o),
(59,211,o),
(42,211,cs),
(31,211,o),
(22,202,o),
(22,189,cs),
(22,175,o),
(29,161,o),
(47,104,cs),
(75,19,ls),
(81,0,o),
(87,-16,o),
(102,-16,cs)
);
},
{
closed = 1;
nodes = (
(186,759,o),
(193,754,o),
(203,754,cs),
(213,754,o),
(221,756,o),
(234,775,cs),
(250,796,o),
(286,853,o),
(301,874,cs),
(315,895,o),
(326,911,o),
(326,921,cs),
(326,935,o),
(316,938,o),
(289,938,cs),
(266,938,o),
(259,934,o),
(250,918,cs),
(232,882,o),
(210,832,o),
(192,790,cs),
(189,783,o),
(186,773,o),
(186,767,cs)
);
}
);
width = 480;
}
);
note = Sacute;
unicode = 346;
},
{
glyphname = Scaron;
kernLeft = S;
kernRight = S;
layers = (
{
hints = (
{
horizontal = 1;
place = (-13, 52);
place = (-13, 52);
type = Stem;
},
{
horizontal = 1;
place = (668, 32);
place = (668, 32);
type = Stem;
},
{
place = (46, 81);
place = (46, 81);
type = Stem;
},
{
place = (376, 82);
place = (376, 82);
type = Stem;
},
{
horizontal = 1;
place = (668, 53);
place = (668, 53);
type = Stem;
}
);
layerId = m01;
shapes = (
{
closed = 1;
nodes = (
(126,-16,o),
(127,13,o),
(144,13,cs),
(162,13,o),
(204,-13,o),
(266,-13,cs),
(369,-13,o),
(458,59,o),
(458,181,cs),
(458,300,o),
(369,361,o),
(257,424,cs),
(167,474,o),
(127,515,o),
(127,575,cs),
(127,629,o),
(163,668,o),
(216,668,cs),
(272,668,o),
(317,627,o),
(368,552,cs),
(380,535,o),
(389,527,o),
(398,527,cs),
(408,527,o),
(417,537,o),
(417,546,cs),
(417,557,o),
(410,577,o),
(388,627,cs),
(368,674,ls),
(355,705,o),
(348,725,o),
(331,725,cs),
(309,725,o),
(310,700,o),
(294,700,cs),
(284,700,o),
(255,721,o),
(206,721,cs),
(119,721,o),
(46,652,o),
(46,558,cs),
(46,451,o),
(134,391,o),
(229,339,cs),
(328,286,o),
(376,240,o),
(376,163,cs),
(376,84,o),
(326,39,o),
(260,39,cs),
(182,39,o),
(127,103,o),
(73,185,cs),
(65,198,o),
(59,211,o),
(42,211,cs),
(31,211,o),
(22,202,o),
(22,189,cs),
(22,175,o),
(29,161,o),
(47,104,cs),
(75,19,ls),
(81,0,o),
(87,-16,o),
(102,-16,cs)
);
},
{
closed = 1;
nodes = (
(104,920,o),
(107,913,o),
(112,902,cs),
(121,884,o),
(149,829,o),
(172,791,cs),
(184,772,o),
(192,766,o),
(214,766,cs),
(237,766,o),
(246,773,o),
(255,790,cs),
(279,831,o),
(294,861,o),
(317,903,cs),
(322,914,o),
(325,920,o),
(325,929,cs),
(325,939,o),
(317,945,o),
(306,945,cs),
(297,945,o),
(289,940,o),
(277,923,cs),
(214,832,l),
(151,923,ls),
(140,939,o),
(132,945,o),
(122,945,cs),
(111,945,o),
(104,939,o),
(104,929,cs)
);
}
);
width = 480;
}
);
note = Scaron;
unicode = 352;
},
{
glyphname = Scedilla;
kernLeft = S;
kernRight = S;
layers = (
{
hints = (
{
horizontal = 1;
place = (-199, 37);
place = (-199, 37);
type = Stem;
},
{
horizontal = 1;
place = (-96, 46);
place = (-96, 46);
type = Stem;
},
{
horizontal = 1;
place = (-13, 52);
place = (-13, 52);
type = Stem;
},
{
horizontal = 1;
place = (668, 32);
place = (668, 32);
type = Stem;
},
{
place = (46, 81);
place = (46, 81);
type = Stem;
},
{
place = (285, 47);
place = (285, 47);
type = Stem;
},
{
place = (376, 82);
place = (376, 82);
type = Stem;
},
{
horizontal = 1;
place = (-7, 21);
target = up;
type = BottomGhost;
},
{
horizontal = 1;
place = (668, 53);
place = (668, 53);
type = Stem;
}
);
layerId = m01;
shapes = (
{
closed = 1;
nodes = (
(126,-16,o),
(127,13,o),
(144,13,cs),
(157,13,o),
(181,0,o),
(215,-7,c),
(199,-80,l),
(202,-90,o),
(215,-104,o),
(221,-106,c),
(232,-101,o),
(244,-96,o),
(255,-96,cs),
(274,-96,o),
(285,-108,o),
(285,-127,cs),
(285,-147,o),
(274,-162,o),
(250,-162,cs),
(236,-162,o),
(222,-154,o),
(210,-148,cs),
(205,-146,o),
(200,-143,o),
(193,-143,cs),
(184,-143,o),
(178,-151,o),
(178,-160,cs),
(178,-169,o),
(182,-174,o),
(189,-180,cs),
(204,-193,o),
(228,-199,o),
(253,-199,cs),
(301,-199,o),
(332,-167,o),
(332,-121,cs),
(332,-81,o),
(304,-50,o),
(265,-50,cs),
(256,-50,o),
(248,-51,o),
(241,-54,c),
(249,-12,l),
(266,-13,ls),
(369,-13,o),
(458,59,o),
(458,181,cs),
(458,300,o),
(369,361,o),
(257,424,cs),
(167,474,o),
(127,515,o),
(127,575,cs),
(127,629,o),
(163,668,o),
(216,668,cs),
(272,668,o),
(317,627,o),
(368,552,cs),
(380,535,o),
(389,527,o),
(398,527,cs),
(408,527,o),
(417,537,o),
(417,546,cs),
(417,557,o),
(410,577,o),
(388,627,cs),
(368,674,ls),
(355,705,o),
(348,725,o),
(331,725,cs),
(309,725,o),
(310,700,o),
(294,700,cs),
(284,700,o),
(255,721,o),
(206,721,cs),
(119,721,o),
(46,652,o),
(46,558,cs),
(46,451,o),
(134,391,o),
(229,339,cs),
(328,286,o),
(376,240,o),
(376,163,cs),
(376,84,o),
(326,39,o),
(260,39,cs),
(182,39,o),
(127,103,o),
(73,185,cs),
(65,198,o),
(59,211,o),
(42,211,cs),
(31,211,o),
(22,202,o),
(22,189,cs),
(22,175,o),
(29,161,o),
(47,104,cs),
(75,19,ls),
(81,0,o),
(87,-16,o),
(102,-16,cs)
);
}
);
width = 480;
}
);
note = Scedilla;
unicode = 350;
},
{
glyphname = Scircumflex;
kernLeft = S;
kernRight = S;
layers = (
{
hints = (
{
horizontal = 1;
place = (-13, 52);
place = (-13, 52);
type = Stem;
},
{
horizontal = 1;
place = (668, 32);
place = (668, 32);
type = Stem;
},
{
place = (46, 81);
place = (46, 81);
type = Stem;
},
{
place = (376, 82);
place = (376, 82);
type = Stem;
},
{
horizontal = 1;
place = (668, 53);
place = (668, 53);
type = Stem;
}
);
layerId = m01;
shapes = (
{
closed = 1;
nodes = (
(126,-16,o),
(127,13,o),
(144,13,cs),
(162,13,o),
(204,-13,o),
(266,-13,cs),
(369,-13,o),
(458,59,o),
(458,181,cs),
(458,300,o),
(369,361,o),
(257,424,cs),
(167,474,o),
(127,515,o),
(127,575,cs),
(127,629,o),
(163,668,o),
(216,668,cs),
(272,668,o),
(317,627,o),
(368,552,cs),
(380,535,o),
(389,527,o),
(398,527,cs),
(408,527,o),
(417,537,o),
(417,546,cs),
(417,557,o),
(410,577,o),
(388,627,cs),
(368,674,ls),
(355,705,o),
(348,725,o),
(331,725,cs),
(309,725,o),
(310,700,o),
(294,700,cs),
(284,700,o),
(255,721,o),
(206,721,cs),
(119,721,o),
(46,652,o),
(46,558,cs),
(46,451,o),
(134,391,o),
(229,339,cs),
(328,286,o),
(376,240,o),
(376,163,cs),
(376,84,o),
(326,39,o),
(260,39,cs),
(182,39,o),
(127,103,o),
(73,185,cs),
(65,198,o),
(59,211,o),
(42,211,cs),
(31,211,o),
(22,202,o),
(22,189,cs),
(22,175,o),
(29,161,o),
(47,104,cs),
(75,19,ls),
(81,0,o),
(87,-16,o),
(102,-16,cs)
);
},
{
closed = 1;
nodes = (
(103,768,o),
(111,762,o),
(122,762,cs),
(131,762,o),
(139,767,o),
(151,784,cs),
(214,875,l),
(277,784,ls),
(288,768,o),
(296,762,o),
(306,762,cs),
(317,762,o),
(324,768,o),
(324,778,cs),
(324,787,o),
(321,794,o),
(316,805,cs),
(307,823,o),
(279,878,o),
(256,916,cs),
(244,935,o),
(236,941,o),
(214,941,cs),
(191,941,o),
(182,934,o),
(173,917,cs),
(149,876,o),
(134,846,o),
(111,804,cs),
(106,793,o),
(103,787,o),
(103,778,cs)
);
}
);
width = 480;
}
);
note = Scircumflex;
unicode = 348;
},
{
glyphname = uni0218;
kernLeft = S;
kernRight = S;
layers = (
{
hints = (
{
horizontal = 1;
place = (-13, 52);
place = (-13, 52);
type = Stem;
},
{
horizontal = 1;
place = (668, 53);
place = (668, 53);
type = Stem;
},
{
place = (46, 81);
place = (46, 81);
type = Stem;
},
{
place = (206, 107);
place = (206, 107);
type = Stem;
},
{
place = (376, 82);
place = (376, 82);
type = Stem;
},
{
horizontal = 1;
place = (668, 32);
place = (668, 32);
type = Stem;
},
{
place = (246, 67);
place = (246, 67);
type = Stem;
}
);
layerId = m01;
shapes = (
{
closed = 1;
nodes = (
(126,-16,o),
(127,13,o),
(144,13,cs),
(162,13,o),
(204,-13,o),
(266,-13,cs),
(369,-13,o),
(458,59,o),
(458,181,cs),
(458,300,o),
(369,361,o),
(257,424,cs),
(167,474,o),
(127,515,o),
(127,575,cs),
(127,629,o),
(163,668,o),
(216,668,cs),
(272,668,o),
(317,627,o),
(368,552,cs),
(380,535,o),
(389,527,o),
(398,527,cs),
(408,527,o),
(417,537,o),
(417,546,cs),
(417,557,o),
(410,577,o),
(388,627,cs),
(368,674,ls),
(355,705,o),
(348,725,o),
(331,725,cs),
(309,725,o),
(310,700,o),
(294,700,cs),
(284,700,o),
(255,721,o),
(206,721,cs),
(119,721,o),
(46,652,o),
(46,558,cs),
(46,451,o),
(134,391,o),
(229,339,cs),
(328,286,o),
(376,240,o),
(376,163,cs),
(376,84,o),
(326,39,o),
(260,39,cs),
(182,39,o),
(127,103,o),
(73,185,cs),
(65,198,o),
(59,211,o),
(42,211,cs),
(31,211,o),
(22,202,o),
(22,189,cs),
(22,175,o),
(29,161,o),
(47,104,cs),
(75,19,ls),
(81,0,o),
(87,-16,o),
(102,-16,cs)
);
},
{
closed = 1;
nodes = (
(204,-226,o),
(212,-233,o),
(222,-233,cs),
(254,-233,o),
(313,-172,o),
(313,-100,cs),
(313,-61,o),
(290,-41,o),
(258,-41,cs),
(228,-41,o),
(206,-61,o),
(206,-89,cs),
(206,-107,o),
(214,-116,o),
(225,-124,cs),
(236,-133,o),
(246,-139,o),
(246,-152,cs),
(246,-173,o),
(230,-186,o),
(218,-196,cs),
(210,-203,o),
(204,-209,o),
(204,-217,cs)
);
}
);
width = 480;
}
);
note = uni0218;
unicode = 536;
},
{
glyphname = uni1E9E;
kernLeft = uni1E9E;
kernRight = uni1E9E;
layers = (
{
hints = (
{
horizontal = 1;
place = (-14, 48);
place = (-14, 48);
type = Stem;
},
{
horizontal = 1;
place = (678, 44);
place = (678, 44);
type = Stem;
},
{
place = (69, 77);
place = (69, 77);
type = Stem;
},
{
place = (340, 80);
place = (340, 80);
type = Stem;
},
{
place = (457, 72);
place = (457, 72);
type = Stem;
},
{
horizontal = 1;
place = (-2, 21);
target = up;
type = BottomGhost;
}
);
layerId = m01;
shapes = (
{
closed = 1;
nodes = (
(245,433,ls),
(237,421,o),
(235,416,o),
(235,408,cs),
(235,396,o),
(242,388,o),
(258,382,cs),
(346,348,o),
(457,268,o),
(457,143,cs),
(457,71,o),
(426,34,o),
(387,34,cs),
(324,34,o),
(285,103,o),
(248,171,cs),
(240,184,o),
(232,197,o),
(220,197,cs),
(210,197,o),
(203,186,o),
(203,176,cs),
(203,165,o),
(206,150,o),
(217,108,cs),
(238,22,ls),
(245,-8,o),
(253,-17,o),
(266,-17,cs),
(286,-17,o),
(288,8,o),
(303,8,cs),
(317,8,o),
(342,-14,o),
(391,-14,cs),
(459,-14,o),
(529,44,o),
(529,156,cs),
(529,299,o),
(422,390,o),
(307,445,c),
(405,570,ls),
(413,580,o),
(420,591,o),
(420,604,cs),
(420,616,o),
(414,626,o),
(406,636,cs),
(376,676,o),
(305,722,o),
(226,722,cs),
(130,722,o),
(69,647,o),
(69,552,cs),
(69,95,ls),
(69,29,o),
(24,54,o),
(24,16,cs),
(24,7,o),
(30,-2,o),
(43,-2,cs),
(60,-2,o),
(80,1,o),
(107,1,cs),
(135,1,o),
(156,-2,o),
(172,-2,cs),
(186,-2,o),
(192,7,o),
(192,16,cs),
(192,54,o),
(146,29,o),
(146,95,cs),
(146,559,ls),
(146,637,o),
(174,678,o),
(223,678,cs),
(280,678,o),
(340,626,o),
(340,580,cs),
(340,564,o),
(331,553,o),
(325,542,c)
);
}
);
width = 545;
}
);
note = uni1E9E;
unicode = 7838;
},
{
glyphname = T;
kernLeft = T;
kernRight = T;
layers = (
{
hints = (
{
horizontal = 1;
place = (-2, 21);
target = up;
type = BottomGhost;
},
{
horizontal = 1;
place = (658, 49);
place = (658, 49);
type = Stem;
},
{
place = (221, 84);
place = (221, 84);
type = Stem;
}
);
layerId = m01;
shapes = (
{
closed = 1;
nodes = (
(204,-2,o),
(230,1,o),
(262,1,cs),
(295,1,o),
(325,-2,o),
(338,-2,cs),
(351,-2,o),
(361,6,o),
(361,18,cs),
(361,54,o),
(305,33,o),
(305,97,cs),
(305,618,ls),
(305,645,o),
(312,658,o),
(338,658,cs),
(355,658,ls),
(401,658,o),
(426,629,o),
(476,547,cs),
(484,534,o),
(492,524,o),
(505,524,cs),
(514,524,o),
(524,531,o),
(524,544,cs),
(524,556,o),
(518,575,o),
(508,608,cs),
(486,679,ls),
(474,717,o),
(466,727,o),
(452,727,cs),
(432,727,o),
(430,707,o),
(408,707,cs),
(118,707,ls),
(97,707,o),
(95,727,o),
(75,727,cs),
(61,727,o),
(53,717,o),
(41,679,cs),
(19,608,ls),
(9,575,o),
(3,556,o),
(3,544,cs),
(3,531,o),
(12,524,o),
(21,524,cs),
(35,524,o),
(42,534,o),
(50,547,cs),
(100,629,o),
(125,658,o),
(172,658,cs),
(188,658,ls),
(215,658,o),
(221,645,o),
(221,618,cs),
(221,97,ls),
(221,33,o),
(165,54,o),
(165,18,cs),
(165,6,o),
(175,-2,o),
(188,-2,cs)
);
}
);
width = 526;
}
);
note = T;
unicode = 84;
},
{
glyphname = Tbar;
kernLeft = T;
kernRight = T;
layers = (
{
hints = (
{
horizontal = 1;
place = (-2, 21);
target = up;
type = BottomGhost;
},
{
horizontal = 1;
place = (325, 49);
place = (325, 49);
type = Stem;
},
{
horizontal = 1;
place = (658, 49);
place = (658, 49);
type = Stem;
},
{
place = (223, 84);
place = (223, 84);
type = Stem;
}
);
layerId = m01;
shapes = (
{
closed = 1;
nodes = (
(223,325,l),
(223,97,ls),
(223,33,o),
(167,54,o),
(167,18,cs),
(167,6,o),
(177,-2,o),
(190,-2,cs),
(206,-2,o),
(232,1,o),
(264,1,cs),
(297,1,o),
(327,-2,o),
(340,-2,cs),
(353,-2,o),
(363,6,o),
(363,18,cs),
(363,54,o),
(307,33,o),
(307,97,cs),
(307,325,l),
(396,325,ls),
(414,325,o),
(421,333,o),
(421,349,cs),
(421,365,o),
(413,374,o),
(396,374,cs),
(307,374,l),
(307,618,ls),
(307,645,o),
(314,658,o),
(340,658,cs),
(357,658,ls),
(403,658,o),
(428,629,o),
(478,547,cs),
(486,534,o),
(494,524,o),
(507,524,cs),
(516,524,o),
(526,531,o),
(526,544,cs),
(526,556,o),
(520,575,o),
(510,608,cs),
(488,679,ls),
(476,717,o),
(468,727,o),
(454,727,cs),
(434,727,o),
(432,707,o),
(410,707,cs),
(120,707,ls),
(99,707,o),
(97,727,o),
(77,727,cs),
(63,727,o),
(55,717,o),
(43,679,cs),
(21,608,ls),
(11,575,o),
(5,556,o),
(5,544,cs),
(5,531,o),
(14,524,o),
(23,524,cs),
(37,524,o),
(44,534,o),
(52,547,cs),
(102,629,o),
(127,658,o),
(174,658,cs),
(190,658,ls),
(217,658,o),
(223,645,o),
(223,618,cs),
(223,374,l),
(134,374,ls),
(118,374,o),
(110,365,o),
(110,349,cs),
(110,331,o),
(119,325,o),
(134,325,cs)
);
}
);
width = 530;
}
);
note = Tbar;
unicode = 358;
},
{
glyphname = Tcaron;
kernLeft = T;
kernRight = T;
layers = (
{
hints = (
{
horizontal = 1;
place = (-2, 21);
target = up;
type = BottomGhost;
},
{
horizontal = 1;
place = (658, 49);
place = (658, 49);
type = Stem;
},
{
place = (221, 84);
place = (221, 84);
type = Stem;
}
);
layerId = m01;
shapes = (
{
closed = 1;
nodes = (
(204,-2,o),
(230,1,o),
(262,1,cs),
(295,1,o),
(325,-2,o),
(338,-2,cs),
(351,-2,o),
(361,6,o),
(361,18,cs),
(361,54,o),
(305,33,o),
(305,97,cs),
(305,618,ls),
(305,645,o),
(312,658,o),
(338,658,cs),
(355,658,ls),
(401,658,o),
(426,629,o),
(476,547,cs),
(484,534,o),
(492,524,o),
(505,524,cs),
(514,524,o),
(524,531,o),
(524,544,cs),
(524,556,o),
(518,575,o),
(508,608,cs),
(486,679,ls),
(474,717,o),
(466,727,o),
(452,727,cs),
(432,727,o),
(430,707,o),
(408,707,cs),
(118,707,ls),
(97,707,o),
(95,727,o),
(75,727,cs),
(61,727,o),
(53,717,o),
(41,679,cs),
(19,608,ls),
(9,575,o),
(3,556,o),
(3,544,cs),
(3,531,o),
(12,524,o),
(21,524,cs),
(35,524,o),
(42,534,o),
(50,547,cs),
(100,629,o),
(125,658,o),
(172,658,cs),
(188,658,ls),
(215,658,o),
(221,645,o),
(221,618,cs),
(221,97,ls),
(221,33,o),
(165,54,o),
(165,18,cs),
(165,6,o),
(175,-2,o),
(188,-2,cs)
);
},
{
closed = 1;
nodes = (
(144,920,o),
(147,913,o),
(152,902,cs),
(161,884,o),
(189,829,o),
(212,791,cs),
(224,772,o),
(232,766,o),
(254,766,cs),
(277,766,o),
(286,773,o),
(295,790,cs),
(319,831,o),
(334,861,o),
(357,903,cs),
(362,914,o),
(365,920,o),
(365,929,cs),
(365,939,o),
(357,945,o),
(346,945,cs),
(337,945,o),
(329,940,o),
(317,923,cs),
(254,832,l),
(191,923,ls),
(180,939,o),
(172,945,o),
(162,945,cs),
(151,945,o),
(144,939,o),
(144,929,cs)
);
}
);
width = 526;
}
);
note = Tcaron;
unicode = 356;
},
{
glyphname = uni0162;
kernLeft = T;
kernRight = T;
layers = (
{
hints = (
{
horizontal = 1;
place = (-2, 21);
target = up;
type = BottomGhost;
},
{
horizontal = 1;
place = (658, 49);
place = (658, 49);
type = Stem;
},
{
place = (243, 67);
place = (243, 67);
type = Stem;
},
{
place = (221, 84);
place = (221, 84);
type = Stem;
},
{
place = (203, 107);
place = (203, 107);
type = Stem;
}
);
layerId = m01;
shapes = (
{
closed = 1;
nodes = (
(204,-2,o),
(230,1,o),
(262,1,cs),
(295,1,o),
(325,-2,o),
(338,-2,cs),
(351,-2,o),
(361,6,o),
(361,18,cs),
(361,54,o),
(305,33,o),
(305,97,cs),
(305,618,ls),
(305,645,o),
(312,658,o),
(338,658,cs),
(355,658,ls),
(401,658,o),
(426,629,o),
(476,547,cs),
(484,534,o),
(492,524,o),
(505,524,cs),
(514,524,o),
(524,531,o),
(524,544,cs),
(524,556,o),
(518,575,o),
(508,608,cs),
(486,679,ls),
(474,717,o),
(466,727,o),
(452,727,cs),
(432,727,o),
(430,707,o),
(408,707,cs),
(118,707,ls),
(97,707,o),
(95,727,o),
(75,727,cs),
(61,727,o),
(53,717,o),
(41,679,cs),
(19,608,ls),
(9,575,o),
(3,556,o),
(3,544,cs),
(3,531,o),
(12,524,o),
(21,524,cs),
(35,524,o),
(42,534,o),
(50,547,cs),
(100,629,o),
(125,658,o),
(172,658,cs),
(188,658,ls),
(215,658,o),
(221,645,o),
(221,618,cs),
(221,97,ls),
(221,33,o),
(165,54,o),
(165,18,cs),
(165,6,o),
(175,-2,o),
(188,-2,cs)
);
},
{
closed = 1;
nodes = (
(201,-226,o),
(209,-233,o),
(219,-233,cs),
(251,-233,o),
(310,-172,o),
(310,-100,cs),
(310,-61,o),
(287,-41,o),
(255,-41,cs),
(225,-41,o),
(203,-61,o),
(203,-89,cs),
(203,-107,o),
(211,-116,o),
(222,-124,cs),
(233,-133,o),
(243,-139,o),
(243,-152,cs),
(243,-173,o),
(227,-186,o),
(215,-196,cs),
(207,-203,o),
(201,-209,o),
(201,-217,cs)
);
}
);
width = 526;
}
);
note = uni0162;
unicode = 354;
},
{
glyphname = uni021A;
kernLeft = T;
kernRight = T;
layers = (
{
hints = (
{
horizontal = 1;
place = (-2, 21);
target = up;
type = BottomGhost;
},
{
horizontal = 1;
place = (658, 49);
place = (658, 49);
type = Stem;
},
{
place = (203, 107);
place = (203, 107);
type = Stem;
},
{
place = (221, 84);
place = (221, 84);
type = Stem;
},
{
place = (243, 67);
place = (243, 67);
type = Stem;
}
);
layerId = m01;
shapes = (
{
closed = 1;
nodes = (
(204,-2,o),
(230,1,o),
(262,1,cs),
(295,1,o),
(325,-2,o),
(338,-2,cs),
(351,-2,o),
(361,6,o),
(361,18,cs),
(361,54,o),
(305,33,o),
(305,97,cs),
(305,618,ls),
(305,645,o),
(312,658,o),
(338,658,cs),
(355,658,ls),
(401,658,o),
(426,629,o),
(476,547,cs),
(484,534,o),
(492,524,o),
(505,524,cs),
(514,524,o),
(524,531,o),
(524,544,cs),
(524,556,o),
(518,575,o),
(508,608,cs),
(486,679,ls),
(474,717,o),
(466,727,o),
(452,727,cs),
(432,727,o),
(430,707,o),
(408,707,cs),
(118,707,ls),
(97,707,o),
(95,727,o),
(75,727,cs),
(61,727,o),
(53,717,o),
(41,679,cs),
(19,608,ls),
(9,575,o),
(3,556,o),
(3,544,cs),
(3,531,o),
(12,524,o),
(21,524,cs),
(35,524,o),
(42,534,o),
(50,547,cs),
(100,629,o),
(125,658,o),
(172,658,cs),
(188,658,ls),
(215,658,o),
(221,645,o),
(221,618,cs),
(221,97,ls),
(221,33,o),
(165,54,o),
(165,18,cs),
(165,6,o),
(175,-2,o),
(188,-2,cs)
);
},
{
closed = 1;
nodes = (
(201,-226,o),
(209,-233,o),
(219,-233,cs),
(251,-233,o),
(310,-172,o),
(310,-100,cs),
(310,-61,o),
(287,-41,o),
(255,-41,cs),
(225,-41,o),
(203,-61,o),
(203,-89,cs),
(203,-107,o),
(211,-116,o),
(222,-124,cs),
(233,-133,o),
(243,-139,o),
(243,-152,cs),
(243,-173,o),
(227,-186,o),
(215,-196,cs),
(207,-203,o),
(201,-209,o),
(201,-217,cs)
);
}
);
width = 526;
}
);
note = uni021A;
unicode = 538;
},
{
glyphname = U;
kernLeft = U;
kernRight = U;
layers = (
{
hints = (
{
horizontal = 1;
place = (-12, 64);
place = (-12, 64);
type = Stem;
},
{
horizontal = 1;
place = (710, -20);
target = down;
type = TopGhost;
},
{
place = (60, 85);
place = (60, 85);
type = Stem;
},
{
place = (403, 56);
place = (403, 56);
type = Stem;
},
{
place = (415, 56);
place = (415, 56);
type = Stem;
}
);
layerId = m01;
shapes = (
{
closed = 1;
nodes = (
(373,-12,o),
(471,45,o),
(471,183,cs),
(471,201,o),
(469,227,o),
(468,241,cs),
(449,579,ls),
(448,596,o),
(447,612,o),
(447,620,cs),
(447,653,o),
(462,659,o),
(475,665,cs),
(485,671,o),
(495,676,o),
(495,690,cs),
(495,700,o),
(486,710,o),
(473,710,cs),
(458,710,o),
(434,707,o),
(418,707,cs),
(400,707,o),
(373,710,o),
(358,710,cs),
(342,710,o),
(335,698,o),
(335,689,cs),
(335,672,o),
(346,668,o),
(359,663,cs),
(374,656,o),
(391,647,o),
(393,613,cs),
(413,252,ls),
(414,226,o),
(415,204,o),
(415,190,cs),
(415,99,o),
(357,51,o),
(277,52,cs),
(197,53,o),
(145,99,o),
(145,192,cs),
(145,206,o),
(146,226,o),
(147,242,cs),
(166,613,ls),
(168,647,o),
(181,656,o),
(197,664,cs),
(207,670,o),
(217,675,o),
(217,689,cs),
(217,698,o),
(210,710,o),
(193,710,cs),
(180,710,o),
(155,707,o),
(124,707,cs),
(93,707,o),
(72,710,o),
(59,710,cs),
(42,710,o),
(36,698,o),
(36,689,cs),
(36,674,o),
(45,671,o),
(55,665,cs),
(67,659,o),
(80,653,o),
(80,620,cs),
(80,613,o),
(80,599,o),
(79,579,cs),
(62,243,ls),
(61,225,o),
(60,208,o),
(60,186,cs),
(60,49,o),
(153,-13,o),
(267,-12,cs)
);
}
);
width = 530;
}
);
note = U;
unicode = 85;
},
{
glyphname = Uacute;
kernLeft = U;
kernRight = U;
layers = (
{
hints = (
{
horizontal = 1;
place = (-12, 64);
place = (-12, 64);
type = Stem;
},
{
horizontal = 1;
place = (710, -20);
target = down;
type = TopGhost;
},
{
place = (60, 85);
place = (60, 85);
type = Stem;
},
{
place = (415, 56);
place = (415, 56);
type = Stem;
}
);
layerId = m01;
shapes = (
{
closed = 1;
nodes = (
(373,-12,o),
(471,45,o),
(471,183,cs),
(471,201,o),
(469,227,o),
(468,241,cs),
(449,579,ls),
(448,596,o),
(447,612,o),
(447,620,cs),
(447,653,o),
(462,659,o),
(475,665,cs),
(485,671,o),
(495,676,o),
(495,690,cs),
(495,700,o),
(486,710,o),
(473,710,cs),
(458,710,o),
(434,707,o),
(418,707,cs),
(400,707,o),
(373,710,o),
(358,710,cs),
(342,710,o),
(335,698,o),
(335,689,cs),
(335,672,o),
(346,668,o),
(359,663,cs),
(374,656,o),
(391,647,o),
(393,613,cs),
(413,252,ls),
(414,226,o),
(415,204,o),
(415,190,cs),
(415,99,o),
(357,51,o),
(277,52,cs),
(197,53,o),
(145,99,o),
(145,192,cs),
(145,206,o),
(146,226,o),
(147,242,cs),
(166,613,ls),
(168,647,o),
(181,656,o),
(197,664,cs),
(207,670,o),
(217,675,o),
(217,689,cs),
(217,698,o),
(210,710,o),
(193,710,cs),
(180,710,o),
(155,707,o),
(124,707,cs),
(93,707,o),
(72,710,o),
(59,710,cs),
(42,710,o),
(36,698,o),
(36,689,cs),
(36,674,o),
(45,671,o),
(55,665,cs),
(67,659,o),
(80,653,o),
(80,620,cs),
(80,613,o),
(80,599,o),
(79,579,cs),
(62,243,ls),
(61,225,o),
(60,208,o),
(60,186,cs),
(60,49,o),
(153,-13,o),
(267,-12,cs)
);
},
{
closed = 1;
nodes = (
(244,759,o),
(251,754,o),
(261,754,cs),
(271,754,o),
(279,756,o),
(292,775,cs),
(308,796,o),
(344,853,o),
(359,874,cs),
(373,895,o),
(384,911,o),
(384,921,cs),
(384,935,o),
(374,938,o),
(347,938,cs),
(324,938,o),
(317,934,o),
(308,918,cs),
(290,882,o),
(268,832,o),
(250,790,cs),
(247,783,o),
(244,773,o),
(244,767,cs)
);
}
);
width = 530;
}
);
note = Uacute;
unicode = 218;
},
{
glyphname = Ubreve;
kernLeft = U;
kernRight = U;
layers = (
{
hints = (
{
horizontal = 1;
place = (-12, 64);
place = (-12, 64);
type = Stem;
},
{
horizontal = 1;
place = (710, -20);
target = down;
type = TopGhost;
},
{
horizontal = 1;
place = (767, 61);
place = (767, 61);
type = Stem;
},
{
place = (60, 85);
place = (60, 85);
type = Stem;
},
{
place = (415, 56);
place = (415, 56);
type = Stem;
}
);
layerId = m01;
shapes = (
{
closed = 1;
nodes = (
(373,-12,o),
(471,45,o),
(471,183,cs),
(471,201,o),
(469,227,o),
(468,241,cs),
(449,579,ls),
(448,596,o),
(447,612,o),
(447,620,cs),
(447,653,o),
(462,659,o),
(475,665,cs),
(485,671,o),
(495,676,o),
(495,690,cs),
(495,700,o),
(486,710,o),
(473,710,cs),
(458,710,o),
(434,707,o),
(418,707,cs),
(400,707,o),
(373,710,o),
(358,710,cs),
(342,710,o),
(335,698,o),
(335,689,cs),
(335,672,o),
(346,668,o),
(359,663,cs),
(374,656,o),
(391,647,o),
(393,613,cs),
(413,252,ls),
(414,226,o),
(415,204,o),
(415,190,cs),
(415,99,o),
(357,51,o),
(277,52,cs),
(197,53,o),
(145,99,o),
(145,192,cs),
(145,206,o),
(146,226,o),
(147,242,cs),
(166,613,ls),
(168,647,o),
(181,656,o),
(197,664,cs),
(207,670,o),
(217,675,o),
(217,689,cs),
(217,698,o),
(210,710,o),
(193,710,cs),
(180,710,o),
(155,707,o),
(124,707,cs),
(93,707,o),
(72,710,o),
(59,710,cs),
(42,710,o),
(36,698,o),
(36,689,cs),
(36,674,o),
(45,671,o),
(55,665,cs),
(67,659,o),
(80,653,o),
(80,620,cs),
(80,613,o),
(80,599,o),
(79,579,cs),
(62,243,ls),
(61,225,o),
(60,208,o),
(60,186,cs),
(60,49,o),
(153,-13,o),
(267,-12,cs)
);
},
{
closed = 1;
nodes = (
(163,903,o),
(164,889,o),
(169,867,cs),
(185,801,o),
(222,767,o),
(272,767,cs),
(321,767,o),
(354,800,o),
(372,867,cs),
(377,887,o),
(380,904,o),
(380,914,cs),
(380,927,o),
(374,936,o),
(362,936,cs),
(346,936,o),
(338,917,o),
(332,896,cs),
(319,852,o),
(304,828,o),
(272,828,cs),
(240,828,o),
(223,850,o),
(210,895,cs),
(203,919,o),
(197,936,o),
(183,936,cs),
(171,936,o),
(163,926,o),
(163,913,cs)
);
}
);
width = 530;
}
);
note = Ubreve;
unicode = 364;
},
{
glyphname = Ucircumflex;
kernLeft = U;
kernRight = U;
layers = (
{
hints = (
{
horizontal = 1;
place = (-12, 64);
place = (-12, 64);
type = Stem;
},
{
horizontal = 1;
place = (710, -20);
target = down;
type = TopGhost;
},
{
place = (71, 86);
place = (71, 86);
type = Stem;
},
{
place = (403, 56);
place = (403, 56);
type = Stem;
},
{
place = (415, 56);
place = (415, 56);
type = Stem;
},
{
place = (60, 85);
place = (60, 85);
type = Stem;
}
);
layerId = m01;
shapes = (
{
closed = 1;
nodes = (
(373,-12,o),
(471,45,o),
(471,183,cs),
(471,201,o),
(469,227,o),
(468,241,cs),
(449,579,ls),
(448,596,o),
(447,612,o),
(447,620,cs),
(447,653,o),
(462,659,o),
(475,665,cs),
(485,671,o),
(495,676,o),
(495,690,cs),
(495,700,o),
(486,710,o),
(473,710,cs),
(458,710,o),
(434,707,o),
(418,707,cs),
(400,707,o),
(373,710,o),
(358,710,cs),
(342,710,o),
(335,698,o),
(335,689,cs),
(335,672,o),
(346,668,o),
(359,663,cs),
(374,656,o),
(391,647,o),
(393,613,cs),
(413,252,ls),
(414,226,o),
(415,204,o),
(415,190,cs),
(415,99,o),
(357,51,o),
(277,52,cs),
(197,53,o),
(145,99,o),
(145,192,cs),
(145,206,o),
(146,226,o),
(147,242,cs),
(166,613,ls),
(168,647,o),
(181,656,o),
(197,664,cs),
(207,670,o),
(217,675,o),
(217,689,cs),
(217,698,o),
(210,710,o),
(193,710,cs),
(180,710,o),
(155,707,o),
(124,707,cs),
(93,707,o),
(72,710,o),
(59,710,cs),
(42,710,o),
(36,698,o),
(36,689,cs),
(36,674,o),
(45,671,o),
(55,665,cs),
(67,659,o),
(80,653,o),
(80,620,cs),
(80,613,o),
(80,599,o),
(79,579,cs),
(62,243,ls),
(61,225,o),
(60,208,o),
(60,186,cs),
(60,49,o),
(153,-13,o),
(267,-12,cs)
);
},
{
closed = 1;
nodes = (
(161,768,o),
(169,762,o),
(180,762,cs),
(189,762,o),
(197,767,o),
(209,784,cs),
(272,875,l),
(335,784,ls),
(346,768,o),
(354,762,o),
(364,762,cs),
(375,762,o),
(382,768,o),
(382,778,cs),
(382,787,o),
(379,794,o),
(374,805,cs),
(365,823,o),
(337,878,o),
(314,916,cs),
(302,935,o),
(294,941,o),
(272,941,cs),
(249,941,o),
(240,934,o),
(231,917,cs),
(207,876,o),
(192,846,o),
(169,804,cs),
(164,793,o),
(161,787,o),
(161,778,cs)
);
}
);
width = 530;
}
);
note = Ucircumflex;
unicode = 219;
},
{
glyphname = Udieresis;
kernLeft = U;
kernRight = U;
layers = (
{
hints = (
{
horizontal = 1;
place = (-12, 64);
place = (-12, 64);
type = Stem;
},
{
horizontal = 1;
place = (710, -20);
target = down;
type = TopGhost;
},
{
horizontal = 1;
place = (788, 105);
place = (788, 105);
type = Stem;
},
{
place = (138, 113);
place = (138, 113);
type = Stem;
},
{
place = (293, 114);
place = (293, 114);
type = Stem;
},
{
place = (415, 56);
place = (415, 56);
type = Stem;
},
{
place = (60, 85);
place = (60, 85);
type = Stem;
}
);
layerId = m01;
shapes = (
{
closed = 1;
nodes = (
(373,-12,o),
(471,45,o),
(471,183,cs),
(471,201,o),
(469,227,o),
(468,241,cs),
(449,579,ls),
(448,596,o),
(447,612,o),
(447,620,cs),
(447,653,o),
(462,659,o),
(475,665,cs),
(485,671,o),
(495,676,o),
(495,690,cs),
(495,700,o),
(486,710,o),
(473,710,cs),
(458,710,o),
(434,707,o),
(418,707,cs),
(400,707,o),
(373,710,o),
(358,710,cs),
(342,710,o),
(335,698,o),
(335,689,cs),
(335,672,o),
(346,668,o),
(359,663,cs),
(374,656,o),
(391,647,o),
(393,613,cs),
(413,252,ls),
(414,226,o),
(415,204,o),
(415,190,cs),
(415,99,o),
(357,51,o),
(277,52,cs),
(197,53,o),
(145,99,o),
(145,192,cs),
(145,206,o),
(146,226,o),
(147,242,cs),
(166,613,ls),
(168,647,o),
(181,656,o),
(197,664,cs),
(207,670,o),
(217,675,o),
(217,689,cs),
(217,698,o),
(210,710,o),
(193,710,cs),
(180,710,o),
(155,707,o),
(124,707,cs),
(93,707,o),
(72,710,o),
(59,710,cs),
(42,710,o),
(36,698,o),
(36,689,cs),
(36,674,o),
(45,671,o),
(55,665,cs),
(67,659,o),
(80,653,o),
(80,620,cs),
(80,613,o),
(80,599,o),
(79,579,cs),
(62,243,ls),
(61,225,o),
(60,208,o),
(60,186,cs),
(60,49,o),
(153,-13,o),
(267,-12,cs)
);
},
{
closed = 1;
nodes = (
(138,808,o),
(161,788,o),
(195,788,cs),
(228,788,o),
(251,809,o),
(251,841,cs),
(251,873,o),
(228,893,o),
(195,893,cs),
(161,893,o),
(138,868,o),
(138,839,cs)
);
},
{
closed = 1;
nodes = (
(293,808,o),
(315,788,o),
(350,788,cs),
(383,788,o),
(407,809,o),
(407,841,cs),
(407,873,o),
(383,893,o),
(350,893,cs),
(315,893,o),
(293,868,o),
(293,839,cs)
);
}
);
width = 530;
}
);
note = Udieresis;
unicode = 220;
},
{
glyphname = Ugrave;
kernLeft = U;
kernRight = U;
layers = (
{
hints = (
{
horizontal = 1;
place = (-12, 64);
place = (-12, 64);
type = Stem;
},
{
horizontal = 1;
place = (710, -20);
target = down;
type = TopGhost;
},
{
place = (60, 85);
place = (60, 85);
type = Stem;
},
{
place = (415, 56);
place = (415, 56);
type = Stem;
}
);
layerId = m01;
shapes = (
{
closed = 1;
nodes = (
(373,-12,o),
(471,45,o),
(471,183,cs),
(471,201,o),
(469,227,o),
(468,241,cs),
(449,579,ls),
(448,596,o),
(447,612,o),
(447,620,cs),
(447,653,o),
(462,659,o),
(475,665,cs),
(485,671,o),
(495,676,o),
(495,690,cs),
(495,700,o),
(486,710,o),
(473,710,cs),
(458,710,o),
(434,707,o),
(418,707,cs),
(400,707,o),
(373,710,o),
(358,710,cs),
(342,710,o),
(335,698,o),
(335,689,cs),
(335,672,o),
(346,668,o),
(359,663,cs),
(374,656,o),
(391,647,o),
(393,613,cs),
(413,252,ls),
(414,226,o),
(415,204,o),
(415,190,cs),
(415,99,o),
(357,51,o),
(277,52,cs),
(197,53,o),
(145,99,o),
(145,192,cs),
(145,206,o),
(146,226,o),
(147,242,cs),
(166,613,ls),
(168,647,o),
(181,656,o),
(197,664,cs),
(207,670,o),
(217,675,o),
(217,689,cs),
(217,698,o),
(210,710,o),
(193,710,cs),
(180,710,o),
(155,707,o),
(124,707,cs),
(93,707,o),
(72,710,o),
(59,710,cs),
(42,710,o),
(36,698,o),
(36,689,cs),
(36,674,o),
(45,671,o),
(55,665,cs),
(67,659,o),
(80,653,o),
(80,620,cs),
(80,613,o),
(80,599,o),
(79,579,cs),
(62,243,ls),
(61,225,o),
(60,208,o),
(60,186,cs),
(60,49,o),
(153,-13,o),
(267,-12,cs)
);
},
{
closed = 1;
nodes = (
(161,911,o),
(169,899,o),
(185,875,cs),
(197,859,o),
(235,798,o),
(252,775,cs),
(265,756,o),
(273,754,o),
(283,754,cs),
(293,754,o),
(300,759,o),
(300,767,cs),
(300,772,o),
(298,780,o),
(293,791,cs),
(272,844,o),
(256,882,o),
(235,919,cs),
(227,934,o),
(221,939,o),
(198,939,cs),
(169,939,o),
(161,936,o),
(161,921,cs)
);
}
);
width = 530;
}
);
note = Ugrave;
unicode = 217;
},
{
glyphname = Uhungarumlaut;
kernLeft = U;
kernRight = U;
layers = (
{
hints = (
{
horizontal = 1;
place = (-12, 64);
place = (-12, 64);
type = Stem;
},
{
horizontal = 1;
place = (710, -20);
target = down;
type = TopGhost;
},
{
place = (71, 86);
place = (71, 86);
type = Stem;
},
{
place = (415, 56);
place = (415, 56);
type = Stem;
},
{
place = (60, 85);
place = (60, 85);
type = Stem;
},
{
place = (403, 56);
place = (403, 56);
type = Stem;
}
);
layerId = m01;
shapes = (
{
closed = 1;
nodes = (
(373,-12,o),
(471,45,o),
(471,183,cs),
(471,201,o),
(469,227,o),
(468,241,cs),
(449,579,ls),
(448,596,o),
(447,612,o),
(447,620,cs),
(447,653,o),
(462,659,o),
(475,665,cs),
(485,671,o),
(495,676,o),
(495,690,cs),
(495,700,o),
(486,710,o),
(473,710,cs),
(458,710,o),
(434,707,o),
(418,707,cs),
(400,707,o),
(373,710,o),
(358,710,cs),
(342,710,o),
(335,698,o),
(335,689,cs),
(335,672,o),
(346,668,o),
(359,663,cs),
(374,656,o),
(391,647,o),
(393,613,cs),
(413,252,ls),
(414,226,o),
(415,204,o),
(415,190,cs),
(415,99,o),
(357,51,o),
(277,52,cs),
(197,53,o),
(145,99,o),
(145,192,cs),
(145,206,o),
(146,226,o),
(147,242,cs),
(166,613,ls),
(168,647,o),
(181,656,o),
(197,664,cs),
(207,670,o),
(217,675,o),
(217,689,cs),
(217,698,o),
(210,710,o),
(193,710,cs),
(180,710,o),
(155,707,o),
(124,707,cs),
(93,707,o),
(72,710,o),
(59,710,cs),
(42,710,o),
(36,698,o),
(36,689,cs),
(36,674,o),
(45,671,o),
(55,665,cs),
(67,659,o),
(80,653,o),
(80,620,cs),
(80,613,o),
(80,599,o),
(79,579,cs),
(62,243,ls),
(61,225,o),
(60,208,o),
(60,186,cs),
(60,49,o),
(153,-13,o),
(267,-12,cs)
);
},
{
closed = 1;
nodes = (
(203,752,o),
(210,747,o),
(218,747,cs),
(227,747,o),
(234,750,o),
(243,767,cs),
(264,810,o),
(278,840,o),
(294,875,cs),
(303,894,o),
(312,907,o),
(312,920,cs),
(312,934,o),
(301,939,o),
(281,939,cs),
(263,939,o),
(254,935,o),
(248,917,cs),
(236,883,o),
(218,829,o),
(208,788,cs),
(205,776,o),
(203,766,o),
(203,761,cs)
);
},
{
closed = 1;
nodes = (
(312,752,o),
(317,747,o),
(326,747,cs),
(335,747,o),
(343,750,o),
(353,768,cs),
(377,815,o),
(389,843,o),
(404,876,cs),
(414,896,o),
(421,909,o),
(421,920,cs),
(421,933,o),
(412,939,o),
(391,939,cs),
(372,939,o),
(364,934,o),
(357,916,cs),
(341,874,o),
(327,819,o),
(317,787,cs),
(315,780,o),
(312,766,o),
(312,761,cs)
);
}
);
width = 530;
}
);
note = Uhungarumlaut;
unicode = 368;
},
{
glyphname = Umacron;
kernLeft = U;
kernRight = U;
layers = (
{
hints = (
{
horizontal = 1;
place = (-12, 64);
place = (-12, 64);
type = Stem;
},
{
horizontal = 1;
place = (710, -20);
target = down;
type = TopGhost;
},
{
horizontal = 1;
place = (813, 59);
place = (813, 59);
type = Stem;
},
{
place = (60, 85);
place = (60, 85);
type = Stem;
},
{
place = (403, 56);
place = (403, 56);
type = Stem;
},
{
place = (415, 56);
place = (415, 56);
type = Stem;
},
{
place = (71, 86);
place = (71, 86);
type = Stem;
}
);
layerId = m01;
shapes = (
{
closed = 1;
nodes = (
(373,-12,o),
(471,45,o),
(471,183,cs),
(471,201,o),
(469,227,o),
(468,241,cs),
(449,579,ls),
(448,596,o),
(447,612,o),
(447,620,cs),
(447,653,o),
(462,659,o),
(475,665,cs),
(485,671,o),
(495,676,o),
(495,690,cs),
(495,700,o),
(486,710,o),
(473,710,cs),
(458,710,o),
(434,707,o),
(418,707,cs),
(400,707,o),
(373,710,o),
(358,710,cs),
(342,710,o),
(335,698,o),
(335,689,cs),
(335,672,o),
(346,668,o),
(359,663,cs),
(374,656,o),
(391,647,o),
(393,613,cs),
(413,252,ls),
(414,226,o),
(415,204,o),
(415,190,cs),
(415,99,o),
(357,51,o),
(277,52,cs),
(197,53,o),
(145,99,o),
(145,192,cs),
(145,206,o),
(146,226,o),
(147,242,cs),
(166,613,ls),
(168,647,o),
(181,656,o),
(197,664,cs),
(207,670,o),
(217,675,o),
(217,689,cs),
(217,698,o),
(210,710,o),
(193,710,cs),
(180,710,o),
(155,707,o),
(124,707,cs),
(93,707,o),
(72,710,o),
(59,710,cs),
(42,710,o),
(36,698,o),
(36,689,cs),
(36,674,o),
(45,671,o),
(55,665,cs),
(67,659,o),
(80,653,o),
(80,620,cs),
(80,613,o),
(80,599,o),
(79,579,cs),
(62,243,ls),
(61,225,o),
(60,208,o),
(60,186,cs),
(60,49,o),
(153,-13,o),
(267,-12,cs)
);
},
{
closed = 1;
nodes = (
(157,824,o),
(164,813,o),
(179,813,cs),
(194,813,o),
(251,814,o),
(272,814,cs),
(363,813,ls),
(379,813,o),
(385,824,o),
(385,843,cs),
(385,862,o),
(379,873,o),
(363,873,cs),
(348,873,o),
(291,872,o),
(271,872,cs),
(179,873,ls),
(164,873,o),
(157,863,o),
(157,843,cs)
);
}
);
width = 530;
}
);
note = Umacron;
unicode = 362;
},
{
glyphname = Uogonek;
kernLeft = U;
kernRight = U;
layers = (
{
hints = (
{
horizontal = 1;
place = (-199, 43);
place = (-199, 43);
type = Stem;
},
{
horizontal = 1;
place = (-12, 64);
place = (-12, 64);
type = Stem;
},
{
horizontal = 1;
place = (710, -20);
target = down;
type = TopGhost;
},
{
place = (71, 86);
place = (71, 86);
type = Stem;
},
{
place = (205, 54);
place = (205, 54);
type = Stem;
},
{
place = (403, 56);
place = (403, 56);
type = Stem;
},
{
place = (415, 56);
place = (415, 56);
type = Stem;
},
{
place = (60, 85);
place = (60, 85);
type = Stem;
}
);
layerId = m01;
shapes = (
{
closed = 1;
nodes = (
(291,-199,o),
(309,-192,o),
(322,-179,c),
(328,-171,o),
(331,-165,o),
(331,-158,cs),
(331,-149,o),
(327,-144,o),
(318,-144,cs),
(315,-144,o),
(312,-145,o),
(307,-148,cs),
(301,-153,o),
(295,-156,o),
(287,-156,cs),
(269,-156,o),
(259,-140,o),
(259,-112,cs),
(259,-74,o),
(277,-41,o),
(299,-10,c),
(392,0,o),
(471,59,o),
(471,183,cs),
(471,201,o),
(469,227,o),
(468,241,cs),
(449,579,ls),
(448,596,o),
(447,612,o),
(447,620,cs),
(447,653,o),
(462,659,o),
(475,665,cs),
(485,671,o),
(495,676,o),
(495,690,cs),
(495,700,o),
(486,710,o),
(473,710,cs),
(458,710,o),
(434,707,o),
(418,707,cs),
(400,707,o),
(373,710,o),
(358,710,cs),
(342,710,o),
(335,698,o),
(335,689,cs),
(335,672,o),
(346,668,o),
(359,663,cs),
(374,656,o),
(391,647,o),
(393,613,cs),
(413,252,ls),
(414,226,o),
(415,204,o),
(415,190,cs),
(415,99,o),
(357,51,o),
(277,52,cs),
(197,53,o),
(145,99,o),
(145,192,cs),
(145,206,o),
(146,226,o),
(147,242,cs),
(166,613,ls),
(168,647,o),
(181,656,o),
(197,664,cs),
(207,670,o),
(217,675,o),
(217,689,cs),
(217,698,o),
(210,710,o),
(193,710,cs),
(180,710,o),
(155,707,o),
(124,707,cs),
(93,707,o),
(72,710,o),
(59,710,cs),
(42,710,o),
(36,698,o),
(36,689,cs),
(36,674,o),
(45,671,o),
(55,665,cs),
(67,659,o),
(80,653,o),
(80,620,cs),
(80,613,o),
(80,599,o),
(79,579,cs),
(62,243,ls),
(61,225,o),
(60,208,o),
(60,186,cs),
(60,54,o),
(146,-8,o),
(254,-12,c),
(225,-49,o),
(205,-87,o),
(205,-125,cs),
(205,-176,o),
(239,-199,o),
(271,-199,cs)
);
}
);
width = 530;
}
);
note = Uogonek;
unicode = 370;
},
{
glyphname = Uring;
kernLeft = U;
kernRight = U;
layers = (
{
hints = (
{
horizontal = 1;
place = (-12, 64);
place = (-12, 64);
type = Stem;
},
{
horizontal = 1;
place = (710, -20);
target = down;
type = TopGhost;
},
{
horizontal = 1;
place = (745, 37);
place = (745, 37);
type = Stem;
},
{
horizontal = 1;
place = (909, 37);
place = (909, 37);
type = Stem;
},
{
place = (60, 85);
place = (60, 85);
type = Stem;
},
{
place = (180, 48);
place = (180, 48);
type = Stem;
},
{
place = (316, 48);
place = (316, 48);
type = Stem;
},
{
place = (415, 56);
place = (415, 56);
type = Stem;
}
);
layerId = m01;
shapes = (
{
closed = 1;
nodes = (
(373,-12,o),
(471,45,o),
(471,183,cs),
(471,201,o),
(469,227,o),
(468,241,cs),
(449,579,ls),
(448,596,o),
(447,612,o),
(447,620,cs),
(447,653,o),
(462,659,o),
(475,665,cs),
(485,671,o),
(495,676,o),
(495,690,cs),
(495,700,o),
(486,710,o),
(473,710,cs),
(458,710,o),
(434,707,o),
(418,707,cs),
(400,707,o),
(373,710,o),
(358,710,cs),
(342,710,o),
(335,698,o),
(335,689,cs),
(335,672,o),
(346,668,o),
(359,663,cs),
(374,656,o),
(391,647,o),
(393,613,cs),
(413,252,ls),
(414,226,o),
(415,204,o),
(415,190,cs),
(415,99,o),
(357,51,o),
(277,52,cs),
(197,53,o),
(145,99,o),
(145,192,cs),
(145,206,o),
(146,226,o),
(147,242,cs),
(166,613,ls),
(168,647,o),
(181,656,o),
(197,664,cs),
(207,670,o),
(217,675,o),
(217,689,cs),
(217,698,o),
(210,710,o),
(193,710,cs),
(180,710,o),
(155,707,o),
(124,707,cs),
(93,707,o),
(72,710,o),
(59,710,cs),
(42,710,o),
(36,698,o),
(36,689,cs),
(36,674,o),
(45,671,o),
(55,665,cs),
(67,659,o),
(80,653,o),
(80,620,cs),
(80,613,o),
(80,599,o),
(79,579,cs),
(62,243,ls),
(61,225,o),
(60,208,o),
(60,186,cs),
(60,49,o),
(153,-13,o),
(267,-12,cs)
);
},
{
closed = 1;
nodes = (
(180,781,o),
(213,745,o),
(271,745,cs),
(329,745,o),
(364,784,o),
(364,850,cs),
(364,910,o),
(331,946,o),
(275,946,cs),
(216,946,o),
(180,908,o),
(180,846,cs)
);
},
{
closed = 1;
nodes = (
(228,887,o),
(245,909,o),
(273,909,cs),
(299,909,o),
(316,886,o),
(316,845,cs),
(316,804,o),
(301,782,o),
(272,782,cs),
(245,782,o),
(228,806,o),
(228,845,cs)
);
}
);
width = 530;
}
);
note = Uring;
unicode = 366;
},
{
glyphname = Utilde;
kernLeft = U;
kernRight = U;
layers = (
{
hints = (
{
horizontal = 1;
place = (-12, 64);
place = (-12, 64);
type = Stem;
},
{
horizontal = 1;
place = (710, -20);
target = down;
type = TopGhost;
},
{
horizontal = 1;
place = (776, 60);
place = (776, 60);
type = Stem;
},
{
horizontal = 1;
place = (855, 60);
place = (855, 60);
type = Stem;
},
{
place = (60, 85);
place = (60, 85);
type = Stem;
},
{
place = (415, 56);
place = (415, 56);
type = Stem;
},
{
place = (71, 86);
place = (71, 86);
type = Stem;
}
);
layerId = m01;
shapes = (
{
closed = 1;
nodes = (
(373,-12,o),
(471,45,o),
(471,183,cs),
(471,201,o),
(469,227,o),
(468,241,cs),
(449,579,ls),
(448,596,o),
(447,612,o),
(447,620,cs),
(447,653,o),
(462,659,o),
(475,665,cs),
(485,671,o),
(495,676,o),
(495,690,cs),
(495,700,o),
(486,710,o),
(473,710,cs),
(458,710,o),
(434,707,o),
(418,707,cs),
(400,707,o),
(373,710,o),
(358,710,cs),
(342,710,o),
(335,698,o),
(335,689,cs),
(335,672,o),
(346,668,o),
(359,663,cs),
(374,656,o),
(391,647,o),
(393,613,cs),
(413,252,ls),
(414,226,o),
(415,204,o),
(415,190,cs),
(415,99,o),
(357,51,o),
(277,52,cs),
(197,53,o),
(145,99,o),
(145,192,cs),
(145,206,o),
(146,226,o),
(147,242,cs),
(166,613,ls),
(168,647,o),
(181,656,o),
(197,664,cs),
(207,670,o),
(217,675,o),
(217,689,cs),
(217,698,o),
(210,710,o),
(193,710,cs),
(180,710,o),
(155,707,o),
(124,707,cs),
(93,707,o),
(72,710,o),
(59,710,cs),
(42,710,o),
(36,698,o),
(36,689,cs),
(36,674,o),
(45,671,o),
(55,665,cs),
(67,659,o),
(80,653,o),
(80,620,cs),
(80,613,o),
(80,599,o),
(79,579,cs),
(62,243,ls),
(61,225,o),
(60,208,o),
(60,186,cs),
(60,49,o),
(153,-13,o),
(267,-12,cs)
);
},
{
closed = 1;
nodes = (
(151,791,o),
(158,784,o),
(168,784,cs),
(179,784,o),
(183,796,o),
(191,819,cs),
(201,847,o),
(211,855,o),
(219,855,cs),
(240,855,o),
(276,776,o),
(321,776,cs),
(360,776,o),
(379,818,o),
(389,856,cs),
(393,871,o),
(394,882,o),
(394,887,cs),
(394,899,o),
(387,906,o),
(377,906,cs),
(364,906,o),
(358,891,o),
(352,873,cs),
(344,847,o),
(335,836,o),
(326,836,cs),
(297,836,o),
(268,915,o),
(223,915,cs),
(186,915,o),
(164,868,o),
(156,835,cs),
(152,819,o),
(151,810,o),
(151,805,cs)
);
}
);
width = 530;
}
);
note = Utilde;
unicode = 360;
},
{
glyphname = V;
kernLeft = V;
kernRight = V;
layers = (
{
hints = (
{
horizontal = 1;
place = (-10, 21);
target = up;
type = BottomGhost;
},
{
horizontal = 1;
place = (710, -20);
target = down;
type = TopGhost;
},
{
place = (429, 116);
place = (429, 116);
type = Stem;
},
{
place = (376, 169);
place = (376, 169);
type = Stem;
},
{
place = (3, 542);
place = (3, 542);
type = Stem;
}
);
layerId = m01;
shapes = (
{
closed = 1;
nodes = (
(308,-10,o),
(315,1,o),
(319,15,cs),
(486,612,ls),
(504,678,o),
(545,659,o),
(545,691,cs),
(545,703,o),
(535,710,o),
(524,710,cs),
(510,710,o),
(491,707,o),
(465,707,cs),
(441,707,o),
(421,710,o),
(399,710,cs),
(385,710,o),
(376,704,o),
(376,690,cs),
(376,660,o),
(429,669,o),
(429,624,cs),
(429,615,o),
(426,596,o),
(422,581,cs),
(290,96,l),
(158,580,ls),
(154,597,o),
(149,618,o),
(149,627,cs),
(149,667,o),
(199,660,o),
(199,690,cs),
(199,704,o),
(189,710,o),
(175,710,cs),
(154,710,o),
(124,707,o),
(91,707,cs),
(60,707,o),
(37,710,o),
(25,710,cs),
(13,710,o),
(3,702,o),
(3,690,cs),
(3,657,o),
(44,676,o),
(63,608,cs),
(228,15,ls),
(232,1,o),
(240,-10,o),
(274,-10,cs)
);
}
);
width = 548;
}
);
note = V;
unicode = 86;
},
{
glyphname = W;
kernLeft = W;
kernRight = W;
layers = (
{
hints = (
{
horizontal = 1;
place = (-10, 21);
target = up;
type = BottomGhost;
},
{
horizontal = 1;
place = (710, -20);
target = down;
type = TopGhost;
},
{
place = (1, 138);
place = (1, 138);
type = Stem;
},
{
place = (294, 132);
place = (294, 132);
type = Stem;
},
{
place = (1, 767);
place = (1, 767);
type = Stem;
},
{
place = (613, 155);
place = (613, 155);
type = Stem;
},
{
place = (661, 107);
place = (661, 107);
type = Stem;
},
{
place = (294, 177);
place = (294, 177);
type = Stem;
}
);
layerId = m01;
shapes = (
{
closed = 1;
nodes = (
(559,-10,o),
(569,-3,o),
(574,15,cs),
(715,613,ls),
(729,673,o),
(768,661,o),
(768,692,cs),
(768,702,o),
(760,710,o),
(746,710,cs),
(733,710,o),
(716,707,o),
(696,707,cs),
(675,707,o),
(654,710,o),
(636,710,cs),
(622,710,o),
(613,700,o),
(613,690,cs),
(613,660,o),
(661,665,o),
(661,633,cs),
(661,618,o),
(659,606,o),
(651,570,cs),
(547,115,l),
(437,572,ls),
(430,602,o),
(426,620,o),
(426,633,cs),
(426,665,o),
(471,660,o),
(471,690,cs),
(471,704,o),
(460,710,o),
(448,710,cs),
(430,710,o),
(413,707,o),
(380,707,cs),
(344,707,o),
(329,710,o),
(315,710,cs),
(304,710,o),
(294,703,o),
(294,690,cs),
(294,660,o),
(327,675,o),
(343,609,cs),
(359,545,l),
(260,112,l),
(149,572,ls),
(142,600,o),
(139,617,o),
(139,633,cs),
(139,665,o),
(178,665,o),
(178,690,cs),
(178,704,o),
(170,710,o),
(156,710,cs),
(137,710,o),
(113,707,o),
(84,707,cs),
(54,707,o),
(33,710,o),
(23,710,cs),
(9,710,o),
(1,701,o),
(1,690,cs),
(1,659,o),
(37,676,o),
(54,609,cs),
(201,15,ls),
(205,0,o),
(208,-10,o),
(243,-10,cs),
(272,-10,o),
(282,-4,o),
(286,15,cs),
(385,438,l),
(489,15,ls),
(493,-4,o),
(502,-10,o),
(531,-10,cs)
);
}
);
width = 771;
}
);
note = W;
unicode = 87;
},
{
glyphname = Wacute;
kernLeft = W;
kernRight = W;
layers = (
{
hints = (
{
horizontal = 1;
place = (-10, 21);
target = up;
type = BottomGhost;
},
{
horizontal = 1;
place = (710, -20);
target = down;
type = TopGhost;
},
{
place = (1, 138);
place = (1, 138);
type = Stem;
},
{
place = (294, 132);
place = (294, 132);
type = Stem;
},
{
place = (613, 155);
place = (613, 155);
type = Stem;
},
{
place = (661, 107);
place = (661, 107);
type = Stem;
},
{
place = (294, 177);
place = (294, 177);
type = Stem;
}
);
layerId = m01;
shapes = (
{
closed = 1;
nodes = (
(559,-10,o),
(569,-3,o),
(574,15,cs),
(715,613,ls),
(729,673,o),
(768,661,o),
(768,692,cs),
(768,702,o),
(760,710,o),
(746,710,cs),
(733,710,o),
(716,707,o),
(696,707,cs),
(675,707,o),
(654,710,o),
(636,710,cs),
(622,710,o),
(613,700,o),
(613,690,cs),
(613,660,o),
(661,665,o),
(661,633,cs),
(661,618,o),
(659,606,o),
(651,570,cs),
(547,115,l),
(437,572,ls),
(430,602,o),
(426,620,o),
(426,633,cs),
(426,665,o),
(471,660,o),
(471,690,cs),
(471,704,o),
(460,710,o),
(448,710,cs),
(430,710,o),
(413,707,o),
(380,707,cs),
(344,707,o),
(329,710,o),
(315,710,cs),
(304,710,o),
(294,703,o),
(294,690,cs),
(294,660,o),
(327,675,o),
(343,609,cs),
(359,545,l),
(260,112,l),
(149,572,ls),
(142,600,o),
(139,617,o),
(139,633,cs),
(139,665,o),
(178,665,o),
(178,690,cs),
(178,704,o),
(170,710,o),
(156,710,cs),
(137,710,o),
(113,707,o),
(84,707,cs),
(54,707,o),
(33,710,o),
(23,710,cs),
(9,710,o),
(1,701,o),
(1,690,cs),
(1,659,o),
(37,676,o),
(54,609,cs),
(201,15,ls),
(205,0,o),
(208,-10,o),
(243,-10,cs),
(272,-10,o),
(282,-4,o),
(286,15,cs),
(385,438,l),
(489,15,ls),
(493,-4,o),
(502,-10,o),
(531,-10,cs)
);
},
{
closed = 1;
nodes = (
(363,758,o),
(370,753,o),
(380,753,cs),
(390,753,o),
(398,755,o),
(411,774,cs),
(427,795,o),
(463,852,o),
(478,873,cs),
(492,894,o),
(503,910,o),
(503,920,cs),
(503,934,o),
(493,937,o),
(466,937,cs),
(443,937,o),
(436,933,o),
(427,917,cs),
(409,881,o),
(387,831,o),
(369,789,cs),
(366,782,o),
(363,772,o),
(363,766,cs)
);
}
);
width = 771;
}
);
note = Wacute;
unicode = 7810;
},
{
glyphname = Wcircumflex;
kernLeft = W;
kernRight = W;
layers = (
{
hints = (
{
horizontal = 1;
place = (-10, 21);
target = up;
type = BottomGhost;
},
{
horizontal = 1;
place = (710, -20);
target = down;
type = TopGhost;
},
{
place = (1, 767);
place = (1, 767);
type = Stem;
},
{
place = (613, 155);
place = (613, 155);
type = Stem;
},
{
place = (661, 107);
place = (661, 107);
type = Stem;
},
{
place = (294, 132);
place = (294, 132);
type = Stem;
},
{
place = (294, 177);
place = (294, 177);
type = Stem;
},
{
place = (1, 138);
place = (1, 138);
type = Stem;
}
);
layerId = m01;
shapes = (
{
closed = 1;
nodes = (
(559,-10,o),
(569,-3,o),
(574,15,cs),
(715,613,ls),
(729,673,o),
(768,661,o),
(768,692,cs),
(768,702,o),
(760,710,o),
(746,710,cs),
(733,710,o),
(716,707,o),
(696,707,cs),
(675,707,o),
(654,710,o),
(636,710,cs),
(622,710,o),
(613,700,o),
(613,690,cs),
(613,660,o),
(661,665,o),
(661,633,cs),
(661,618,o),
(659,606,o),
(651,570,cs),
(547,115,l),
(437,572,ls),
(430,602,o),
(426,620,o),
(426,633,cs),
(426,665,o),
(471,660,o),
(471,690,cs),
(471,704,o),
(460,710,o),
(448,710,cs),
(430,710,o),
(413,707,o),
(380,707,cs),
(344,707,o),
(329,710,o),
(315,710,cs),
(304,710,o),
(294,703,o),
(294,690,cs),
(294,660,o),
(327,675,o),
(343,609,cs),
(359,545,l),
(260,112,l),
(149,572,ls),
(142,600,o),
(139,617,o),
(139,633,cs),
(139,665,o),
(178,665,o),
(178,690,cs),
(178,704,o),
(170,710,o),
(156,710,cs),
(137,710,o),
(113,707,o),
(84,707,cs),
(54,707,o),
(33,710,o),
(23,710,cs),
(9,710,o),
(1,701,o),
(1,690,cs),
(1,659,o),
(37,676,o),
(54,609,cs),
(201,15,ls),
(205,0,o),
(208,-10,o),
(243,-10,cs),
(272,-10,o),
(282,-4,o),
(286,15,cs),
(385,438,l),
(489,15,ls),
(493,-4,o),
(502,-10,o),
(531,-10,cs)
);
},
{
closed = 1;
nodes = (
(280,767,o),
(288,761,o),
(299,761,cs),
(308,761,o),
(316,766,o),
(328,783,cs),
(391,874,l),
(454,783,ls),
(465,767,o),
(473,761,o),
(483,761,cs),
(494,761,o),
(501,767,o),
(501,777,cs),
(501,786,o),
(498,793,o),
(493,804,cs),
(484,822,o),
(456,877,o),
(433,915,cs),
(421,934,o),
(413,940,o),
(391,940,cs),
(368,940,o),
(359,933,o),
(350,916,cs),
(326,875,o),
(311,845,o),
(288,803,cs),
(283,792,o),
(280,786,o),
(280,777,cs)
);
}
);
width = 771;
}
);
note = Wcircumflex;
unicode = 372;
},
{
glyphname = Wdieresis;
kernLeft = W;
kernRight = W;
layers = (
{
hints = (
{
horizontal = 1;
place = (-10, 21);
target = up;
type = BottomGhost;
},
{
horizontal = 1;
place = (710, -20);
target = down;
type = TopGhost;
},
{
horizontal = 1;
place = (787, 105);
place = (787, 105);
type = Stem;
},
{
place = (1, 138);
place = (1, 138);
type = Stem;
},
{
place = (294, 132);
place = (294, 132);
type = Stem;
},
{
place = (661, 107);
place = (661, 107);
type = Stem;
},
{
place = (613, 155);
place = (613, 155);
type = Stem;
},
{
place = (294, 177);
place = (294, 177);
type = Stem;
},
{
place = (257, 113);
place = (257, 113);
type = Stem;
},
{
place = (412, 114);
place = (412, 114);
type = Stem;
}
);
layerId = m01;
shapes = (
{
closed = 1;
nodes = (
(559,-10,o),
(569,-3,o),
(574,15,cs),
(715,613,ls),
(729,673,o),
(768,661,o),
(768,692,cs),
(768,702,o),
(760,710,o),
(746,710,cs),
(733,710,o),
(716,707,o),
(696,707,cs),
(675,707,o),
(654,710,o),
(636,710,cs),
(622,710,o),
(613,700,o),
(613,690,cs),
(613,660,o),
(661,665,o),
(661,633,cs),
(661,618,o),
(659,606,o),
(651,570,cs),
(547,115,l),
(437,572,ls),
(430,602,o),
(426,620,o),
(426,633,cs),
(426,665,o),
(471,660,o),
(471,690,cs),
(471,704,o),
(460,710,o),
(448,710,cs),
(430,710,o),
(413,707,o),
(380,707,cs),
(344,707,o),
(329,710,o),
(315,710,cs),
(304,710,o),
(294,703,o),
(294,690,cs),
(294,660,o),
(327,675,o),
(343,609,cs),
(359,545,l),
(260,112,l),
(149,572,ls),
(142,600,o),
(139,617,o),
(139,633,cs),
(139,665,o),
(178,665,o),
(178,690,cs),
(178,704,o),
(170,710,o),
(156,710,cs),
(137,710,o),
(113,707,o),
(84,707,cs),
(54,707,o),
(33,710,o),
(23,710,cs),
(9,710,o),
(1,701,o),
(1,690,cs),
(1,659,o),
(37,676,o),
(54,609,cs),
(201,15,ls),
(205,0,o),
(208,-10,o),
(243,-10,cs),
(272,-10,o),
(282,-4,o),
(286,15,cs),
(385,438,l),
(489,15,ls),
(493,-4,o),
(502,-10,o),
(531,-10,cs)
);
},
{
closed = 1;
nodes = (
(257,807,o),
(280,787,o),
(314,787,cs),
(347,787,o),
(370,808,o),
(370,840,cs),
(370,872,o),
(347,892,o),
(314,892,cs),
(280,892,o),
(257,867,o),
(257,838,cs)
);
},
{
closed = 1;
nodes = (
(412,807,o),
(434,787,o),
(469,787,cs),
(502,787,o),
(526,808,o),
(526,840,cs),
(526,872,o),
(502,892,o),
(469,892,cs),
(434,892,o),
(412,867,o),
(412,838,cs)
);
}
);
width = 771;
}
);
note = Wdieresis;
unicode = 7812;
},
{
glyphname = Wgrave;
kernLeft = W;
kernRight = W;
layers = (
{
hints = (
{
horizontal = 1;
place = (-10, 21);
target = up;
type = BottomGhost;
},
{
horizontal = 1;
place = (710, -20);
target = down;
type = TopGhost;
},
{
place = (1, 138);
place = (1, 138);
type = Stem;
},
{
place = (294, 132);
place = (294, 132);
type = Stem;
},
{
place = (1, 767);
place = (1, 767);
type = Stem;
},
{
place = (613, 155);
place = (613, 155);
type = Stem;
},
{
place = (661, 107);
place = (661, 107);
type = Stem;
},
{
place = (294, 177);
place = (294, 177);
type = Stem;
}
);
layerId = m01;
shapes = (
{
closed = 1;
nodes = (
(559,-10,o),
(569,-3,o),
(574,15,cs),
(715,613,ls),
(729,673,o),
(768,661,o),
(768,692,cs),
(768,702,o),
(760,710,o),
(746,710,cs),
(733,710,o),
(716,707,o),
(696,707,cs),
(675,707,o),
(654,710,o),
(636,710,cs),
(622,710,o),
(613,700,o),
(613,690,cs),
(613,660,o),
(661,665,o),
(661,633,cs),
(661,618,o),
(659,606,o),
(651,570,cs),
(547,115,l),
(437,572,ls),
(430,602,o),
(426,620,o),
(426,633,cs),
(426,665,o),
(471,660,o),
(471,690,cs),
(471,704,o),
(460,710,o),
(448,710,cs),
(430,710,o),
(413,707,o),
(380,707,cs),
(344,707,o),
(329,710,o),
(315,710,cs),
(304,710,o),
(294,703,o),
(294,690,cs),
(294,660,o),
(327,675,o),
(343,609,cs),
(359,545,l),
(260,112,l),
(149,572,ls),
(142,600,o),
(139,617,o),
(139,633,cs),
(139,665,o),
(178,665,o),
(178,690,cs),
(178,704,o),
(170,710,o),
(156,710,cs),
(137,710,o),
(113,707,o),
(84,707,cs),
(54,707,o),
(33,710,o),
(23,710,cs),
(9,710,o),
(1,701,o),
(1,690,cs),
(1,659,o),
(37,676,o),
(54,609,cs),
(201,15,ls),
(205,0,o),
(208,-10,o),
(243,-10,cs),
(272,-10,o),
(282,-4,o),
(286,15,cs),
(385,438,l),
(489,15,ls),
(493,-4,o),
(502,-10,o),
(531,-10,cs)
);
},
{
closed = 1;
nodes = (
(281,910,o),
(289,898,o),
(305,874,cs),
(317,858,o),
(355,797,o),
(372,774,cs),
(385,755,o),
(393,753,o),
(403,753,cs),
(413,753,o),
(420,758,o),
(420,766,cs),
(420,771,o),
(418,779,o),
(413,790,cs),
(392,843,o),
(376,881,o),
(355,918,cs),
(347,933,o),
(341,938,o),
(318,938,cs),
(289,938,o),
(281,935,o),
(281,920,cs)
);
}
);
width = 771;
}
);
note = Wgrave;
unicode = 7808;
},
